<?xml version="1.0" encoding="UTF-8" standalone="no"?>
<!DOCTYPE svg PUBLIC "-//W3C//DTD SVG 1.1//EN"
 "http://www.w3.org/Graphics/SVG/1.1/DTD/svg11.dtd">
<!-- Generated by graphviz version 2.43.0 (0)
 -->
<!-- Title: G Pages: 1 -->
<svg width="1486pt" height="986pt"
 viewBox="0.00 0.00 1486.20 986.47" xmlns="http://www.w3.org/2000/svg" xmlns:xlink="http://www.w3.org/1999/xlink">
<g id="graph0" class="graph" transform="scale(1 1) rotate(0) translate(21.6 964.87)">
<title>G</title>
<polygon fill="#111111" stroke="transparent" points="-21.6,21.6 -21.6,-964.87 1464.6,-964.87 1464.6,21.6 -21.6,21.6"/>
<!-- TonyO/pullTrafficCamerasAPI.js -->
<g id="node1" class="node">
<title>TonyO/pullTrafficCamerasAPI.js</title>
<path fill="none" stroke="#cfffac" d="M232.83,-23C232.83,-23 39.17,-23 39.17,-23 35.33,-23 31.5,-19.17 31.5,-15.33 31.5,-15.33 31.5,-7.67 31.5,-7.67 31.5,-3.83 35.33,0 39.17,0 39.17,0 232.83,0 232.83,0 236.67,0 240.5,-3.83 240.5,-7.67 240.5,-7.67 240.5,-15.33 240.5,-15.33 240.5,-19.17 236.67,-23 232.83,-23"/>
<text text-anchor="middle" x="136" y="-7.8" font-family="Arial" font-size="14.00" fill="#cfffac">TonyO/pullTrafficCamerasAPI.js</text>
</g>
<!-- client/eslint.config.js -->
<g id="node2" class="node">
<title>client/eslint.config.js</title>
<path fill="none" stroke="#cfffac" d="M196.83,-64C196.83,-64 75.17,-64 75.17,-64 71.33,-64 67.5,-60.17 67.5,-56.33 67.5,-56.33 67.5,-48.67 67.5,-48.67 67.5,-44.83 71.33,-41 75.17,-41 75.17,-41 196.83,-41 196.83,-41 200.67,-41 204.5,-44.83 204.5,-48.67 204.5,-48.67 204.5,-56.33 204.5,-56.33 204.5,-60.17 200.67,-64 196.83,-64"/>
<text text-anchor="middle" x="136" y="-48.8" font-family="Arial" font-size="14.00" fill="#cfffac">client/eslint.config.js</text>
</g>
<!-- client/src/App.css -->
<g id="node3" class="node">
<title>client/src/App.css</title>
<path fill="none" stroke="#cfffac" d="M189.33,-105C189.33,-105 82.67,-105 82.67,-105 78.83,-105 75,-101.17 75,-97.33 75,-97.33 75,-89.67 75,-89.67 75,-85.83 78.83,-82 82.67,-82 82.67,-82 189.33,-82 189.33,-82 193.17,-82 197,-85.83 197,-89.67 197,-89.67 197,-97.33 197,-97.33 197,-101.17 193.17,-105 189.33,-105"/>
<text text-anchor="middle" x="136" y="-89.8" font-family="Arial" font-size="14.00" fill="#cfffac">client/src/App.css</text>
</g>
<!-- client/src/App.jsx -->
<g id="node4" class="node">
<title>client/src/App.jsx</title>
<path fill="none" stroke="#c6c5fe" d="M468.33,-187C468.33,-187 365.67,-187 365.67,-187 361.83,-187 358,-183.17 358,-179.33 358,-179.33 358,-171.67 358,-171.67 358,-167.83 361.83,-164 365.67,-164 365.67,-164 468.33,-164 468.33,-164 472.17,-164 476,-167.83 476,-171.67 476,-171.67 476,-179.33 476,-179.33 476,-183.17 472.17,-187 468.33,-187"/>
<text text-anchor="middle" x="417" y="-171.8" font-family="Arial" font-size="14.00" fill="#c6c5fe">client/src/App.jsx</text>
</g>
<!-- client/src/Footer.jsx -->
<g id="node5" class="node">
<title>client/src/Footer.jsx</title>
<path fill="none" stroke="#c6c5fe" d="M1038.33,-267C1038.33,-267 921.67,-267 921.67,-267 917.83,-267 914,-263.17 914,-259.33 914,-259.33 914,-251.67 914,-251.67 914,-247.83 917.83,-244 921.67,-244 921.67,-244 1038.33,-244 1038.33,-244 1042.17,-244 1046,-247.83 1046,-251.67 1046,-251.67 1046,-259.33 1046,-259.33 1046,-263.17 1042.17,-267 1038.33,-267"/>
<text text-anchor="middle" x="980" y="-251.8" font-family="Arial" font-size="14.00" fill="#c6c5fe">client/src/Footer.jsx</text>
</g>
<!-- client/src/App.jsx&#45;&gt;client/src/Footer.jsx -->
<g id="edge1" class="edge">
<title>client/src/App.jsx&#45;&gt;client/src/Footer.jsx</title>
<path fill="none" stroke="#757575" d="M438.68,-187.05C465.96,-201.62 515.93,-226.05 562,-236.5 679.15,-263.08 819.42,-263.2 903.76,-259.99"/>
<polygon fill="#757575" stroke="#757575" points="903.91,-263.49 913.76,-259.58 903.63,-256.49 903.91,-263.49"/>
</g>
<!-- client/src/FrontPage.jsx -->
<g id="node6" class="node">
<title>client/src/FrontPage.jsx</title>
<path fill="none" stroke="#c6c5fe" d="M753.33,-328C753.33,-328 611.67,-328 611.67,-328 607.83,-328 604,-324.17 604,-320.33 604,-320.33 604,-312.67 604,-312.67 604,-308.83 607.83,-305 611.67,-305 611.67,-305 753.33,-305 753.33,-305 757.17,-305 761,-308.83 761,-312.67 761,-312.67 761,-320.33 761,-320.33 761,-324.17 757.17,-328 753.33,-328"/>
<text text-anchor="middle" x="682.5" y="-312.8" font-family="Arial" font-size="14.00" fill="#c6c5fe">client/src/FrontPage.jsx</text>
</g>
<!-- client/src/App.jsx&#45;&gt;client/src/FrontPage.jsx -->
<g id="edge2" class="edge">
<title>client/src/App.jsx&#45;&gt;client/src/FrontPage.jsx</title>
<path fill="none" stroke="#757575" d="M433.34,-187.03C459,-205.95 512.66,-244.03 562,-269.5 586.09,-281.94 614.27,-293.17 637.21,-301.53"/>
<polygon fill="#757575" stroke="#757575" points="636.09,-304.85 646.69,-304.93 638.46,-298.26 636.09,-304.85"/>
</g>
<!-- client/src/Gallery.jsx -->
<g id="node7" class="node">
<title>client/src/Gallery.jsx</title>
<path fill="none" stroke="#c6c5fe" d="M743.33,-227C743.33,-227 621.67,-227 621.67,-227 617.83,-227 614,-223.17 614,-219.33 614,-219.33 614,-211.67 614,-211.67 614,-207.83 617.83,-204 621.67,-204 621.67,-204 743.33,-204 743.33,-204 747.17,-204 751,-207.83 751,-211.67 751,-211.67 751,-219.33 751,-219.33 751,-223.17 747.17,-227 743.33,-227"/>
<text text-anchor="middle" x="682.5" y="-211.8" font-family="Arial" font-size="14.00" fill="#c6c5fe">client/src/Gallery.jsx</text>
</g>
<!-- client/src/App.jsx&#45;&gt;client/src/Gallery.jsx -->
<g id="edge3" class="edge">
<title>client/src/App.jsx&#45;&gt;client/src/Gallery.jsx</title>
<path fill="none" stroke="#757575" d="M476.15,-184.33C513.68,-190.02 562.93,-197.5 603.79,-203.7"/>
<polygon fill="#757575" stroke="#757575" points="603.3,-207.17 613.71,-205.21 604.35,-200.25 603.3,-207.17"/>
</g>
<!-- client/src/Navbar.jsx -->
<g id="node8" class="node">
<title>client/src/Navbar.jsx</title>
<path fill="none" stroke="#c6c5fe" d="M1040.83,-429C1040.83,-429 919.17,-429 919.17,-429 915.33,-429 911.5,-425.17 911.5,-421.33 911.5,-421.33 911.5,-413.67 911.5,-413.67 911.5,-409.83 915.33,-406 919.17,-406 919.17,-406 1040.83,-406 1040.83,-406 1044.67,-406 1048.5,-409.83 1048.5,-413.67 1048.5,-413.67 1048.5,-421.33 1048.5,-421.33 1048.5,-425.17 1044.67,-429 1040.83,-429"/>
<text text-anchor="middle" x="980" y="-413.8" font-family="Arial" font-size="14.00" fill="#c6c5fe">client/src/Navbar.jsx</text>
</g>
<!-- client/src/App.jsx&#45;&gt;client/src/Navbar.jsx -->
<g id="edge4" class="edge">
<title>client/src/App.jsx&#45;&gt;client/src/Navbar.jsx</title>
<path fill="none" stroke="#757575" d="M424.62,-187.24C442.43,-217.64 494.61,-299.2 562,-337.5 668.8,-398.2 813.27,-413.78 901.1,-417.25"/>
<polygon fill="#757575" stroke="#757575" points="901.14,-420.75 911.26,-417.61 901.39,-413.76 901.14,-420.75"/>
</g>
<!-- client/src/TrafficVideo.jsx -->
<g id="node9" class="node">
<title>client/src/TrafficVideo.jsx</title>
<path fill="none" stroke="#cfffac" d="M757.83,-147C757.83,-147 607.17,-147 607.17,-147 603.33,-147 599.5,-143.17 599.5,-139.33 599.5,-139.33 599.5,-131.67 599.5,-131.67 599.5,-127.83 603.33,-124 607.17,-124 607.17,-124 757.83,-124 757.83,-124 761.67,-124 765.5,-127.83 765.5,-131.67 765.5,-131.67 765.5,-139.33 765.5,-139.33 765.5,-143.17 761.67,-147 757.83,-147"/>
<text text-anchor="middle" x="682.5" y="-131.8" font-family="Arial" font-size="14.00" fill="#cfffac">client/src/TrafficVideo.jsx</text>
</g>
<!-- client/src/App.jsx&#45;&gt;client/src/TrafficVideo.jsx -->
<g id="edge5" class="edge">
<title>client/src/App.jsx&#45;&gt;client/src/TrafficVideo.jsx</title>
<path fill="none" stroke="#757575" d="M476.15,-166.67C511.07,-161.37 556.15,-154.53 595.17,-148.61"/>
<polygon fill="#757575" stroke="#757575" points="596.11,-152 605.47,-147.04 595.06,-145.08 596.11,-152"/>
</g>
<!-- client/src/component/Login.jsx -->
<g id="node10" class="node">
<title>client/src/component/Login.jsx</title>
<path fill="none" stroke="#c6c5fe" d="M773.83,-106C773.83,-106 591.17,-106 591.17,-106 587.33,-106 583.5,-102.17 583.5,-98.33 583.5,-98.33 583.5,-90.67 583.5,-90.67 583.5,-86.83 587.33,-83 591.17,-83 591.17,-83 773.83,-83 773.83,-83 777.67,-83 781.5,-86.83 781.5,-90.67 781.5,-90.67 781.5,-98.33 781.5,-98.33 781.5,-102.17 777.67,-106 773.83,-106"/>
<text text-anchor="middle" x="682.5" y="-90.8" font-family="Arial" font-size="14.00" fill="#c6c5fe">client/src/component/Login.jsx</text>
</g>
<!-- client/src/App.jsx&#45;&gt;client/src/component/Login.jsx -->
<g id="edge6" class="edge">
<title>client/src/App.jsx&#45;&gt;client/src/component/Login.jsx</title>
<path fill="none" stroke="#757575" d="M476.19,-171.19C493.05,-168.13 510.96,-163.01 526,-154.5 546.82,-142.72 541.03,-126.01 562,-114.5 565.79,-112.42 569.73,-110.55 573.79,-108.86"/>
<polygon fill="#757575" stroke="#757575" points="575.3,-112.03 583.44,-105.25 572.85,-105.48 575.3,-112.03"/>
</g>
<!-- client/src/component/Register.jsx -->
<g id="node11" class="node">
<title>client/src/component/Register.jsx</title>
<path fill="none" stroke="#c6c5fe" d="M782.33,-65C782.33,-65 582.67,-65 582.67,-65 578.83,-65 575,-61.17 575,-57.33 575,-57.33 575,-49.67 575,-49.67 575,-45.83 578.83,-42 582.67,-42 582.67,-42 782.33,-42 782.33,-42 786.17,-42 790,-45.83 790,-49.67 790,-49.67 790,-57.33 790,-57.33 790,-61.17 786.17,-65 782.33,-65"/>
<text text-anchor="middle" x="682.5" y="-49.8" font-family="Arial" font-size="14.00" fill="#c6c5fe">client/src/component/Register.jsx</text>
</g>
<!-- client/src/App.jsx&#45;&gt;client/src/component/Register.jsx -->
<g id="edge7" class="edge">
<title>client/src/App.jsx&#45;&gt;client/src/component/Register.jsx</title>
<path fill="none" stroke="#757575" d="M476.13,-174.35C493.66,-171.48 511.95,-165.68 526,-154.5 556.82,-129.96 530.86,-97.63 562,-73.5 563.43,-72.39 564.9,-71.34 566.4,-70.33"/>
<polygon fill="#757575" stroke="#757575" points="568.48,-73.17 575.35,-65.1 564.95,-67.12 568.48,-73.17"/>
</g>
<!-- client/src/component/VideoReactionCard.css -->
<g id="node12" class="node">
<title>client/src/component/VideoReactionCard.css</title>
<path fill="none" stroke="#cfffac" d="M1435.33,-308C1435.33,-308 1164.67,-308 1164.67,-308 1160.83,-308 1157,-304.17 1157,-300.33 1157,-300.33 1157,-292.67 1157,-292.67 1157,-288.83 1160.83,-285 1164.67,-285 1164.67,-285 1435.33,-285 1435.33,-285 1439.17,-285 1443,-288.83 1443,-292.67 1443,-292.67 1443,-300.33 1443,-300.33 1443,-304.17 1439.17,-308 1435.33,-308"/>
<text text-anchor="middle" x="1300" y="-292.8" font-family="Arial" font-size="14.00" fill="#cfffac">client/src/component/VideoReactionCard.css</text>
</g>
<!-- client/src/App.jsx&#45;&gt;client/src/component/VideoReactionCard.css -->
<g id="edge8" class="edge">
<title>client/src/App.jsx&#45;&gt;client/src/component/VideoReactionCard.css</title>
<path fill="none" stroke="#757575" d="M476.18,-173.45C635.1,-168.35 1068.25,-157.91 1121,-193.5 1154.33,-215.99 1125.01,-252.14 1157,-276.5 1158.43,-277.59 1159.89,-278.63 1161.38,-279.63"/>
<polygon fill="#757575" stroke="#757575" points="1159.84,-282.79 1170.23,-284.89 1163.42,-276.77 1159.84,-282.79"/>
</g>
<!-- client/src/Footer.css -->
<g id="node14" class="node">
<title>client/src/Footer.css</title>
<path fill="none" stroke="#cfffac" d="M1360.33,-267C1360.33,-267 1239.67,-267 1239.67,-267 1235.83,-267 1232,-263.17 1232,-259.33 1232,-259.33 1232,-251.67 1232,-251.67 1232,-247.83 1235.83,-244 1239.67,-244 1239.67,-244 1360.33,-244 1360.33,-244 1364.17,-244 1368,-247.83 1368,-251.67 1368,-251.67 1368,-259.33 1368,-259.33 1368,-263.17 1364.17,-267 1360.33,-267"/>
<text text-anchor="middle" x="1300" y="-251.8" font-family="Arial" font-size="14.00" fill="#cfffac">client/src/Footer.css</text>
</g>
<!-- client/src/Footer.jsx&#45;&gt;client/src/Footer.css -->
<g id="edge9" class="edge">
<title>client/src/Footer.jsx&#45;&gt;client/src/Footer.css</title>
<path fill="none" stroke="#757575" d="M1046.12,-255.5C1096.99,-255.5 1167.84,-255.5 1221.6,-255.5"/>
<polygon fill="#757575" stroke="#757575" points="1221.78,-259 1231.78,-255.5 1221.78,-252 1221.78,-259"/>
</g>
<!-- client/src/FrontPage.jsx&#45;&gt;client/src/Footer.jsx -->
<g id="edge10" class="edge">
<title>client/src/FrontPage.jsx&#45;&gt;client/src/Footer.jsx</title>
<path fill="none" stroke="#757575" d="M723.51,-305C754.76,-296.31 799.39,-284.54 839,-276.5 859.91,-272.25 882.73,-268.47 903.77,-265.33"/>
<polygon fill="#757575" stroke="#757575" points="904.55,-268.75 913.93,-263.84 903.53,-261.83 904.55,-268.75"/>
</g>
<!-- client/src/FrontPage.jsx&#45;&gt;client/src/Navbar.jsx -->
<g id="edge12" class="edge">
<title>client/src/FrontPage.jsx&#45;&gt;client/src/Navbar.jsx</title>
<path fill="none" stroke="#757575" d="M703.4,-328.24C732.3,-344.79 788.01,-374.8 839,-391.5 858.79,-397.98 880.71,-403.01 901.21,-406.84"/>
<polygon fill="#757575" stroke="#757575" points="900.69,-410.31 911.15,-408.63 901.93,-403.42 900.69,-410.31"/>
</g>
<!-- client/src/FrontPage.jsx&#45;&gt;client/src/component/VideoReactionCard.css -->
<g id="edge13" class="edge">
<title>client/src/FrontPage.jsx&#45;&gt;client/src/component/VideoReactionCard.css</title>
<path fill="none" stroke="#757575" d="M716.35,-328.09C747.47,-338.42 795.76,-352.76 839,-358.5 963.24,-374.98 997.42,-379.41 1121,-358.5 1172.91,-349.72 1229.87,-327.49 1265.03,-312.18"/>
<polygon fill="#757575" stroke="#757575" points="1266.62,-315.31 1274.35,-308.07 1263.79,-308.91 1266.62,-315.31"/>
</g>
<!-- client/src/FrontPage.css -->
<g id="node15" class="node">
<title>client/src/FrontPage.css</title>
<path fill="none" stroke="#cfffac" d="M1052.83,-349C1052.83,-349 907.17,-349 907.17,-349 903.33,-349 899.5,-345.17 899.5,-341.33 899.5,-341.33 899.5,-333.67 899.5,-333.67 899.5,-329.83 903.33,-326 907.17,-326 907.17,-326 1052.83,-326 1052.83,-326 1056.67,-326 1060.5,-329.83 1060.5,-333.67 1060.5,-333.67 1060.5,-341.33 1060.5,-341.33 1060.5,-345.17 1056.67,-349 1052.83,-349"/>
<text text-anchor="middle" x="980" y="-333.8" font-family="Arial" font-size="14.00" fill="#cfffac">client/src/FrontPage.css</text>
</g>
<!-- client/src/FrontPage.jsx&#45;&gt;client/src/FrontPage.css -->
<g id="edge11" class="edge">
<title>client/src/FrontPage.jsx&#45;&gt;client/src/FrontPage.css</title>
<path fill="none" stroke="#757575" d="M761.14,-322.02C800.39,-324.81 848.24,-328.21 889.08,-331.11"/>
<polygon fill="#757575" stroke="#757575" points="889.08,-334.62 899.31,-331.84 889.58,-327.64 889.08,-334.62"/>
</g>
<!-- client/src/component/VideoReactionCard.jsx -->
<g id="node16" class="node">
<title>client/src/component/VideoReactionCard.jsx</title>
<path fill="none" stroke="#c6c5fe" d="M1113.33,-308C1113.33,-308 846.67,-308 846.67,-308 842.83,-308 839,-304.17 839,-300.33 839,-300.33 839,-292.67 839,-292.67 839,-288.83 842.83,-285 846.67,-285 846.67,-285 1113.33,-285 1113.33,-285 1117.17,-285 1121,-288.83 1121,-292.67 1121,-292.67 1121,-300.33 1121,-300.33 1121,-304.17 1117.17,-308 1113.33,-308"/>
<text text-anchor="middle" x="980" y="-292.8" font-family="Arial" font-size="14.00" fill="#c6c5fe">client/src/component/VideoReactionCard.jsx</text>
</g>
<!-- client/src/FrontPage.jsx&#45;&gt;client/src/component/VideoReactionCard.jsx -->
<g id="edge14" class="edge">
<title>client/src/FrontPage.jsx&#45;&gt;client/src/component/VideoReactionCard.jsx</title>
<path fill="none" stroke="#757575" d="M761.14,-311.25C782.01,-309.83 805.31,-308.26 828.7,-306.67"/>
<polygon fill="#757575" stroke="#757575" points="828.98,-310.16 838.72,-305.99 828.51,-303.18 828.98,-310.16"/>
</g>
<!-- client/src/Gallery.jsx&#45;&gt;client/src/Footer.jsx -->
<g id="edge15" class="edge">
<title>client/src/Gallery.jsx&#45;&gt;client/src/Footer.jsx</title>
<path fill="none" stroke="#757575" d="M751.29,-224.68C796.77,-230.83 856.72,-238.95 903.69,-245.31"/>
<polygon fill="#757575" stroke="#757575" points="903.43,-248.8 913.81,-246.68 904.37,-241.87 903.43,-248.8"/>
</g>
<!-- client/src/Gallery.jsx&#45;&gt;client/src/component/VideoReactionCard.jsx -->
<g id="edge17" class="edge">
<title>client/src/Gallery.jsx&#45;&gt;client/src/component/VideoReactionCard.jsx</title>
<path fill="none" stroke="#757575" d="M707.69,-227.03C737.78,-240.89 791.05,-263.85 839,-276.5 848.44,-278.99 858.32,-281.19 868.28,-283.12"/>
<polygon fill="#757575" stroke="#757575" points="867.78,-286.59 878.25,-284.98 869.06,-279.71 867.78,-286.59"/>
</g>
<!-- client/src/Gallery.css -->
<g id="node17" class="node">
<title>client/src/Gallery.css</title>
<path fill="none" stroke="#cfffac" d="M1042.33,-226C1042.33,-226 917.67,-226 917.67,-226 913.83,-226 910,-222.17 910,-218.33 910,-218.33 910,-210.67 910,-210.67 910,-206.83 913.83,-203 917.67,-203 917.67,-203 1042.33,-203 1042.33,-203 1046.17,-203 1050,-206.83 1050,-210.67 1050,-210.67 1050,-218.33 1050,-218.33 1050,-222.17 1046.17,-226 1042.33,-226"/>
<text text-anchor="middle" x="980" y="-210.8" font-family="Arial" font-size="14.00" fill="#cfffac">client/src/Gallery.css</text>
</g>
<!-- client/src/Gallery.jsx&#45;&gt;client/src/Gallery.css -->
<g id="edge16" class="edge">
<title>client/src/Gallery.jsx&#45;&gt;client/src/Gallery.css</title>
<path fill="none" stroke="#757575" d="M751.29,-215.27C795.58,-215.12 853.59,-214.92 899.97,-214.77"/>
<polygon fill="#757575" stroke="#757575" points="900,-218.27 909.99,-214.73 899.97,-211.27 900,-218.27"/>
</g>
<!-- client/src/Navbar.css -->
<g id="node19" class="node">
<title>client/src/Navbar.css</title>
<path fill="none" stroke="#cfffac" d="M1362.33,-429C1362.33,-429 1237.67,-429 1237.67,-429 1233.83,-429 1230,-425.17 1230,-421.33 1230,-421.33 1230,-413.67 1230,-413.67 1230,-409.83 1233.83,-406 1237.67,-406 1237.67,-406 1362.33,-406 1362.33,-406 1366.17,-406 1370,-409.83 1370,-413.67 1370,-413.67 1370,-421.33 1370,-421.33 1370,-425.17 1366.17,-429 1362.33,-429"/>
<text text-anchor="middle" x="1300" y="-413.8" font-family="Arial" font-size="14.00" fill="#cfffac">client/src/Navbar.css</text>
</g>
<!-- client/src/Navbar.jsx&#45;&gt;client/src/Navbar.css -->
<g id="edge18" class="edge">
<title>client/src/Navbar.jsx&#45;&gt;client/src/Navbar.css</title>
<path fill="none" stroke="#757575" d="M1048.83,-417.5C1098.85,-417.5 1167.05,-417.5 1219.61,-417.5"/>
<polygon fill="#757575" stroke="#757575" points="1219.9,-421 1229.9,-417.5 1219.9,-414 1219.9,-421"/>
</g>
<!-- client/src/component/Login.css -->
<g id="node22" class="node">
<title>client/src/component/Login.css</title>
<path fill="none" stroke="#cfffac" d="M1073.33,-106C1073.33,-106 886.67,-106 886.67,-106 882.83,-106 879,-102.17 879,-98.33 879,-98.33 879,-90.67 879,-90.67 879,-86.83 882.83,-83 886.67,-83 886.67,-83 1073.33,-83 1073.33,-83 1077.17,-83 1081,-86.83 1081,-90.67 1081,-90.67 1081,-98.33 1081,-98.33 1081,-102.17 1077.17,-106 1073.33,-106"/>
<text text-anchor="middle" x="980" y="-90.8" font-family="Arial" font-size="14.00" fill="#cfffac">client/src/component/Login.css</text>
</g>
<!-- client/src/component/Login.jsx&#45;&gt;client/src/component/Login.css -->
<g id="edge19" class="edge">
<title>client/src/component/Login.jsx&#45;&gt;client/src/component/Login.css</title>
<path fill="none" stroke="#757575" d="M781.9,-94.5C809.63,-94.5 839.99,-94.5 868.4,-94.5"/>
<polygon fill="#757575" stroke="#757575" points="868.76,-98 878.76,-94.5 868.76,-91 868.76,-98"/>
</g>
<!-- client/src/component/Register.css -->
<g id="node23" class="node">
<title>client/src/component/Register.css</title>
<path fill="none" stroke="#cfffac" d="M1081.33,-65C1081.33,-65 878.67,-65 878.67,-65 874.83,-65 871,-61.17 871,-57.33 871,-57.33 871,-49.67 871,-49.67 871,-45.83 874.83,-42 878.67,-42 878.67,-42 1081.33,-42 1081.33,-42 1085.17,-42 1089,-45.83 1089,-49.67 1089,-49.67 1089,-57.33 1089,-57.33 1089,-61.17 1085.17,-65 1081.33,-65"/>
<text text-anchor="middle" x="980" y="-49.8" font-family="Arial" font-size="14.00" fill="#cfffac">client/src/component/Register.css</text>
</g>
<!-- client/src/component/Register.jsx&#45;&gt;client/src/component/Register.css -->
<g id="edge20" class="edge">
<title>client/src/component/Register.jsx&#45;&gt;client/src/component/Register.css</title>
<path fill="none" stroke="#757575" d="M790.18,-53.5C813.08,-53.5 837.41,-53.5 860.71,-53.5"/>
<polygon fill="#757575" stroke="#757575" points="860.98,-57 870.98,-53.5 860.98,-50 860.98,-57"/>
</g>
<!-- client/src/CounterButton.jsx -->
<g id="node13" class="node">
<title>client/src/CounterButton.jsx</title>
<path fill="none" stroke="#cfffac" d="M218.83,-208C218.83,-208 53.17,-208 53.17,-208 49.33,-208 45.5,-204.17 45.5,-200.33 45.5,-200.33 45.5,-192.67 45.5,-192.67 45.5,-188.83 49.33,-185 53.17,-185 53.17,-185 218.83,-185 218.83,-185 222.67,-185 226.5,-188.83 226.5,-192.67 226.5,-192.67 226.5,-200.33 226.5,-200.33 226.5,-204.17 222.67,-208 218.83,-208"/>
<text text-anchor="middle" x="136" y="-192.8" font-family="Arial" font-size="14.00" fill="#cfffac">client/src/CounterButton.jsx</text>
</g>
<!-- client/src/component/VideoReactionCard.jsx&#45;&gt;client/src/component/VideoReactionCard.css -->
<g id="edge21" class="edge">
<title>client/src/component/VideoReactionCard.jsx&#45;&gt;client/src/component/VideoReactionCard.css</title>
<path fill="none" stroke="#757575" d="M1121.41,-296.5C1129.9,-296.5 1138.46,-296.5 1146.99,-296.5"/>
<polygon fill="#757575" stroke="#757575" points="1147,-300 1157,-296.5 1147,-293 1147,-300"/>
</g>
<!-- client/src/Login.jsx -->
<g id="node18" class="node">
<title>client/src/Login.jsx</title>
<path fill="none" stroke="#cfffac" d="M191.83,-287C191.83,-287 80.17,-287 80.17,-287 76.33,-287 72.5,-283.17 72.5,-279.33 72.5,-279.33 72.5,-271.67 72.5,-271.67 72.5,-267.83 76.33,-264 80.17,-264 80.17,-264 191.83,-264 191.83,-264 195.67,-264 199.5,-267.83 199.5,-271.67 199.5,-271.67 199.5,-279.33 199.5,-279.33 199.5,-283.17 195.67,-287 191.83,-287"/>
<text text-anchor="middle" x="136" y="-271.8" font-family="Arial" font-size="14.00" fill="#cfffac">client/src/Login.jsx</text>
</g>
<!-- client/src/SuperheroRegistry.jsx -->
<g id="node20" class="node">
<title>client/src/SuperheroRegistry.jsx</title>
<path fill="none" stroke="#cfffac" d="M231.33,-347C231.33,-347 40.67,-347 40.67,-347 36.83,-347 33,-343.17 33,-339.33 33,-339.33 33,-331.67 33,-331.67 33,-327.83 36.83,-324 40.67,-324 40.67,-324 231.33,-324 231.33,-324 235.17,-324 239,-327.83 239,-331.67 239,-331.67 239,-339.33 239,-339.33 239,-343.17 235.17,-347 231.33,-347"/>
<text text-anchor="middle" x="136" y="-331.8" font-family="Arial" font-size="14.00" fill="#cfffac">client/src/SuperheroRegistry.jsx</text>
</g>
<!-- client/src/colour.css -->
<g id="node21" class="node">
<title>client/src/colour.css</title>
<path fill="none" stroke="#cfffac" d="M195.33,-397C195.33,-397 76.67,-397 76.67,-397 72.83,-397 69,-393.17 69,-389.33 69,-389.33 69,-381.67 69,-381.67 69,-377.83 72.83,-374 76.67,-374 76.67,-374 195.33,-374 195.33,-374 199.17,-374 203,-377.83 203,-381.67 203,-381.67 203,-389.33 203,-389.33 203,-393.17 199.17,-397 195.33,-397"/>
<text text-anchor="middle" x="136" y="-381.8" font-family="Arial" font-size="14.00" fill="#cfffac">client/src/colour.css</text>
</g>
<!-- client/src/component/SharePopup.jsx -->
<g id="node24" class="node">
<title>client/src/component/SharePopup.jsx</title>
<path fill="none" stroke="#cfffac" d="M248.33,-443C248.33,-443 23.67,-443 23.67,-443 19.83,-443 16,-439.17 16,-435.33 16,-435.33 16,-427.67 16,-427.67 16,-423.83 19.83,-420 23.67,-420 23.67,-420 248.33,-420 248.33,-420 252.17,-420 256,-423.83 256,-427.67 256,-427.67 256,-435.33 256,-435.33 256,-439.17 252.17,-443 248.33,-443"/>
<text text-anchor="middle" x="136" y="-427.8" font-family="Arial" font-size="14.00" fill="#cfffac">client/src/component/SharePopup.jsx</text>
</g>
<!-- client/src/component/VideoPlayer.jsx -->
<g id="node25" class="node">
<title>client/src/component/VideoPlayer.jsx</title>
<path fill="none" stroke="#cfffac" d="M246.83,-486C246.83,-486 25.17,-486 25.17,-486 21.33,-486 17.5,-482.17 17.5,-478.33 17.5,-478.33 17.5,-470.67 17.5,-470.67 17.5,-466.83 21.33,-463 25.17,-463 25.17,-463 246.83,-463 246.83,-463 250.67,-463 254.5,-466.83 254.5,-470.67 254.5,-470.67 254.5,-478.33 254.5,-478.33 254.5,-482.17 250.67,-486 246.83,-486"/>
<text text-anchor="middle" x="136" y="-470.8" font-family="Arial" font-size="14.00" fill="#cfffac">client/src/component/VideoPlayer.jsx</text>
</g>
<!-- client/src/createSuffle.js -->
<g id="node26" class="node">
<title>client/src/createSuffle.js</title>
<path fill="none" stroke="#cfffac" d="M207.83,-528C207.83,-528 64.17,-528 64.17,-528 60.33,-528 56.5,-524.17 56.5,-520.33 56.5,-520.33 56.5,-512.67 56.5,-512.67 56.5,-508.83 60.33,-505 64.17,-505 64.17,-505 207.83,-505 207.83,-505 211.67,-505 215.5,-508.83 215.5,-512.67 215.5,-512.67 215.5,-520.33 215.5,-520.33 215.5,-524.17 211.67,-528 207.83,-528"/>
<text text-anchor="middle" x="136" y="-512.8" font-family="Arial" font-size="14.00" fill="#cfffac">client/src/createSuffle.js</text>
</g>
<!-- client/src/main.css -->
<g id="node27" class="node">
<title>client/src/main.css</title>
<path fill="none" stroke="#cfffac" d="M473.33,-146C473.33,-146 360.67,-146 360.67,-146 356.83,-146 353,-142.17 353,-138.33 353,-138.33 353,-130.67 353,-130.67 353,-126.83 356.83,-123 360.67,-123 360.67,-123 473.33,-123 473.33,-123 477.17,-123 481,-126.83 481,-130.67 481,-130.67 481,-138.33 481,-138.33 481,-142.17 477.17,-146 473.33,-146"/>
<text text-anchor="middle" x="417" y="-130.8" font-family="Arial" font-size="14.00" fill="#cfffac">client/src/main.css</text>
</g>
<!-- client/src/main.jsx -->
<g id="node28" class="node">
<title>client/src/main.jsx</title>
<path fill="none" stroke="#c6c5fe" d="M190.33,-146C190.33,-146 81.67,-146 81.67,-146 77.83,-146 74,-142.17 74,-138.33 74,-138.33 74,-130.67 74,-130.67 74,-126.83 77.83,-123 81.67,-123 81.67,-123 190.33,-123 190.33,-123 194.17,-123 198,-126.83 198,-130.67 198,-130.67 198,-138.33 198,-138.33 198,-142.17 194.17,-146 190.33,-146"/>
<text text-anchor="middle" x="136" y="-130.8" font-family="Arial" font-size="14.00" fill="#c6c5fe">client/src/main.jsx</text>
</g>
<!-- client/src/main.jsx&#45;&gt;client/src/App.jsx -->
<g id="edge22" class="edge">
<title>client/src/main.jsx&#45;&gt;client/src/App.jsx</title>
<path fill="none" stroke="#757575" d="M198.23,-143.5C242.37,-149.98 301.97,-158.74 347.66,-165.46"/>
<polygon fill="#757575" stroke="#757575" points="347.38,-168.95 357.78,-166.94 348.39,-162.03 347.38,-168.95"/>
</g>
<!-- client/src/main.jsx&#45;&gt;client/src/main.css -->
<g id="edge23" class="edge">
<title>client/src/main.jsx&#45;&gt;client/src/main.css</title>
<path fill="none" stroke="#757575" d="M198.23,-134.5C240.79,-134.5 297.72,-134.5 342.7,-134.5"/>
<polygon fill="#757575" stroke="#757575" points="342.98,-138 352.98,-134.5 342.98,-131 342.98,-138"/>
</g>
<!-- client/vite.config.js -->
<g id="node29" class="node">
<title>client/vite.config.js</title>
<path fill="none" stroke="#cfffac" d="M191.33,-570C191.33,-570 80.67,-570 80.67,-570 76.83,-570 73,-566.17 73,-562.33 73,-562.33 73,-554.67 73,-554.67 73,-550.83 76.83,-547 80.67,-547 80.67,-547 191.33,-547 191.33,-547 195.17,-547 199,-550.83 199,-554.67 199,-554.67 199,-562.33 199,-562.33 199,-566.17 195.17,-570 191.33,-570"/>
<text text-anchor="middle" x="136" y="-554.8" font-family="Arial" font-size="14.00" fill="#cfffac">client/vite.config.js</text>
</g>
<!-- findComponentDuplicates.js -->
<g id="node30" class="node">
<title>findComponentDuplicates.js</title>
<path fill="none" stroke="#cfffac" d="M220.83,-611C220.83,-611 51.17,-611 51.17,-611 47.33,-611 43.5,-607.17 43.5,-603.33 43.5,-603.33 43.5,-595.67 43.5,-595.67 43.5,-591.83 47.33,-588 51.17,-588 51.17,-588 220.83,-588 220.83,-588 224.67,-588 228.5,-591.83 228.5,-595.67 228.5,-595.67 228.5,-603.33 228.5,-603.33 228.5,-607.17 224.67,-611 220.83,-611"/>
<text text-anchor="middle" x="136" y="-595.8" font-family="Arial" font-size="14.00" fill="#cfffac">findComponentDuplicates.js</text>
</g>
<!-- server/cli/createCity.js -->
<g id="node31" class="node">
<title>server/cli/createCity.js</title>
<path fill="none" stroke="#c6c5fe" d="M483.33,-939C483.33,-939 350.67,-939 350.67,-939 346.83,-939 343,-935.17 343,-931.33 343,-931.33 343,-923.67 343,-923.67 343,-919.83 346.83,-916 350.67,-916 350.67,-916 483.33,-916 483.33,-916 487.17,-916 491,-919.83 491,-923.67 491,-923.67 491,-931.33 491,-931.33 491,-935.17 487.17,-939 483.33,-939"/>
<text text-anchor="middle" x="417" y="-923.8" font-family="Arial" font-size="14.00" fill="#c6c5fe">server/cli/createCity.js</text>
</g>
<!-- server/db.js -->
<g id="node32" class="node">
<title>server/db.js</title>
<path fill="none" stroke="#cfffac" d="M1015.33,-754C1015.33,-754 944.67,-754 944.67,-754 940.83,-754 937,-750.17 937,-746.33 937,-746.33 937,-738.67 937,-738.67 937,-734.83 940.83,-731 944.67,-731 944.67,-731 1015.33,-731 1015.33,-731 1019.17,-731 1023,-734.83 1023,-738.67 1023,-738.67 1023,-746.33 1023,-746.33 1023,-750.17 1019.17,-754 1015.33,-754"/>
<text text-anchor="middle" x="980" y="-738.8" font-family="Arial" font-size="14.00" fill="#cfffac">server/db.js</text>
</g>
<!-- server/cli/createCity.js&#45;&gt;server/db.js -->
<g id="edge24" class="edge">
<title>server/cli/createCity.js&#45;&gt;server/db.js</title>
<path fill="none" stroke="#757575" d="M491.2,-937.86C571.2,-945.98 701.52,-949.68 803,-906.5 876.69,-875.14 938.73,-798.75 965.23,-762.38"/>
<polygon fill="#757575" stroke="#757575" points="968.22,-764.22 971.19,-754.05 962.53,-760.15 968.22,-764.22"/>
</g>
<!-- server/models/cities.js -->
<g id="node33" class="node">
<title>server/models/cities.js</title>
<path fill="none" stroke="#c6c5fe" d="M749.83,-897C749.83,-897 615.17,-897 615.17,-897 611.33,-897 607.5,-893.17 607.5,-889.33 607.5,-889.33 607.5,-881.67 607.5,-881.67 607.5,-877.83 611.33,-874 615.17,-874 615.17,-874 749.83,-874 749.83,-874 753.67,-874 757.5,-877.83 757.5,-881.67 757.5,-881.67 757.5,-889.33 757.5,-889.33 757.5,-893.17 753.67,-897 749.83,-897"/>
<text text-anchor="middle" x="682.5" y="-881.8" font-family="Arial" font-size="14.00" fill="#c6c5fe">server/models/cities.js</text>
</g>
<!-- server/cli/createCity.js&#45;&gt;server/models/cities.js -->
<g id="edge25" class="edge">
<title>server/cli/createCity.js&#45;&gt;server/models/cities.js</title>
<path fill="none" stroke="#757575" d="M490.35,-915.97C524.05,-910.6 564.3,-904.18 599.16,-898.62"/>
<polygon fill="#757575" stroke="#757575" points="599.99,-902.04 609.31,-897.01 598.88,-895.12 599.99,-902.04"/>
</g>
<!-- server/models/cities.js&#45;&gt;server/db.js -->
<g id="edge36" class="edge">
<title>server/models/cities.js&#45;&gt;server/db.js</title>
<path fill="none" stroke="#757575" d="M754.03,-873.99C770.46,-870.11 787.64,-865.04 803,-858.5 863.27,-832.84 925.31,-786.35 957.17,-760.7"/>
<polygon fill="#757575" stroke="#757575" points="959.42,-763.39 964.97,-754.36 955,-757.96 959.42,-763.39"/>
</g>
<!-- server/cli/createHero.js -->
<g id="node34" class="node">
<title>server/cli/createHero.js</title>
<path fill="none" stroke="#c6c5fe" d="M486.83,-816C486.83,-816 347.17,-816 347.17,-816 343.33,-816 339.5,-812.17 339.5,-808.33 339.5,-808.33 339.5,-800.67 339.5,-800.67 339.5,-796.83 343.33,-793 347.17,-793 347.17,-793 486.83,-793 486.83,-793 490.67,-793 494.5,-796.83 494.5,-800.67 494.5,-800.67 494.5,-808.33 494.5,-808.33 494.5,-812.17 490.67,-816 486.83,-816"/>
<text text-anchor="middle" x="417" y="-800.8" font-family="Arial" font-size="14.00" fill="#c6c5fe">server/cli/createHero.js</text>
</g>
<!-- server/cli/createHero.js&#45;&gt;server/db.js -->
<g id="edge26" class="edge">
<title>server/cli/createHero.js&#45;&gt;server/db.js</title>
<path fill="none" stroke="#757575" d="M494.73,-804.62C572.73,-803.78 696.84,-799.79 803,-784.5 846.44,-778.24 894.88,-766.31 929.93,-756.75"/>
<polygon fill="#757575" stroke="#757575" points="931.19,-760.04 939.9,-754 929.33,-753.29 931.19,-760.04"/>
</g>
<!-- server/models/superheroes.js -->
<g id="node35" class="node">
<title>server/models/superheroes.js</title>
<path fill="none" stroke="#c6c5fe" d="M771.83,-775C771.83,-775 593.17,-775 593.17,-775 589.33,-775 585.5,-771.17 585.5,-767.33 585.5,-767.33 585.5,-759.67 585.5,-759.67 585.5,-755.83 589.33,-752 593.17,-752 593.17,-752 771.83,-752 771.83,-752 775.67,-752 779.5,-755.83 779.5,-759.67 779.5,-759.67 779.5,-767.33 779.5,-767.33 779.5,-771.17 775.67,-775 771.83,-775"/>
<text text-anchor="middle" x="682.5" y="-759.8" font-family="Arial" font-size="14.00" fill="#c6c5fe">server/models/superheroes.js</text>
</g>
<!-- server/cli/createHero.js&#45;&gt;server/models/superheroes.js -->
<g id="edge27" class="edge">
<title>server/cli/createHero.js&#45;&gt;server/models/superheroes.js</title>
<path fill="none" stroke="#757575" d="M492.1,-792.97C524.94,-787.86 563.72,-781.83 597.62,-776.55"/>
<polygon fill="#757575" stroke="#757575" points="598.16,-780.01 607.5,-775.01 597.08,-773.09 598.16,-780.01"/>
</g>
<!-- server/models/superheroes.js&#45;&gt;server/db.js -->
<g id="edge38" class="edge">
<title>server/models/superheroes.js&#45;&gt;server/db.js</title>
<path fill="none" stroke="#757575" d="M779.85,-756.65C828.65,-753.18 886.01,-749.11 926.6,-746.22"/>
<polygon fill="#757575" stroke="#757575" points="927.07,-749.7 936.8,-745.5 926.58,-742.72 927.07,-749.7"/>
</g>
<!-- server/cli/generateVideoIndex.js -->
<g id="node36" class="node">
<title>server/cli/generateVideoIndex.js</title>
<path fill="none" stroke="#cfffac" d="M232.83,-693C232.83,-693 39.17,-693 39.17,-693 35.33,-693 31.5,-689.17 31.5,-685.33 31.5,-685.33 31.5,-677.67 31.5,-677.67 31.5,-673.83 35.33,-670 39.17,-670 39.17,-670 232.83,-670 232.83,-670 236.67,-670 240.5,-673.83 240.5,-677.67 240.5,-677.67 240.5,-685.33 240.5,-685.33 240.5,-689.17 236.67,-693 232.83,-693"/>
<text text-anchor="middle" x="136" y="-677.8" font-family="Arial" font-size="14.00" fill="#cfffac">server/cli/generateVideoIndex.js</text>
</g>
<!-- server/cli/listCities.js -->
<g id="node37" class="node">
<title>server/cli/listCities.js</title>
<path fill="none" stroke="#c6c5fe" d="M478.33,-857C478.33,-857 355.67,-857 355.67,-857 351.83,-857 348,-853.17 348,-849.33 348,-849.33 348,-841.67 348,-841.67 348,-837.83 351.83,-834 355.67,-834 355.67,-834 478.33,-834 478.33,-834 482.17,-834 486,-837.83 486,-841.67 486,-841.67 486,-849.33 486,-849.33 486,-853.17 482.17,-857 478.33,-857"/>
<text text-anchor="middle" x="417" y="-841.8" font-family="Arial" font-size="14.00" fill="#c6c5fe">server/cli/listCities.js</text>
</g>
<!-- server/cli/listCities.js&#45;&gt;server/db.js -->
<g id="edge28" class="edge">
<title>server/cli/listCities.js&#45;&gt;server/db.js</title>
<path fill="none" stroke="#757575" d="M486.31,-844.01C563.94,-841.1 694.02,-832.57 803,-807.5 853.78,-795.82 909.82,-773.36 944.71,-758.15"/>
<polygon fill="#757575" stroke="#757575" points="946.24,-761.3 953.97,-754.07 943.41,-754.9 946.24,-761.3"/>
</g>
<!-- server/cli/listCities.js&#45;&gt;server/models/cities.js -->
<g id="edge29" class="edge">
<title>server/cli/listCities.js&#45;&gt;server/models/cities.js</title>
<path fill="none" stroke="#757575" d="M486.2,-855.85C520.07,-860.99 561.31,-867.25 597.15,-872.7"/>
<polygon fill="#757575" stroke="#757575" points="596.69,-876.17 607.1,-874.21 597.74,-869.25 596.69,-876.17"/>
</g>
<!-- server/cli/listHeroes.js -->
<g id="node38" class="node">
<title>server/cli/listHeroes.js</title>
<path fill="none" stroke="#c6c5fe" d="M483.33,-734C483.33,-734 350.67,-734 350.67,-734 346.83,-734 343,-730.17 343,-726.33 343,-726.33 343,-718.67 343,-718.67 343,-714.83 346.83,-711 350.67,-711 350.67,-711 483.33,-711 483.33,-711 487.17,-711 491,-714.83 491,-718.67 491,-718.67 491,-726.33 491,-726.33 491,-730.17 487.17,-734 483.33,-734"/>
<text text-anchor="middle" x="417" y="-718.8" font-family="Arial" font-size="14.00" fill="#c6c5fe">server/cli/listHeroes.js</text>
</g>
<!-- server/cli/listHeroes.js&#45;&gt;server/db.js -->
<g id="edge30" class="edge">
<title>server/cli/listHeroes.js&#45;&gt;server/db.js</title>
<path fill="none" stroke="#757575" d="M491.05,-725.1C605.98,-729.2 826.24,-737.05 926.71,-740.64"/>
<polygon fill="#757575" stroke="#757575" points="926.8,-744.14 936.92,-741 927.05,-737.15 926.8,-744.14"/>
</g>
<!-- server/cli/listHeroes.js&#45;&gt;server/models/superheroes.js -->
<g id="edge31" class="edge">
<title>server/cli/listHeroes.js&#45;&gt;server/models/superheroes.js</title>
<path fill="none" stroke="#757575" d="M491.05,-733.87C524.04,-739 563.21,-745.09 597.42,-750.42"/>
<polygon fill="#757575" stroke="#757575" points="596.97,-753.89 607.39,-751.97 598.05,-746.97 596.97,-753.89"/>
</g>
<!-- server/cli/testCreateReaction.js -->
<g id="node39" class="node">
<title>server/cli/testCreateReaction.js</title>
<path fill="none" stroke="#c6c5fe" d="M510.83,-529C510.83,-529 323.17,-529 323.17,-529 319.33,-529 315.5,-525.17 315.5,-521.33 315.5,-521.33 315.5,-513.67 315.5,-513.67 315.5,-509.83 319.33,-506 323.17,-506 323.17,-506 510.83,-506 510.83,-506 514.67,-506 518.5,-509.83 518.5,-513.67 518.5,-513.67 518.5,-521.33 518.5,-521.33 518.5,-525.17 514.67,-529 510.83,-529"/>
<text text-anchor="middle" x="417" y="-513.8" font-family="Arial" font-size="14.00" fill="#c6c5fe">server/cli/testCreateReaction.js</text>
</g>
<!-- server/models/reactions.js -->
<g id="node40" class="node">
<title>server/models/reactions.js</title>
<path fill="none" stroke="#c6c5fe" d="M761.83,-529C761.83,-529 603.17,-529 603.17,-529 599.33,-529 595.5,-525.17 595.5,-521.33 595.5,-521.33 595.5,-513.67 595.5,-513.67 595.5,-509.83 599.33,-506 603.17,-506 603.17,-506 761.83,-506 761.83,-506 765.67,-506 769.5,-509.83 769.5,-513.67 769.5,-513.67 769.5,-521.33 769.5,-521.33 769.5,-525.17 765.67,-529 761.83,-529"/>
<text text-anchor="middle" x="682.5" y="-513.8" font-family="Arial" font-size="14.00" fill="#c6c5fe">server/models/reactions.js</text>
</g>
<!-- server/cli/testCreateReaction.js&#45;&gt;server/models/reactions.js -->
<g id="edge32" class="edge">
<title>server/cli/testCreateReaction.js&#45;&gt;server/models/reactions.js</title>
<path fill="none" stroke="#757575" d="M518.75,-517.5C540.57,-517.5 563.6,-517.5 585.24,-517.5"/>
<polygon fill="#757575" stroke="#757575" points="585.41,-521 595.41,-517.5 585.41,-514 585.41,-521"/>
</g>
<!-- server/models/reactions.js&#45;&gt;server/db.js -->
<g id="edge37" class="edge">
<title>server/models/reactions.js&#45;&gt;server/db.js</title>
<path fill="none" stroke="#757575" d="M769.56,-525.26C781.25,-528.39 792.74,-532.68 803,-538.5 883,-583.93 943.96,-679.97 967.92,-722.03"/>
<polygon fill="#757575" stroke="#757575" points="964.9,-723.81 972.83,-730.83 971.01,-720.4 964.9,-723.81"/>
</g>
<!-- server/cli/videoComment.js -->
<g id="node41" class="node">
<title>server/cli/videoComment.js</title>
<path fill="none" stroke="#c6c5fe" d="M499.33,-488C499.33,-488 334.67,-488 334.67,-488 330.83,-488 327,-484.17 327,-480.33 327,-480.33 327,-472.67 327,-472.67 327,-468.83 330.83,-465 334.67,-465 334.67,-465 499.33,-465 499.33,-465 503.17,-465 507,-468.83 507,-472.67 507,-472.67 507,-480.33 507,-480.33 507,-484.17 503.17,-488 499.33,-488"/>
<text text-anchor="middle" x="417" y="-472.8" font-family="Arial" font-size="14.00" fill="#c6c5fe">server/cli/videoComment.js</text>
</g>
<!-- server/cli/videoComment.js&#45;&gt;server/db.js -->
<g id="edge33" class="edge">
<title>server/cli/videoComment.js&#45;&gt;server/db.js</title>
<path fill="none" stroke="#757575" d="M507.03,-472.62C604.63,-469.89 753.91,-470.61 803,-497.5 896.05,-548.48 952.05,-672.2 971.37,-721.61"/>
<polygon fill="#757575" stroke="#757575" points="968.1,-722.88 974.93,-730.98 974.64,-720.38 968.1,-722.88"/>
</g>
<!-- server/cli/videoComment.js&#45;&gt;server/models/reactions.js -->
<g id="edge34" class="edge">
<title>server/cli/videoComment.js&#45;&gt;server/models/reactions.js</title>
<path fill="none" stroke="#757575" d="M492.1,-488.03C524.94,-493.14 563.72,-499.17 597.62,-504.45"/>
<polygon fill="#757575" stroke="#757575" points="597.08,-507.91 607.5,-505.99 598.16,-500.99 597.08,-507.91"/>
</g>
<!-- server/controllers/interactionsControllers.js -->
<g id="node42" class="node">
<title>server/controllers/interactionsControllers.js</title>
<path fill="none" stroke="#cfffac" d="M264.33,-734C264.33,-734 7.67,-734 7.67,-734 3.83,-734 0,-730.17 0,-726.33 0,-726.33 0,-718.67 0,-718.67 0,-714.83 3.83,-711 7.67,-711 7.67,-711 264.33,-711 264.33,-711 268.17,-711 272,-714.83 272,-718.67 272,-718.67 272,-726.33 272,-726.33 272,-730.17 268.17,-734 264.33,-734"/>
<text text-anchor="middle" x="136" y="-718.8" font-family="Arial" font-size="14.00" fill="#cfffac">server/controllers/interactionsControllers.js</text>
</g>
<!-- server/middleware/authMiddleware.js -->
<g id="node43" class="node">
<title>server/middleware/authMiddleware.js</title>
<path fill="none" stroke="#cfffac" d="M795.33,-570C795.33,-570 569.67,-570 569.67,-570 565.83,-570 562,-566.17 562,-562.33 562,-562.33 562,-554.67 562,-554.67 562,-550.83 565.83,-547 569.67,-547 569.67,-547 795.33,-547 795.33,-547 799.17,-547 803,-550.83 803,-554.67 803,-554.67 803,-562.33 803,-562.33 803,-566.17 799.17,-570 795.33,-570"/>
<text text-anchor="middle" x="682.5" y="-554.8" font-family="Arial" font-size="14.00" fill="#cfffac">server/middleware/authMiddleware.js</text>
</g>
<!-- server/models/cameralocations.js -->
<g id="node44" class="node">
<title>server/models/cameralocations.js</title>
<path fill="none" stroke="#c6c5fe" d="M783.83,-673C783.83,-673 581.17,-673 581.17,-673 577.33,-673 573.5,-669.17 573.5,-665.33 573.5,-665.33 573.5,-657.67 573.5,-657.67 573.5,-653.83 577.33,-650 581.17,-650 581.17,-650 783.83,-650 783.83,-650 787.67,-650 791.5,-653.83 791.5,-657.67 791.5,-657.67 791.5,-665.33 791.5,-665.33 791.5,-669.17 787.67,-673 783.83,-673"/>
<text text-anchor="middle" x="682.5" y="-657.8" font-family="Arial" font-size="14.00" fill="#c6c5fe">server/models/cameralocations.js</text>
</g>
<!-- server/models/cameralocations.js&#45;&gt;server/db.js -->
<g id="edge35" class="edge">
<title>server/models/cameralocations.js&#45;&gt;server/db.js</title>
<path fill="none" stroke="#757575" d="M725.52,-673.02C778.44,-687.52 869.33,-712.44 926.69,-728.16"/>
<polygon fill="#757575" stroke="#757575" points="926.07,-731.62 936.64,-730.89 927.92,-724.87 926.07,-731.62"/>
</g>
<!-- server/models/users.js -->
<g id="node45" class="node">
<title>server/models/users.js</title>
<path fill="none" stroke="#c6c5fe" d="M750.83,-448C750.83,-448 614.17,-448 614.17,-448 610.33,-448 606.5,-444.17 606.5,-440.33 606.5,-440.33 606.5,-432.67 606.5,-432.67 606.5,-428.83 610.33,-425 614.17,-425 614.17,-425 750.83,-425 750.83,-425 754.67,-425 758.5,-428.83 758.5,-432.67 758.5,-432.67 758.5,-440.33 758.5,-440.33 758.5,-444.17 754.67,-448 750.83,-448"/>
<text text-anchor="middle" x="682.5" y="-432.8" font-family="Arial" font-size="14.00" fill="#c6c5fe">server/models/users.js</text>
</g>
<!-- server/models/users.js&#45;&gt;server/db.js -->
<g id="edge39" class="edge">
<title>server/models/users.js&#45;&gt;server/db.js</title>
<path fill="none" stroke="#757575" d="M758.7,-444.1C774.32,-448.17 789.97,-454.29 803,-463.5 898.61,-531.06 953.75,-668.62 972.09,-721.31"/>
<polygon fill="#757575" stroke="#757575" points="968.83,-722.6 975.36,-730.94 975.46,-720.35 968.83,-722.6"/>
</g>
<!-- server/models/video.js -->
<g id="node46" class="node">
<title>server/models/video.js</title>
<path fill="none" stroke="#cfffac" d="M750.83,-611C750.83,-611 614.17,-611 614.17,-611 610.33,-611 606.5,-607.17 606.5,-603.33 606.5,-603.33 606.5,-595.67 606.5,-595.67 606.5,-591.83 610.33,-588 614.17,-588 614.17,-588 750.83,-588 750.83,-588 754.67,-588 758.5,-591.83 758.5,-595.67 758.5,-595.67 758.5,-603.33 758.5,-603.33 758.5,-607.17 754.67,-611 750.83,-611"/>
<text text-anchor="middle" x="682.5" y="-595.8" font-family="Arial" font-size="14.00" fill="#cfffac">server/models/video.js</text>
</g>
<!-- server/public/assets/index&#45;Dh3IiUK9.css -->
<g id="node47" class="node">
<title>server/public/assets/index&#45;Dh3IiUK9.css</title>
<path fill="none" stroke="#cfffac" d="M257.33,-775C257.33,-775 14.67,-775 14.67,-775 10.83,-775 7,-771.17 7,-767.33 7,-767.33 7,-759.67 7,-759.67 7,-755.83 10.83,-752 14.67,-752 14.67,-752 257.33,-752 257.33,-752 261.17,-752 265,-755.83 265,-759.67 265,-759.67 265,-767.33 265,-767.33 265,-771.17 261.17,-775 257.33,-775"/>
<text text-anchor="middle" x="136" y="-759.8" font-family="Arial" font-size="14.00" fill="#cfffac">server/public/assets/index&#45;Dh3IiUK9.css</text>
</g>
<!-- server/public/assets/index&#45;srVWfGby.js -->
<g id="node48" class="node">
<title>server/public/assets/index&#45;srVWfGby.js</title>
<path fill="none" stroke="#cfffac" d="M254.33,-816C254.33,-816 17.67,-816 17.67,-816 13.83,-816 10,-812.17 10,-808.33 10,-808.33 10,-800.67 10,-800.67 10,-796.83 13.83,-793 17.67,-793 17.67,-793 254.33,-793 254.33,-793 258.17,-793 262,-796.83 262,-800.67 262,-800.67 262,-808.33 262,-808.33 262,-812.17 258.17,-816 254.33,-816"/>
<text text-anchor="middle" x="136" y="-800.8" font-family="Arial" font-size="14.00" fill="#cfffac">server/public/assets/index&#45;srVWfGby.js</text>
</g>
<!-- server/routes/cameraLocations.js -->
<g id="node49" class="node">
<title>server/routes/cameraLocations.js</title>
<path fill="none" stroke="#c6c5fe" d="M517.33,-652C517.33,-652 316.67,-652 316.67,-652 312.83,-652 309,-648.17 309,-644.33 309,-644.33 309,-636.67 309,-636.67 309,-632.83 312.83,-629 316.67,-629 316.67,-629 517.33,-629 517.33,-629 521.17,-629 525,-632.83 525,-636.67 525,-636.67 525,-644.33 525,-644.33 525,-648.17 521.17,-652 517.33,-652"/>
<text text-anchor="middle" x="417" y="-636.8" font-family="Arial" font-size="14.00" fill="#c6c5fe">server/routes/cameraLocations.js</text>
</g>
<!-- server/routes/cameraLocations.js&#45;&gt;server/models/cameralocations.js -->
<g id="edge40" class="edge">
<title>server/routes/cameraLocations.js&#45;&gt;server/models/cameralocations.js</title>
<path fill="none" stroke="#757575" d="M525.18,-649.04C537.66,-650.04 550.44,-651.05 563.06,-652.06"/>
<polygon fill="#757575" stroke="#757575" points="562.89,-655.56 573.14,-652.86 563.45,-648.58 562.89,-655.56"/>
</g>
<!-- server/routes/cityRoutes.js -->
<g id="node50" class="node">
<title>server/routes/cityRoutes.js</title>
<path fill="none" stroke="#c6c5fe" d="M497.33,-898C497.33,-898 336.67,-898 336.67,-898 332.83,-898 329,-894.17 329,-890.33 329,-890.33 329,-882.67 329,-882.67 329,-878.83 332.83,-875 336.67,-875 336.67,-875 497.33,-875 497.33,-875 501.17,-875 505,-878.83 505,-882.67 505,-882.67 505,-890.33 505,-890.33 505,-894.17 501.17,-898 497.33,-898"/>
<text text-anchor="middle" x="417" y="-882.8" font-family="Arial" font-size="14.00" fill="#c6c5fe">server/routes/cityRoutes.js</text>
</g>
<!-- server/routes/cityRoutes.js&#45;&gt;server/models/cities.js -->
<g id="edge41" class="edge">
<title>server/routes/cityRoutes.js&#45;&gt;server/models/cities.js</title>
<path fill="none" stroke="#757575" d="M505.01,-886.17C534.65,-886.06 567.71,-885.93 597.13,-885.82"/>
<polygon fill="#757575" stroke="#757575" points="597.39,-889.32 607.38,-885.78 597.36,-882.32 597.39,-889.32"/>
</g>
<!-- server/routes/frontPageRoutes.js -->
<g id="node51" class="node">
<title>server/routes/frontPageRoutes.js</title>
<path fill="none" stroke="#c6c5fe" d="M516.33,-693C516.33,-693 317.67,-693 317.67,-693 313.83,-693 310,-689.17 310,-685.33 310,-685.33 310,-677.67 310,-677.67 310,-673.83 313.83,-670 317.67,-670 317.67,-670 516.33,-670 516.33,-670 520.17,-670 524,-673.83 524,-677.67 524,-677.67 524,-685.33 524,-685.33 524,-689.17 520.17,-693 516.33,-693"/>
<text text-anchor="middle" x="417" y="-677.8" font-family="Arial" font-size="14.00" fill="#c6c5fe">server/routes/frontPageRoutes.js</text>
</g>
<!-- server/routes/frontPageRoutes.js&#45;&gt;server/models/cameralocations.js -->
<g id="edge42" class="edge">
<title>server/routes/frontPageRoutes.js&#45;&gt;server/models/cameralocations.js</title>
<path fill="none" stroke="#757575" d="M524.04,-673.45C536.79,-672.48 549.87,-671.49 562.79,-670.51"/>
<polygon fill="#757575" stroke="#757575" points="563.4,-673.97 573.1,-669.73 562.87,-666.99 563.4,-673.97"/>
</g>
<!-- server/routes/interactions.js -->
<g id="node52" class="node">
<title>server/routes/interactions.js</title>
<path fill="none" stroke="#cfffac" d="M219.33,-857C219.33,-857 52.67,-857 52.67,-857 48.83,-857 45,-853.17 45,-849.33 45,-849.33 45,-841.67 45,-841.67 45,-837.83 48.83,-834 52.67,-834 52.67,-834 219.33,-834 219.33,-834 223.17,-834 227,-837.83 227,-841.67 227,-841.67 227,-849.33 227,-849.33 227,-853.17 223.17,-857 219.33,-857"/>
<text text-anchor="middle" x="136" y="-841.8" font-family="Arial" font-size="14.00" fill="#cfffac">server/routes/interactions.js</text>
</g>
<!-- server/routes/reactionsRoutes.js -->
<g id="node53" class="node">
<title>server/routes/reactionsRoutes.js</title>
<path fill="none" stroke="#c6c5fe" d="M514.33,-570C514.33,-570 319.67,-570 319.67,-570 315.83,-570 312,-566.17 312,-562.33 312,-562.33 312,-554.67 312,-554.67 312,-550.83 315.83,-547 319.67,-547 319.67,-547 514.33,-547 514.33,-547 518.17,-547 522,-550.83 522,-554.67 522,-554.67 522,-562.33 522,-562.33 522,-566.17 518.17,-570 514.33,-570"/>
<text text-anchor="middle" x="417" y="-554.8" font-family="Arial" font-size="14.00" fill="#c6c5fe">server/routes/reactionsRoutes.js</text>
</g>
<!-- server/routes/reactionsRoutes.js&#45;&gt;server/models/reactions.js -->
<g id="edge44" class="edge">
<title>server/routes/reactionsRoutes.js&#45;&gt;server/models/reactions.js</title>
<path fill="none" stroke="#757575" d="M492.1,-546.97C524.94,-541.86 563.72,-535.83 597.62,-530.55"/>
<polygon fill="#757575" stroke="#757575" points="598.16,-534.01 607.5,-529.01 597.08,-527.09 598.16,-534.01"/>
</g>
<!-- server/routes/reactionsRoutes.js&#45;&gt;server/middleware/authMiddleware.js -->
<g id="edge43" class="edge">
<title>server/routes/reactionsRoutes.js&#45;&gt;server/middleware/authMiddleware.js</title>
<path fill="none" stroke="#757575" d="M522.14,-558.5C531.75,-558.5 541.57,-558.5 551.37,-558.5"/>
<polygon fill="#757575" stroke="#757575" points="551.57,-562 561.57,-558.5 551.57,-555 551.57,-562"/>
</g>
<!-- server/routes/superHeroRoutes.js -->
<g id="node54" class="node">
<title>server/routes/superHeroRoutes.js</title>
<path fill="none" stroke="#c6c5fe" d="M518.33,-775C518.33,-775 315.67,-775 315.67,-775 311.83,-775 308,-771.17 308,-767.33 308,-767.33 308,-759.67 308,-759.67 308,-755.83 311.83,-752 315.67,-752 315.67,-752 518.33,-752 518.33,-752 522.17,-752 526,-755.83 526,-759.67 526,-759.67 526,-767.33 526,-767.33 526,-771.17 522.17,-775 518.33,-775"/>
<text text-anchor="middle" x="417" y="-759.8" font-family="Arial" font-size="14.00" fill="#c6c5fe">server/routes/superHeroRoutes.js</text>
</g>
<!-- server/routes/superHeroRoutes.js&#45;&gt;server/models/superheroes.js -->
<g id="edge45" class="edge">
<title>server/routes/superHeroRoutes.js&#45;&gt;server/models/superheroes.js</title>
<path fill="none" stroke="#757575" d="M526.32,-763.5C542.39,-763.5 558.93,-763.5 574.97,-763.5"/>
<polygon fill="#757575" stroke="#757575" points="575.42,-767 585.42,-763.5 575.42,-760 575.42,-767"/>
</g>
<!-- server/routes/userRoutes.js -->
<g id="node55" class="node">
<title>server/routes/userRoutes.js</title>
<path fill="none" stroke="#c6c5fe" d="M500.33,-447C500.33,-447 333.67,-447 333.67,-447 329.83,-447 326,-443.17 326,-439.33 326,-439.33 326,-431.67 326,-431.67 326,-427.83 329.83,-424 333.67,-424 333.67,-424 500.33,-424 500.33,-424 504.17,-424 508,-427.83 508,-431.67 508,-431.67 508,-439.33 508,-439.33 508,-443.17 504.17,-447 500.33,-447"/>
<text text-anchor="middle" x="417" y="-431.8" font-family="Arial" font-size="14.00" fill="#c6c5fe">server/routes/userRoutes.js</text>
</g>
<!-- server/routes/userRoutes.js&#45;&gt;server/models/users.js -->
<g id="edge46" class="edge">
<title>server/routes/userRoutes.js&#45;&gt;server/models/users.js</title>
<path fill="none" stroke="#757575" d="M508.31,-435.84C536.71,-435.95 567.96,-436.07 596.01,-436.18"/>
<polygon fill="#757575" stroke="#757575" points="596.18,-439.68 606.19,-436.21 596.2,-432.68 596.18,-439.68"/>
</g>
<!-- server/routes/videos.js -->
<g id="node56" class="node">
<title>server/routes/videos.js</title>
<path fill="none" stroke="#c6c5fe" d="M485.33,-611C485.33,-611 348.67,-611 348.67,-611 344.83,-611 341,-607.17 341,-603.33 341,-603.33 341,-595.67 341,-595.67 341,-591.83 344.83,-588 348.67,-588 348.67,-588 485.33,-588 485.33,-588 489.17,-588 493,-591.83 493,-595.67 493,-595.67 493,-603.33 493,-603.33 493,-607.17 489.17,-611 485.33,-611"/>
<text text-anchor="middle" x="417" y="-595.8" font-family="Arial" font-size="14.00" fill="#c6c5fe">server/routes/videos.js</text>
</g>
<!-- server/routes/videos.js&#45;&gt;server/middleware/authMiddleware.js -->
<g id="edge47" class="edge">
<title>server/routes/videos.js&#45;&gt;server/middleware/authMiddleware.js</title>
<path fill="none" stroke="#757575" d="M492.1,-587.97C524.94,-582.86 563.72,-576.83 597.62,-571.55"/>
<polygon fill="#757575" stroke="#757575" points="598.16,-575.01 607.5,-570.01 597.08,-568.09 598.16,-575.01"/>
</g>
<!-- server/routes/videos.js&#45;&gt;server/models/cameralocations.js -->
<g id="edge48" class="edge">
<title>server/routes/videos.js&#45;&gt;server/models/cameralocations.js</title>
<path fill="none" stroke="#757575" d="M480.97,-611.02C495.78,-613.93 511.48,-617.18 526,-620.5 561.21,-628.56 600.55,-638.94 630.85,-647.24"/>
<polygon fill="#757575" stroke="#757575" points="630.19,-650.69 640.76,-649.97 632.04,-643.94 630.19,-650.69"/>
</g>
<!-- server/routes/videos.js&#45;&gt;server/models/video.js -->
<g id="edge49" class="edge">
<title>server/routes/videos.js&#45;&gt;server/models/video.js</title>
<path fill="none" stroke="#757575" d="M493.16,-599.5C525.28,-599.5 562.94,-599.5 596.11,-599.5"/>
<polygon fill="#757575" stroke="#757575" points="596.24,-603 606.24,-599.5 596.24,-596 596.24,-603"/>
</g>
<!-- server/server.js -->
<g id="node57" class="node">
<title>server/server.js</title>
<path fill="none" stroke="#c6c5fe" d="M182.33,-652C182.33,-652 89.67,-652 89.67,-652 85.83,-652 82,-648.17 82,-644.33 82,-644.33 82,-636.67 82,-636.67 82,-632.83 85.83,-629 89.67,-629 89.67,-629 182.33,-629 182.33,-629 186.17,-629 190,-632.83 190,-636.67 190,-636.67 190,-644.33 190,-644.33 190,-648.17 186.17,-652 182.33,-652"/>
<text text-anchor="middle" x="136" y="-636.8" font-family="Arial" font-size="14.00" fill="#c6c5fe">server/server.js</text>
</g>
<!-- server/server.js&#45;&gt;server/routes/cameraLocations.js -->
<g id="edge50" class="edge">
<title>server/server.js&#45;&gt;server/routes/cameraLocations.js</title>
<path fill="none" stroke="#757575" d="M190.13,-640.5C220.9,-640.5 260.91,-640.5 298.69,-640.5"/>
<polygon fill="#757575" stroke="#757575" points="298.76,-644 308.76,-640.5 298.76,-637 298.76,-644"/>
</g>
<!-- server/server.js&#45;&gt;server/routes/cityRoutes.js -->
<g id="edge51" class="edge">
<title>server/server.js&#45;&gt;server/routes/cityRoutes.js</title>
<path fill="none" stroke="#757575" d="M190.24,-635.06C218.15,-635.25 250.83,-640.74 272,-661.5 338.05,-726.27 242.89,-800.79 308,-866.5 311.55,-870.08 315.51,-873.13 319.77,-875.73"/>
<polygon fill="#757575" stroke="#757575" points="318.39,-878.96 328.88,-880.45 321.61,-872.74 318.39,-878.96"/>
</g>
<!-- server/server.js&#45;&gt;server/routes/frontPageRoutes.js -->
<g id="edge52" class="edge">
<title>server/server.js&#45;&gt;server/routes/frontPageRoutes.js</title>
<path fill="none" stroke="#757575" d="M190.13,-648.31C228.94,-654.01 282.44,-661.87 327.64,-668.51"/>
<polygon fill="#757575" stroke="#757575" points="327.34,-672.01 337.74,-670 328.35,-665.08 327.34,-672.01"/>
</g>
<!-- server/server.js&#45;&gt;server/routes/reactionsRoutes.js -->
<g id="edge53" class="edge">
<title>server/server.js&#45;&gt;server/routes/reactionsRoutes.js</title>
<path fill="none" stroke="#757575" d="M190.01,-641.05C216.07,-639.3 247.13,-634.04 272,-620.5 293.3,-608.9 286.97,-591.57 308,-579.5 311.68,-577.39 315.54,-575.48 319.51,-573.77"/>
<polygon fill="#757575" stroke="#757575" points="320.91,-576.98 328.96,-570.09 318.37,-570.45 320.91,-576.98"/>
</g>
<!-- server/server.js&#45;&gt;server/routes/superHeroRoutes.js -->
<g id="edge54" class="edge">
<title>server/server.js&#45;&gt;server/routes/superHeroRoutes.js</title>
<path fill="none" stroke="#757575" d="M190.06,-637.22C217.07,-638.21 248.97,-643.78 272,-661.5 303.55,-685.77 276.81,-718.78 308,-743.5 309.41,-744.62 310.87,-745.68 312.36,-746.69"/>
<polygon fill="#757575" stroke="#757575" points="310.9,-749.89 321.29,-751.93 314.43,-743.85 310.9,-749.89"/>
</g>
<!-- server/server.js&#45;&gt;server/routes/userRoutes.js -->
<g id="edge55" class="edge">
<title>server/server.js&#45;&gt;server/routes/userRoutes.js</title>
<path fill="none" stroke="#757575" d="M190.2,-646.02C217.92,-645.91 250.43,-640.63 272,-620.5 326.56,-569.58 254.6,-508.63 308,-456.5 310.8,-453.77 313.83,-451.34 317.06,-449.19"/>
<polygon fill="#757575" stroke="#757575" points="319.04,-452.09 325.99,-444.09 315.57,-446.01 319.04,-452.09"/>
</g>
<!-- server/server.js&#45;&gt;server/routes/videos.js -->
<g id="edge56" class="edge">
<title>server/server.js&#45;&gt;server/routes/videos.js</title>
<path fill="none" stroke="#757575" d="M190.13,-632.69C229.9,-626.85 285.11,-618.73 330.99,-611.99"/>
<polygon fill="#757575" stroke="#757575" points="331.55,-615.45 340.93,-610.53 330.53,-608.52 331.55,-615.45"/>
</g>
</g>
</svg>
