<?xml version="1.0" encoding="UTF-8" standalone="no"?>
<!DOCTYPE svg PUBLIC "-//W3C//DTD SVG 1.1//EN"
 "http://www.w3.org/Graphics/SVG/1.1/DTD/svg11.dtd">
<!-- Generated by graphviz version 2.43.0 (0)
 -->
<!-- Title: G Pages: 1 -->
<svg width="968pt" height="640pt"
 viewBox="0.00 0.00 968.20 639.85" xmlns="http://www.w3.org/2000/svg" xmlns:xlink="http://www.w3.org/1999/xlink">
<g id="graph0" class="graph" transform="scale(1 1) rotate(0) translate(21.6 618.25)">
<title>G</title>
<polygon fill="#111111" stroke="transparent" points="-21.6,21.6 -21.6,-618.25 946.6,-618.25 946.6,21.6 -21.6,21.6"/>
<!-- TonyO/pullTrafficCamerasAPI.js -->
<g id="node1" class="node">
<title>TonyO/pullTrafficCamerasAPI.js</title>
<path fill="none" stroke="#cfffac" d="M232.83,-23C232.83,-23 39.17,-23 39.17,-23 35.33,-23 31.5,-19.17 31.5,-15.33 31.5,-15.33 31.5,-7.67 31.5,-7.67 31.5,-3.83 35.33,0 39.17,0 39.17,0 232.83,0 232.83,0 236.67,0 240.5,-3.83 240.5,-7.67 240.5,-7.67 240.5,-15.33 240.5,-15.33 240.5,-19.17 236.67,-23 232.83,-23"/>
<text text-anchor="middle" x="136" y="-7.8" font-family="Arial" font-size="14.00" fill="#cfffac">TonyO/pullTrafficCamerasAPI.js</text>
</g>
<!-- client/dist/assets/index&#45;DDzKLhhI.js -->
<g id="node2" class="node">
<title>client/dist/assets/index&#45;DDzKLhhI.js</title>
<path fill="none" stroke="#cfffac" d="M243.83,-64C243.83,-64 28.17,-64 28.17,-64 24.33,-64 20.5,-60.17 20.5,-56.33 20.5,-56.33 20.5,-48.67 20.5,-48.67 20.5,-44.83 24.33,-41 28.17,-41 28.17,-41 243.83,-41 243.83,-41 247.67,-41 251.5,-44.83 251.5,-48.67 251.5,-48.67 251.5,-56.33 251.5,-56.33 251.5,-60.17 247.67,-64 243.83,-64"/>
<text text-anchor="middle" x="136" y="-48.8" font-family="Arial" font-size="14.00" fill="#cfffac">client/dist/assets/index&#45;DDzKLhhI.js</text>
</g>
<!-- client/eslint.config.js -->
<g id="node3" class="node">
<title>client/eslint.config.js</title>
<path fill="none" stroke="#cfffac" d="M196.83,-105C196.83,-105 75.17,-105 75.17,-105 71.33,-105 67.5,-101.17 67.5,-97.33 67.5,-97.33 67.5,-89.67 67.5,-89.67 67.5,-85.83 71.33,-82 75.17,-82 75.17,-82 196.83,-82 196.83,-82 200.67,-82 204.5,-85.83 204.5,-89.67 204.5,-89.67 204.5,-97.33 204.5,-97.33 204.5,-101.17 200.67,-105 196.83,-105"/>
<text text-anchor="middle" x="136" y="-89.8" font-family="Arial" font-size="14.00" fill="#cfffac">client/eslint.config.js</text>
</g>
<!-- client/src/createSuffle.js -->
<g id="node4" class="node">
<title>client/src/createSuffle.js</title>
<path fill="none" stroke="#cfffac" d="M207.83,-146C207.83,-146 64.17,-146 64.17,-146 60.33,-146 56.5,-142.17 56.5,-138.33 56.5,-138.33 56.5,-130.67 56.5,-130.67 56.5,-126.83 60.33,-123 64.17,-123 64.17,-123 207.83,-123 207.83,-123 211.67,-123 215.5,-126.83 215.5,-130.67 215.5,-130.67 215.5,-138.33 215.5,-138.33 215.5,-142.17 211.67,-146 207.83,-146"/>
<text text-anchor="middle" x="136" y="-130.8" font-family="Arial" font-size="14.00" fill="#cfffac">client/src/createSuffle.js</text>
</g>
<!-- client/vite.config.js -->
<g id="node5" class="node">
<title>client/vite.config.js</title>
<path fill="none" stroke="#cfffac" d="M191.33,-187C191.33,-187 80.67,-187 80.67,-187 76.83,-187 73,-183.17 73,-179.33 73,-179.33 73,-171.67 73,-171.67 73,-167.83 76.83,-164 80.67,-164 80.67,-164 191.33,-164 191.33,-164 195.17,-164 199,-167.83 199,-171.67 199,-171.67 199,-179.33 199,-179.33 199,-183.17 195.17,-187 191.33,-187"/>
<text text-anchor="middle" x="136" y="-171.8" font-family="Arial" font-size="14.00" fill="#cfffac">client/vite.config.js</text>
</g>
<!-- findComponentDuplicates.js -->
<g id="node6" class="node">
<title>findComponentDuplicates.js</title>
<path fill="none" stroke="#cfffac" d="M220.83,-228C220.83,-228 51.17,-228 51.17,-228 47.33,-228 43.5,-224.17 43.5,-220.33 43.5,-220.33 43.5,-212.67 43.5,-212.67 43.5,-208.83 47.33,-205 51.17,-205 51.17,-205 220.83,-205 220.83,-205 224.67,-205 228.5,-208.83 228.5,-212.67 228.5,-212.67 228.5,-220.33 228.5,-220.33 228.5,-224.17 224.67,-228 220.83,-228"/>
<text text-anchor="middle" x="136" y="-212.8" font-family="Arial" font-size="14.00" fill="#cfffac">findComponentDuplicates.js</text>
</g>
<!-- server/cli/createCity.js -->
<g id="node7" class="node">
<title>server/cli/createCity.js</title>
<path fill="none" stroke="#c6c5fe" d="M483.33,-126C483.33,-126 350.67,-126 350.67,-126 346.83,-126 343,-122.17 343,-118.33 343,-118.33 343,-110.67 343,-110.67 343,-106.83 346.83,-103 350.67,-103 350.67,-103 483.33,-103 483.33,-103 487.17,-103 491,-106.83 491,-110.67 491,-110.67 491,-118.33 491,-118.33 491,-122.17 487.17,-126 483.33,-126"/>
<text text-anchor="middle" x="417" y="-110.8" font-family="Arial" font-size="14.00" fill="#c6c5fe">server/cli/createCity.js</text>
</g>
<!-- server/db.js -->
<g id="node8" class="node">
<title>server/db.js</title>
<path fill="none" stroke="#cfffac" d="M917.33,-331C917.33,-331 846.67,-331 846.67,-331 842.83,-331 839,-327.17 839,-323.33 839,-323.33 839,-315.67 839,-315.67 839,-311.83 842.83,-308 846.67,-308 846.67,-308 917.33,-308 917.33,-308 921.17,-308 925,-311.83 925,-315.67 925,-315.67 925,-323.33 925,-323.33 925,-327.17 921.17,-331 917.33,-331"/>
<text text-anchor="middle" x="882" y="-315.8" font-family="Arial" font-size="14.00" fill="#cfffac">server/db.js</text>
</g>
<!-- server/cli/createCity.js&#45;&gt;server/db.js -->
<g id="edge1" class="edge">
<title>server/cli/createCity.js&#45;&gt;server/db.js</title>
<path fill="none" stroke="#757575" d="M491.34,-122.59C595.89,-134.64 778,-157.81 803,-175.5 845.33,-205.45 866.94,-265.81 875.86,-298.05"/>
<polygon fill="#757575" stroke="#757575" points="872.5,-299.03 878.41,-307.83 879.27,-297.27 872.5,-299.03"/>
</g>
<!-- server/models/cities.js -->
<g id="node9" class="node">
<title>server/models/cities.js</title>
<path fill="none" stroke="#c6c5fe" d="M749.83,-116C749.83,-116 615.17,-116 615.17,-116 611.33,-116 607.5,-112.17 607.5,-108.33 607.5,-108.33 607.5,-100.67 607.5,-100.67 607.5,-96.83 611.33,-93 615.17,-93 615.17,-93 749.83,-93 749.83,-93 753.67,-93 757.5,-96.83 757.5,-100.67 757.5,-100.67 757.5,-108.33 757.5,-108.33 757.5,-112.17 753.67,-116 749.83,-116"/>
<text text-anchor="middle" x="682.5" y="-100.8" font-family="Arial" font-size="14.00" fill="#c6c5fe">server/models/cities.js</text>
</g>
<!-- server/cli/createCity.js&#45;&gt;server/models/cities.js -->
<g id="edge2" class="edge">
<title>server/cli/createCity.js&#45;&gt;server/models/cities.js</title>
<path fill="none" stroke="#757575" d="M491.05,-111.73C523.9,-110.48 562.87,-109 596.98,-107.71"/>
<polygon fill="#757575" stroke="#757575" points="597.53,-111.19 607.39,-107.31 597.27,-104.19 597.53,-111.19"/>
</g>
<!-- server/models/cities.js&#45;&gt;server/db.js -->
<g id="edge13" class="edge">
<title>server/models/cities.js&#45;&gt;server/db.js</title>
<path fill="none" stroke="#757575" d="M755.35,-116C772.48,-121.48 789.64,-129.56 803,-141.5 850.41,-183.84 870.28,-260.27 877.47,-297.68"/>
<polygon fill="#757575" stroke="#757575" points="874.03,-298.32 879.25,-307.55 880.92,-297.08 874.03,-298.32"/>
</g>
<!-- server/cli/createHero.js -->
<g id="node10" class="node">
<title>server/cli/createHero.js</title>
<path fill="none" stroke="#c6c5fe" d="M486.83,-495C486.83,-495 347.17,-495 347.17,-495 343.33,-495 339.5,-491.17 339.5,-487.33 339.5,-487.33 339.5,-479.67 339.5,-479.67 339.5,-475.83 343.33,-472 347.17,-472 347.17,-472 486.83,-472 486.83,-472 490.67,-472 494.5,-475.83 494.5,-479.67 494.5,-479.67 494.5,-487.33 494.5,-487.33 494.5,-491.17 490.67,-495 486.83,-495"/>
<text text-anchor="middle" x="417" y="-479.8" font-family="Arial" font-size="14.00" fill="#c6c5fe">server/cli/createHero.js</text>
</g>
<!-- server/cli/createHero.js&#45;&gt;server/db.js -->
<g id="edge3" class="edge">
<title>server/cli/createHero.js&#45;&gt;server/db.js</title>
<path fill="none" stroke="#757575" d="M494.78,-488.17C592.21,-492.64 753.55,-494.72 803,-463.5 847.06,-435.68 868.01,-373.89 876.36,-341.02"/>
<polygon fill="#757575" stroke="#757575" points="879.82,-341.62 878.72,-331.08 873.01,-340 879.82,-341.62"/>
</g>
<!-- server/models/superheroes.js -->
<g id="node11" class="node">
<title>server/models/superheroes.js</title>
<path fill="none" stroke="#c6c5fe" d="M771.83,-535C771.83,-535 593.17,-535 593.17,-535 589.33,-535 585.5,-531.17 585.5,-527.33 585.5,-527.33 585.5,-519.67 585.5,-519.67 585.5,-515.83 589.33,-512 593.17,-512 593.17,-512 771.83,-512 771.83,-512 775.67,-512 779.5,-515.83 779.5,-519.67 779.5,-519.67 779.5,-527.33 779.5,-527.33 779.5,-531.17 775.67,-535 771.83,-535"/>
<text text-anchor="middle" x="682.5" y="-519.8" font-family="Arial" font-size="14.00" fill="#c6c5fe">server/models/superheroes.js</text>
</g>
<!-- server/cli/createHero.js&#45;&gt;server/models/superheroes.js -->
<g id="edge4" class="edge">
<title>server/cli/createHero.js&#45;&gt;server/models/superheroes.js</title>
<path fill="none" stroke="#757575" d="M493.86,-495.02C525.69,-499.85 562.86,-505.49 595.68,-510.47"/>
<polygon fill="#757575" stroke="#757575" points="595.31,-513.96 605.72,-512 596.36,-507.03 595.31,-513.96"/>
</g>
<!-- server/models/superheroes.js&#45;&gt;server/db.js -->
<g id="edge15" class="edge">
<title>server/models/superheroes.js&#45;&gt;server/db.js</title>
<path fill="none" stroke="#757575" d="M776.06,-511.97C785.8,-508.1 795.04,-503.06 803,-496.5 852.07,-456.08 871.22,-378.65 877.87,-341.05"/>
<polygon fill="#757575" stroke="#757575" points="881.33,-341.59 879.49,-331.15 874.42,-340.45 881.33,-341.59"/>
</g>
<!-- server/cli/generateVideoIndex.js -->
<g id="node12" class="node">
<title>server/cli/generateVideoIndex.js</title>
<path fill="none" stroke="#cfffac" d="M232.83,-351C232.83,-351 39.17,-351 39.17,-351 35.33,-351 31.5,-347.17 31.5,-343.33 31.5,-343.33 31.5,-335.67 31.5,-335.67 31.5,-331.83 35.33,-328 39.17,-328 39.17,-328 232.83,-328 232.83,-328 236.67,-328 240.5,-331.83 240.5,-335.67 240.5,-335.67 240.5,-343.33 240.5,-343.33 240.5,-347.17 236.67,-351 232.83,-351"/>
<text text-anchor="middle" x="136" y="-335.8" font-family="Arial" font-size="14.00" fill="#cfffac">server/cli/generateVideoIndex.js</text>
</g>
<!-- server/cli/listCities.js -->
<g id="node13" class="node">
<title>server/cli/listCities.js</title>
<path fill="none" stroke="#c6c5fe" d="M478.33,-44C478.33,-44 355.67,-44 355.67,-44 351.83,-44 348,-40.17 348,-36.33 348,-36.33 348,-28.67 348,-28.67 348,-24.83 351.83,-21 355.67,-21 355.67,-21 478.33,-21 478.33,-21 482.17,-21 486,-24.83 486,-28.67 486,-28.67 486,-36.33 486,-36.33 486,-40.17 482.17,-44 478.33,-44"/>
<text text-anchor="middle" x="417" y="-28.8" font-family="Arial" font-size="14.00" fill="#c6c5fe">server/cli/listCities.js</text>
</g>
<!-- server/cli/listCities.js&#45;&gt;server/db.js -->
<g id="edge5" class="edge">
<title>server/cli/listCities.js&#45;&gt;server/db.js</title>
<path fill="none" stroke="#757575" d="M486.3,-21.48C570.59,-11.94 713.68,-9.53 803,-83.5 869.15,-138.28 879.59,-250.54 880.96,-297.79"/>
<polygon fill="#757575" stroke="#757575" points="877.46,-297.9 881.14,-307.83 884.46,-297.77 877.46,-297.9"/>
</g>
<!-- server/cli/listCities.js&#45;&gt;server/models/cities.js -->
<g id="edge6" class="edge">
<title>server/cli/listCities.js&#45;&gt;server/models/cities.js</title>
<path fill="none" stroke="#757575" d="M486.01,-43.6C499.34,-46.19 513.17,-49.18 526,-52.5 565.91,-62.82 610.44,-78.1 641.58,-89.43"/>
<polygon fill="#757575" stroke="#757575" points="640.6,-92.8 651.19,-92.96 643.01,-86.23 640.6,-92.8"/>
</g>
<!-- server/cli/listHeroes.js -->
<g id="node14" class="node">
<title>server/cli/listHeroes.js</title>
<path fill="none" stroke="#c6c5fe" d="M483.33,-577C483.33,-577 350.67,-577 350.67,-577 346.83,-577 343,-573.17 343,-569.33 343,-569.33 343,-561.67 343,-561.67 343,-557.83 346.83,-554 350.67,-554 350.67,-554 483.33,-554 483.33,-554 487.17,-554 491,-557.83 491,-561.67 491,-561.67 491,-569.33 491,-569.33 491,-573.17 487.17,-577 483.33,-577"/>
<text text-anchor="middle" x="417" y="-561.8" font-family="Arial" font-size="14.00" fill="#c6c5fe">server/cli/listHeroes.js</text>
</g>
<!-- server/cli/listHeroes.js&#45;&gt;server/db.js -->
<g id="edge7" class="edge">
<title>server/cli/listHeroes.js&#45;&gt;server/db.js</title>
<path fill="none" stroke="#757575" d="M460.11,-577.01C536.84,-595.26 700.89,-621.45 803,-544.5 868.43,-495.19 879.3,-387.41 880.87,-341.22"/>
<polygon fill="#757575" stroke="#757575" points="884.38,-341.19 881.1,-331.11 877.38,-341.03 884.38,-341.19"/>
</g>
<!-- server/cli/listHeroes.js&#45;&gt;server/models/superheroes.js -->
<g id="edge8" class="edge">
<title>server/cli/listHeroes.js&#45;&gt;server/models/superheroes.js</title>
<path fill="none" stroke="#757575" d="M490.35,-553.97C524.05,-548.6 564.3,-542.18 599.16,-536.62"/>
<polygon fill="#757575" stroke="#757575" points="599.99,-540.04 609.31,-535.01 598.88,-533.12 599.99,-540.04"/>
</g>
<!-- server/cli/testCreateReaction.js -->
<g id="node15" class="node">
<title>server/cli/testCreateReaction.js</title>
<path fill="none" stroke="#c6c5fe" d="M510.83,-413C510.83,-413 323.17,-413 323.17,-413 319.33,-413 315.5,-409.17 315.5,-405.33 315.5,-405.33 315.5,-397.67 315.5,-397.67 315.5,-393.83 319.33,-390 323.17,-390 323.17,-390 510.83,-390 510.83,-390 514.67,-390 518.5,-393.83 518.5,-397.67 518.5,-397.67 518.5,-405.33 518.5,-405.33 518.5,-409.17 514.67,-413 510.83,-413"/>
<text text-anchor="middle" x="417" y="-397.8" font-family="Arial" font-size="14.00" fill="#c6c5fe">server/cli/testCreateReaction.js</text>
</g>
<!-- server/models/reactions.js -->
<g id="node16" class="node">
<title>server/models/reactions.js</title>
<path fill="none" stroke="#c6c5fe" d="M761.83,-413C761.83,-413 603.17,-413 603.17,-413 599.33,-413 595.5,-409.17 595.5,-405.33 595.5,-405.33 595.5,-397.67 595.5,-397.67 595.5,-393.83 599.33,-390 603.17,-390 603.17,-390 761.83,-390 761.83,-390 765.67,-390 769.5,-393.83 769.5,-397.67 769.5,-397.67 769.5,-405.33 769.5,-405.33 769.5,-409.17 765.67,-413 761.83,-413"/>
<text text-anchor="middle" x="682.5" y="-397.8" font-family="Arial" font-size="14.00" fill="#c6c5fe">server/models/reactions.js</text>
</g>
<!-- server/cli/testCreateReaction.js&#45;&gt;server/models/reactions.js -->
<g id="edge9" class="edge">
<title>server/cli/testCreateReaction.js&#45;&gt;server/models/reactions.js</title>
<path fill="none" stroke="#757575" d="M518.75,-401.5C540.57,-401.5 563.6,-401.5 585.24,-401.5"/>
<polygon fill="#757575" stroke="#757575" points="585.41,-405 595.41,-401.5 585.41,-398 585.41,-405"/>
</g>
<!-- server/models/reactions.js&#45;&gt;server/db.js -->
<g id="edge14" class="edge">
<title>server/models/reactions.js&#45;&gt;server/db.js</title>
<path fill="none" stroke="#757575" d="M755.75,-389.96C771.69,-386.11 788.23,-381.06 803,-374.5 823.89,-365.22 844.91,-349.97 859.86,-337.88"/>
<polygon fill="#757575" stroke="#757575" points="862.45,-340.28 867.91,-331.2 857.98,-334.89 862.45,-340.28"/>
</g>
<!-- server/cli/videoComment.js -->
<g id="node17" class="node">
<title>server/cli/videoComment.js</title>
<path fill="none" stroke="#c6c5fe" d="M499.33,-372C499.33,-372 334.67,-372 334.67,-372 330.83,-372 327,-368.17 327,-364.33 327,-364.33 327,-356.67 327,-356.67 327,-352.83 330.83,-349 334.67,-349 334.67,-349 499.33,-349 499.33,-349 503.17,-349 507,-352.83 507,-356.67 507,-356.67 507,-364.33 507,-364.33 507,-368.17 503.17,-372 499.33,-372"/>
<text text-anchor="middle" x="417" y="-356.8" font-family="Arial" font-size="14.00" fill="#c6c5fe">server/cli/videoComment.js</text>
</g>
<!-- server/cli/videoComment.js&#45;&gt;server/db.js -->
<g id="edge10" class="edge">
<title>server/cli/videoComment.js&#45;&gt;server/db.js</title>
<path fill="none" stroke="#757575" d="M507.25,-361.18C585.64,-360.51 702.52,-356.45 803,-340.5 813.39,-338.85 824.39,-336.36 834.75,-333.67"/>
<polygon fill="#757575" stroke="#757575" points="835.71,-337.04 844.44,-331.05 833.88,-330.28 835.71,-337.04"/>
</g>
<!-- server/cli/videoComment.js&#45;&gt;server/models/reactions.js -->
<g id="edge11" class="edge">
<title>server/cli/videoComment.js&#45;&gt;server/models/reactions.js</title>
<path fill="none" stroke="#757575" d="M492.1,-372.03C524.94,-377.14 563.72,-383.17 597.62,-388.45"/>
<polygon fill="#757575" stroke="#757575" points="597.08,-391.91 607.5,-389.99 598.16,-384.99 597.08,-391.91"/>
</g>
<!-- server/controllers/interactionsControllers.js -->
<g id="node18" class="node">
<title>server/controllers/interactionsControllers.js</title>
<path fill="none" stroke="#cfffac" d="M264.33,-392C264.33,-392 7.67,-392 7.67,-392 3.83,-392 0,-388.17 0,-384.33 0,-384.33 0,-376.67 0,-376.67 0,-372.83 3.83,-369 7.67,-369 7.67,-369 264.33,-369 264.33,-369 268.17,-369 272,-372.83 272,-376.67 272,-376.67 272,-384.33 272,-384.33 272,-388.17 268.17,-392 264.33,-392"/>
<text text-anchor="middle" x="136" y="-376.8" font-family="Arial" font-size="14.00" fill="#cfffac">server/controllers/interactionsControllers.js</text>
</g>
<!-- server/middleware/authMiddleware.js -->
<g id="node19" class="node">
<title>server/middleware/authMiddleware.js</title>
<path fill="none" stroke="#cfffac" d="M795.33,-454C795.33,-454 569.67,-454 569.67,-454 565.83,-454 562,-450.17 562,-446.33 562,-446.33 562,-438.67 562,-438.67 562,-434.83 565.83,-431 569.67,-431 569.67,-431 795.33,-431 795.33,-431 799.17,-431 803,-434.83 803,-438.67 803,-438.67 803,-446.33 803,-446.33 803,-450.17 799.17,-454 795.33,-454"/>
<text text-anchor="middle" x="682.5" y="-438.8" font-family="Arial" font-size="14.00" fill="#cfffac">server/middleware/authMiddleware.js</text>
</g>
<!-- server/models/cameralocations.js -->
<g id="node20" class="node">
<title>server/models/cameralocations.js</title>
<path fill="none" stroke="#c6c5fe" d="M783.83,-290C783.83,-290 581.17,-290 581.17,-290 577.33,-290 573.5,-286.17 573.5,-282.33 573.5,-282.33 573.5,-274.67 573.5,-274.67 573.5,-270.83 577.33,-267 581.17,-267 581.17,-267 783.83,-267 783.83,-267 787.67,-267 791.5,-270.83 791.5,-274.67 791.5,-274.67 791.5,-282.33 791.5,-282.33 791.5,-286.17 787.67,-290 783.83,-290"/>
<text text-anchor="middle" x="682.5" y="-274.8" font-family="Arial" font-size="14.00" fill="#c6c5fe">server/models/cameralocations.js</text>
</g>
<!-- server/models/cameralocations.js&#45;&gt;server/db.js -->
<g id="edge12" class="edge">
<title>server/models/cameralocations.js&#45;&gt;server/db.js</title>
<path fill="none" stroke="#757575" d="M754.45,-290.04C770.46,-292.9 787.35,-296.12 803,-299.5 811.35,-301.3 820.15,-303.38 828.72,-305.51"/>
<polygon fill="#757575" stroke="#757575" points="828.08,-308.95 838.63,-308 829.79,-302.17 828.08,-308.95"/>
</g>
<!-- server/models/users.js -->
<g id="node21" class="node">
<title>server/models/users.js</title>
<path fill="none" stroke="#c6c5fe" d="M750.83,-208C750.83,-208 614.17,-208 614.17,-208 610.33,-208 606.5,-204.17 606.5,-200.33 606.5,-200.33 606.5,-192.67 606.5,-192.67 606.5,-188.83 610.33,-185 614.17,-185 614.17,-185 750.83,-185 750.83,-185 754.67,-185 758.5,-188.83 758.5,-192.67 758.5,-192.67 758.5,-200.33 758.5,-200.33 758.5,-204.17 754.67,-208 750.83,-208"/>
<text text-anchor="middle" x="682.5" y="-192.8" font-family="Arial" font-size="14.00" fill="#c6c5fe">server/models/users.js</text>
</g>
<!-- server/models/users.js&#45;&gt;server/db.js -->
<g id="edge16" class="edge">
<title>server/models/users.js&#45;&gt;server/db.js</title>
<path fill="none" stroke="#757575" d="M709.97,-208.15C734.75,-219.49 772.44,-237.84 803,-257.5 823.5,-270.69 845.06,-288.14 860.31,-301.17"/>
<polygon fill="#757575" stroke="#757575" points="858.23,-304 868.08,-307.9 862.81,-298.71 858.23,-304"/>
</g>
<!-- server/models/video.js -->
<g id="node22" class="node">
<title>server/models/video.js</title>
<path fill="none" stroke="#cfffac" d="M750.83,-331C750.83,-331 614.17,-331 614.17,-331 610.33,-331 606.5,-327.17 606.5,-323.33 606.5,-323.33 606.5,-315.67 606.5,-315.67 606.5,-311.83 610.33,-308 614.17,-308 614.17,-308 750.83,-308 750.83,-308 754.67,-308 758.5,-311.83 758.5,-315.67 758.5,-315.67 758.5,-323.33 758.5,-323.33 758.5,-327.17 754.67,-331 750.83,-331"/>
<text text-anchor="middle" x="682.5" y="-315.8" font-family="Arial" font-size="14.00" fill="#cfffac">server/models/video.js</text>
</g>
<!-- server/routes/authOld.js -->
<g id="node23" class="node">
<title>server/routes/authOld.js</title>
<path fill="none" stroke="#cfffac" d="M208.83,-433C208.83,-433 63.17,-433 63.17,-433 59.33,-433 55.5,-429.17 55.5,-425.33 55.5,-425.33 55.5,-417.67 55.5,-417.67 55.5,-413.83 59.33,-410 63.17,-410 63.17,-410 208.83,-410 208.83,-410 212.67,-410 216.5,-413.83 216.5,-417.67 216.5,-417.67 216.5,-425.33 216.5,-425.33 216.5,-429.17 212.67,-433 208.83,-433"/>
<text text-anchor="middle" x="136" y="-417.8" font-family="Arial" font-size="14.00" fill="#cfffac">server/routes/authOld.js</text>
</g>
<!-- server/routes/cameraLocations.js -->
<g id="node24" class="node">
<title>server/routes/cameraLocations.js</title>
<path fill="none" stroke="#c6c5fe" d="M517.33,-249C517.33,-249 316.67,-249 316.67,-249 312.83,-249 309,-245.17 309,-241.33 309,-241.33 309,-233.67 309,-233.67 309,-229.83 312.83,-226 316.67,-226 316.67,-226 517.33,-226 517.33,-226 521.17,-226 525,-229.83 525,-233.67 525,-233.67 525,-241.33 525,-241.33 525,-245.17 521.17,-249 517.33,-249"/>
<text text-anchor="middle" x="417" y="-233.8" font-family="Arial" font-size="14.00" fill="#c6c5fe">server/routes/cameraLocations.js</text>
</g>
<!-- server/routes/cameraLocations.js&#45;&gt;server/models/cameralocations.js -->
<g id="edge17" class="edge">
<title>server/routes/cameraLocations.js&#45;&gt;server/models/cameralocations.js</title>
<path fill="none" stroke="#757575" d="M492.1,-249.03C524.94,-254.14 563.72,-260.17 597.62,-265.45"/>
<polygon fill="#757575" stroke="#757575" points="597.08,-268.91 607.5,-266.99 598.16,-261.99 597.08,-268.91"/>
</g>
<!-- server/routes/cityRoutes.js -->
<g id="node25" class="node">
<title>server/routes/cityRoutes.js</title>
<path fill="none" stroke="#c6c5fe" d="M497.33,-85C497.33,-85 336.67,-85 336.67,-85 332.83,-85 329,-81.17 329,-77.33 329,-77.33 329,-69.67 329,-69.67 329,-65.83 332.83,-62 336.67,-62 336.67,-62 497.33,-62 497.33,-62 501.17,-62 505,-65.83 505,-69.67 505,-69.67 505,-77.33 505,-77.33 505,-81.17 501.17,-85 497.33,-85"/>
<text text-anchor="middle" x="417" y="-69.8" font-family="Arial" font-size="14.00" fill="#c6c5fe">server/routes/cityRoutes.js</text>
</g>
<!-- server/routes/cityRoutes.js&#45;&gt;server/models/cities.js -->
<g id="edge18" class="edge">
<title>server/routes/cityRoutes.js&#45;&gt;server/models/cities.js</title>
<path fill="none" stroke="#757575" d="M505.01,-83.74C534.65,-87.22 567.71,-91.11 597.13,-94.57"/>
<polygon fill="#757575" stroke="#757575" points="597.04,-98.09 607.38,-95.78 597.85,-91.14 597.04,-98.09"/>
</g>
<!-- server/routes/frontPageRoutes.js -->
<g id="node26" class="node">
<title>server/routes/frontPageRoutes.js</title>
<path fill="none" stroke="#c6c5fe" d="M516.33,-290C516.33,-290 317.67,-290 317.67,-290 313.83,-290 310,-286.17 310,-282.33 310,-282.33 310,-274.67 310,-274.67 310,-270.83 313.83,-267 317.67,-267 317.67,-267 516.33,-267 516.33,-267 520.17,-267 524,-270.83 524,-274.67 524,-274.67 524,-282.33 524,-282.33 524,-286.17 520.17,-290 516.33,-290"/>
<text text-anchor="middle" x="417" y="-274.8" font-family="Arial" font-size="14.00" fill="#c6c5fe">server/routes/frontPageRoutes.js</text>
</g>
<!-- server/routes/frontPageRoutes.js&#45;&gt;server/models/cameralocations.js -->
<g id="edge19" class="edge">
<title>server/routes/frontPageRoutes.js&#45;&gt;server/models/cameralocations.js</title>
<path fill="none" stroke="#757575" d="M524.04,-278.5C536.79,-278.5 549.87,-278.5 562.79,-278.5"/>
<polygon fill="#757575" stroke="#757575" points="563.1,-282 573.1,-278.5 563.1,-275 563.1,-282"/>
</g>
<!-- server/routes/interactions.js -->
<g id="node27" class="node">
<title>server/routes/interactions.js</title>
<path fill="none" stroke="#cfffac" d="M219.33,-474C219.33,-474 52.67,-474 52.67,-474 48.83,-474 45,-470.17 45,-466.33 45,-466.33 45,-458.67 45,-458.67 45,-454.83 48.83,-451 52.67,-451 52.67,-451 219.33,-451 219.33,-451 223.17,-451 227,-454.83 227,-458.67 227,-458.67 227,-466.33 227,-466.33 227,-470.17 223.17,-474 219.33,-474"/>
<text text-anchor="middle" x="136" y="-458.8" font-family="Arial" font-size="14.00" fill="#cfffac">server/routes/interactions.js</text>
</g>
<!-- server/routes/junk/authJunk.js -->
<g id="node28" class="node">
<title>server/routes/junk/authJunk.js</title>
<path fill="none" stroke="#cfffac" d="M226.33,-515C226.33,-515 45.67,-515 45.67,-515 41.83,-515 38,-511.17 38,-507.33 38,-507.33 38,-499.67 38,-499.67 38,-495.83 41.83,-492 45.67,-492 45.67,-492 226.33,-492 226.33,-492 230.17,-492 234,-495.83 234,-499.67 234,-499.67 234,-507.33 234,-507.33 234,-511.17 230.17,-515 226.33,-515"/>
<text text-anchor="middle" x="136" y="-499.8" font-family="Arial" font-size="14.00" fill="#cfffac">server/routes/junk/authJunk.js</text>
</g>
<!-- server/routes/reactionsRoutes.js -->
<g id="node29" class="node">
<title>server/routes/reactionsRoutes.js</title>
<path fill="none" stroke="#c6c5fe" d="M514.33,-454C514.33,-454 319.67,-454 319.67,-454 315.83,-454 312,-450.17 312,-446.33 312,-446.33 312,-438.67 312,-438.67 312,-434.83 315.83,-431 319.67,-431 319.67,-431 514.33,-431 514.33,-431 518.17,-431 522,-434.83 522,-438.67 522,-438.67 522,-446.33 522,-446.33 522,-450.17 518.17,-454 514.33,-454"/>
<text text-anchor="middle" x="417" y="-438.8" font-family="Arial" font-size="14.00" fill="#c6c5fe">server/routes/reactionsRoutes.js</text>
</g>
<!-- server/routes/reactionsRoutes.js&#45;&gt;server/models/reactions.js -->
<g id="edge21" class="edge">
<title>server/routes/reactionsRoutes.js&#45;&gt;server/models/reactions.js</title>
<path fill="none" stroke="#757575" d="M492.1,-430.97C524.94,-425.86 563.72,-419.83 597.62,-414.55"/>
<polygon fill="#757575" stroke="#757575" points="598.16,-418.01 607.5,-413.01 597.08,-411.09 598.16,-418.01"/>
</g>
<!-- server/routes/reactionsRoutes.js&#45;&gt;server/middleware/authMiddleware.js -->
<g id="edge20" class="edge">
<title>server/routes/reactionsRoutes.js&#45;&gt;server/middleware/authMiddleware.js</title>
<path fill="none" stroke="#757575" d="M522.14,-442.5C531.75,-442.5 541.57,-442.5 551.37,-442.5"/>
<polygon fill="#757575" stroke="#757575" points="551.57,-446 561.57,-442.5 551.57,-439 551.57,-446"/>
</g>
<!-- server/routes/superHeroRoutes.js -->
<g id="node30" class="node">
<title>server/routes/superHeroRoutes.js</title>
<path fill="none" stroke="#c6c5fe" d="M518.33,-536C518.33,-536 315.67,-536 315.67,-536 311.83,-536 308,-532.17 308,-528.33 308,-528.33 308,-520.67 308,-520.67 308,-516.83 311.83,-513 315.67,-513 315.67,-513 518.33,-513 518.33,-513 522.17,-513 526,-516.83 526,-520.67 526,-520.67 526,-528.33 526,-528.33 526,-532.17 522.17,-536 518.33,-536"/>
<text text-anchor="middle" x="417" y="-520.8" font-family="Arial" font-size="14.00" fill="#c6c5fe">server/routes/superHeroRoutes.js</text>
</g>
<!-- server/routes/superHeroRoutes.js&#45;&gt;server/models/superheroes.js -->
<g id="edge22" class="edge">
<title>server/routes/superHeroRoutes.js&#45;&gt;server/models/superheroes.js</title>
<path fill="none" stroke="#757575" d="M526.32,-524.09C542.39,-524.03 558.93,-523.97 574.97,-523.9"/>
<polygon fill="#757575" stroke="#757575" points="575.43,-527.4 585.42,-523.86 575.4,-520.4 575.43,-527.4"/>
</g>
<!-- server/routes/userRoutes copy.js -->
<g id="node31" class="node">
<title>server/routes/userRoutes copy.js</title>
<path fill="none" stroke="#c6c5fe" d="M515.83,-167C515.83,-167 318.17,-167 318.17,-167 314.33,-167 310.5,-163.17 310.5,-159.33 310.5,-159.33 310.5,-151.67 310.5,-151.67 310.5,-147.83 314.33,-144 318.17,-144 318.17,-144 515.83,-144 515.83,-144 519.67,-144 523.5,-147.83 523.5,-151.67 523.5,-151.67 523.5,-159.33 523.5,-159.33 523.5,-163.17 519.67,-167 515.83,-167"/>
<text text-anchor="middle" x="417" y="-151.8" font-family="Arial" font-size="14.00" fill="#c6c5fe">server/routes/userRoutes copy.js</text>
</g>
<!-- server/routes/userRoutes copy.js&#45;&gt;server/models/users.js -->
<g id="edge23" class="edge">
<title>server/routes/userRoutes copy.js&#45;&gt;server/models/users.js</title>
<path fill="none" stroke="#757575" d="M492.1,-167.03C524.94,-172.14 563.72,-178.17 597.62,-183.45"/>
<polygon fill="#757575" stroke="#757575" points="597.08,-186.91 607.5,-184.99 598.16,-179.99 597.08,-186.91"/>
</g>
<!-- server/routes/userRoutes.js -->
<g id="node32" class="node">
<title>server/routes/userRoutes.js</title>
<path fill="none" stroke="#c6c5fe" d="M500.33,-208C500.33,-208 333.67,-208 333.67,-208 329.83,-208 326,-204.17 326,-200.33 326,-200.33 326,-192.67 326,-192.67 326,-188.83 329.83,-185 333.67,-185 333.67,-185 500.33,-185 500.33,-185 504.17,-185 508,-188.83 508,-192.67 508,-192.67 508,-200.33 508,-200.33 508,-204.17 504.17,-208 500.33,-208"/>
<text text-anchor="middle" x="417" y="-192.8" font-family="Arial" font-size="14.00" fill="#c6c5fe">server/routes/userRoutes.js</text>
</g>
<!-- server/routes/userRoutes.js&#45;&gt;server/models/users.js -->
<g id="edge24" class="edge">
<title>server/routes/userRoutes.js&#45;&gt;server/models/users.js</title>
<path fill="none" stroke="#757575" d="M508.31,-196.5C536.71,-196.5 567.96,-196.5 596.01,-196.5"/>
<polygon fill="#757575" stroke="#757575" points="596.19,-200 606.19,-196.5 596.19,-193 596.19,-200"/>
</g>
<!-- server/routes/videos.js -->
<g id="node33" class="node">
<title>server/routes/videos.js</title>
<path fill="none" stroke="#c6c5fe" d="M485.33,-331C485.33,-331 348.67,-331 348.67,-331 344.83,-331 341,-327.17 341,-323.33 341,-323.33 341,-315.67 341,-315.67 341,-311.83 344.83,-308 348.67,-308 348.67,-308 485.33,-308 485.33,-308 489.17,-308 493,-311.83 493,-315.67 493,-315.67 493,-323.33 493,-323.33 493,-327.17 489.17,-331 485.33,-331"/>
<text text-anchor="middle" x="417" y="-315.8" font-family="Arial" font-size="14.00" fill="#c6c5fe">server/routes/videos.js</text>
</g>
<!-- server/routes/videos.js&#45;&gt;server/models/cameralocations.js -->
<g id="edge25" class="edge">
<title>server/routes/videos.js&#45;&gt;server/models/cameralocations.js</title>
<path fill="none" stroke="#757575" d="M492.1,-307.97C524.94,-302.86 563.72,-296.83 597.62,-291.55"/>
<polygon fill="#757575" stroke="#757575" points="598.16,-295.01 607.5,-290.01 597.08,-288.09 598.16,-295.01"/>
</g>
<!-- server/routes/videos.js&#45;&gt;server/models/video.js -->
<g id="edge26" class="edge">
<title>server/routes/videos.js&#45;&gt;server/models/video.js</title>
<path fill="none" stroke="#757575" d="M493.16,-319.5C525.28,-319.5 562.94,-319.5 596.11,-319.5"/>
<polygon fill="#757575" stroke="#757575" points="596.24,-323 606.24,-319.5 596.24,-316 596.24,-323"/>
</g>
<!-- server/server copy.js -->
<g id="node34" class="node">
<title>server/server copy.js</title>
<path fill="none" stroke="#c6c5fe" d="M198.33,-310C198.33,-310 73.67,-310 73.67,-310 69.83,-310 66,-306.17 66,-302.33 66,-302.33 66,-294.67 66,-294.67 66,-290.83 69.83,-287 73.67,-287 73.67,-287 198.33,-287 198.33,-287 202.17,-287 206,-290.83 206,-294.67 206,-294.67 206,-302.33 206,-302.33 206,-306.17 202.17,-310 198.33,-310"/>
<text text-anchor="middle" x="136" y="-294.8" font-family="Arial" font-size="14.00" fill="#c6c5fe">server/server copy.js</text>
</g>
<!-- server/server copy.js&#45;&gt;server/routes/cameraLocations.js -->
<g id="edge27" class="edge">
<title>server/server copy.js&#45;&gt;server/routes/cameraLocations.js</title>
<path fill="none" stroke="#757575" d="M206.21,-293.38C227.71,-290.43 251.21,-285.8 272,-278.5 289.48,-272.37 290.64,-263.95 308,-257.5 313.87,-255.32 320,-253.37 326.24,-251.63"/>
<polygon fill="#757575" stroke="#757575" points="327.32,-254.97 336.11,-249.06 325.55,-248.19 327.32,-254.97"/>
</g>
<!-- server/server copy.js&#45;&gt;server/routes/cityRoutes.js -->
<g id="edge28" class="edge">
<title>server/server copy.js&#45;&gt;server/routes/cityRoutes.js</title>
<path fill="none" stroke="#757575" d="M206.17,-303.6C229.79,-301.7 254.62,-295.12 272,-278.5 332.55,-220.62 248.5,-152.46 308,-93.5 311.58,-89.95 315.57,-86.93 319.85,-84.35"/>
<polygon fill="#757575" stroke="#757575" points="321.69,-87.34 329,-79.67 318.5,-81.11 321.69,-87.34"/>
</g>
<!-- server/server copy.js&#45;&gt;server/routes/frontPageRoutes.js -->
<g id="edge29" class="edge">
<title>server/server copy.js&#45;&gt;server/routes/frontPageRoutes.js</title>
<path fill="none" stroke="#757575" d="M206.32,-293.53C234.5,-291.51 267.85,-289.12 299.56,-286.85"/>
<polygon fill="#757575" stroke="#757575" points="300.06,-290.32 309.79,-286.11 299.56,-283.34 300.06,-290.32"/>
</g>
<!-- server/server copy.js&#45;&gt;server/routes/reactionsRoutes.js -->
<g id="edge30" class="edge">
<title>server/server copy.js&#45;&gt;server/routes/reactionsRoutes.js</title>
<path fill="none" stroke="#757575" d="M206.34,-295.52C229.43,-297.86 253.86,-304.4 272,-319.5 309.26,-350.53 271.19,-390.93 308,-422.5 309.18,-423.51 310.39,-424.47 311.63,-425.4"/>
<polygon fill="#757575" stroke="#757575" points="309.92,-428.46 320.23,-430.89 313.69,-422.56 309.92,-428.46"/>
</g>
<!-- server/server copy.js&#45;&gt;server/routes/superHeroRoutes.js -->
<g id="edge31" class="edge">
<title>server/server copy.js&#45;&gt;server/routes/superHeroRoutes.js</title>
<path fill="none" stroke="#757575" d="M206.21,-293.97C229.84,-296.04 254.66,-302.8 272,-319.5 332.34,-377.6 248.5,-445.54 308,-504.5 308.81,-505.31 309.65,-506.08 310.5,-506.84"/>
<polygon fill="#757575" stroke="#757575" points="308.57,-509.76 318.68,-512.93 312.75,-504.15 308.57,-509.76"/>
</g>
<!-- server/server copy.js&#45;&gt;server/routes/userRoutes.js -->
<g id="edge32" class="edge">
<title>server/server copy.js&#45;&gt;server/routes/userRoutes.js</title>
<path fill="none" stroke="#757575" d="M206.18,-299.9C228.74,-297.46 252.88,-291.47 272,-278.5 298.37,-260.62 281.95,-234.86 308,-216.5 310.77,-214.55 313.67,-212.77 316.67,-211.16"/>
<polygon fill="#757575" stroke="#757575" points="318.42,-214.21 325.97,-206.77 315.43,-207.87 318.42,-214.21"/>
</g>
<!-- server/server copy.js&#45;&gt;server/routes/videos.js -->
<g id="edge33" class="edge">
<title>server/server copy.js&#45;&gt;server/routes/videos.js</title>
<path fill="none" stroke="#757575" d="M206.32,-303.72C243.97,-306.55 290.82,-310.08 330.69,-313.08"/>
<polygon fill="#757575" stroke="#757575" points="330.43,-316.57 340.66,-313.83 330.96,-309.59 330.43,-316.57"/>
</g>
<!-- server/server.js -->
<g id="node35" class="node">
<title>server/server.js</title>
<path fill="none" stroke="#c6c5fe" d="M182.33,-269C182.33,-269 89.67,-269 89.67,-269 85.83,-269 82,-265.17 82,-261.33 82,-261.33 82,-253.67 82,-253.67 82,-249.83 85.83,-246 89.67,-246 89.67,-246 182.33,-246 182.33,-246 186.17,-246 190,-249.83 190,-253.67 190,-253.67 190,-261.33 190,-261.33 190,-265.17 186.17,-269 182.33,-269"/>
<text text-anchor="middle" x="136" y="-253.8" font-family="Arial" font-size="14.00" fill="#c6c5fe">server/server.js</text>
</g>
<!-- server/server.js&#45;&gt;server/routes/cameraLocations.js -->
<g id="edge34" class="edge">
<title>server/server.js&#45;&gt;server/routes/cameraLocations.js</title>
<path fill="none" stroke="#757575" d="M190.13,-253.69C220.9,-251.49 260.91,-248.62 298.69,-245.91"/>
<polygon fill="#757575" stroke="#757575" points="299.04,-249.39 308.76,-245.19 298.54,-242.41 299.04,-249.39"/>
</g>
<!-- server/server.js&#45;&gt;server/routes/cityRoutes.js -->
<g id="edge35" class="edge">
<title>server/server.js&#45;&gt;server/routes/cityRoutes.js</title>
<path fill="none" stroke="#757575" d="M190.33,-262.31C217.91,-261.86 250.27,-256.32 272,-236.5 320.43,-192.34 260.21,-138.35 308,-93.5 311.59,-90.13 315.56,-87.24 319.79,-84.76"/>
<polygon fill="#757575" stroke="#757575" points="321.43,-87.85 328.8,-80.23 318.29,-81.59 321.43,-87.85"/>
</g>
<!-- server/server.js&#45;&gt;server/routes/frontPageRoutes.js -->
<g id="edge36" class="edge">
<title>server/server.js&#45;&gt;server/routes/frontPageRoutes.js</title>
<path fill="none" stroke="#757575" d="M190.13,-261.5C221.19,-263.84 261.67,-266.88 299.76,-269.75"/>
<polygon fill="#757575" stroke="#757575" points="299.68,-273.25 309.91,-270.51 300.2,-266.27 299.68,-273.25"/>
</g>
<!-- server/server.js&#45;&gt;server/routes/reactionsRoutes.js -->
<g id="edge37" class="edge">
<title>server/server.js&#45;&gt;server/routes/reactionsRoutes.js</title>
<path fill="none" stroke="#757575" d="M190.01,-252.67C217.67,-253.08 250.19,-258.59 272,-278.5 320.71,-322.99 259.93,-377.32 308,-422.5 308.83,-423.28 309.69,-424.04 310.56,-424.77"/>
<polygon fill="#757575" stroke="#757575" points="308.71,-427.76 318.89,-430.72 312.78,-422.06 308.71,-427.76"/>
</g>
<!-- server/server.js&#45;&gt;server/routes/superHeroRoutes.js -->
<g id="edge38" class="edge">
<title>server/server.js&#45;&gt;server/routes/superHeroRoutes.js</title>
<path fill="none" stroke="#757575" d="M190.04,-251.93C218.06,-252.03 250.91,-257.49 272,-278.5 344.05,-350.29 236.99,-431.68 308,-504.5 308.67,-505.19 309.36,-505.85 310.05,-506.5"/>
<polygon fill="#757575" stroke="#757575" points="308.03,-509.36 318.07,-512.76 312.34,-503.85 308.03,-509.36"/>
</g>
<!-- server/server.js&#45;&gt;server/routes/userRoutes.js -->
<g id="edge39" class="edge">
<title>server/server.js&#45;&gt;server/routes/userRoutes.js</title>
<path fill="none" stroke="#757575" d="M190.29,-253.58C215.56,-250.63 245.86,-245.47 272,-236.5 289.31,-230.56 290.78,-222.69 308,-216.5 314.21,-214.27 320.71,-212.27 327.32,-210.49"/>
<polygon fill="#757575" stroke="#757575" points="328.21,-213.88 337.05,-208.04 326.49,-207.09 328.21,-213.88"/>
</g>
<!-- server/server.js&#45;&gt;server/routes/videos.js -->
<g id="edge40" class="edge">
<title>server/server.js&#45;&gt;server/routes/videos.js</title>
<path fill="none" stroke="#757575" d="M190.05,-261.14C215.4,-264.03 245.85,-269.21 272,-278.5 289.46,-284.7 290.64,-293.05 308,-299.5 315.29,-302.21 323,-304.56 330.81,-306.6"/>
<polygon fill="#757575" stroke="#757575" points="330.18,-310.05 340.73,-309.02 331.84,-303.25 330.18,-310.05"/>
</g>
</g>
</svg>
