<?xml version="1.0" encoding="UTF-8" standalone="no"?>
<!DOCTYPE svg PUBLIC "-//W3C//DTD SVG 1.1//EN"
 "http://www.w3.org/Graphics/SVG/1.1/DTD/svg11.dtd">
<!-- Generated by graphviz version 2.43.0 (0)
 -->
<!-- Title: G Pages: 1 -->
<svg width="1566pt" height="1340pt"
 viewBox="0.00 0.00 1566.20 1339.54" xmlns="http://www.w3.org/2000/svg" xmlns:xlink="http://www.w3.org/1999/xlink">
<g id="graph0" class="graph" transform="scale(1 1) rotate(0) translate(21.6 1317.94)">
<title>G</title>
<polygon fill="#111111" stroke="transparent" points="-21.6,21.6 -21.6,-1317.94 1544.6,-1317.94 1544.6,21.6 -21.6,21.6"/>
<!-- TonyO/pullTrafficCamerasAPI.js -->
<g id="node1" class="node">
<title>TonyO/pullTrafficCamerasAPI.js</title>
<path fill="none" stroke="#cfffac" d="M256.83,-140C256.83,-140 63.17,-140 63.17,-140 59.33,-140 55.5,-136.17 55.5,-132.33 55.5,-132.33 55.5,-124.67 55.5,-124.67 55.5,-120.83 59.33,-117 63.17,-117 63.17,-117 256.83,-117 256.83,-117 260.67,-117 264.5,-120.83 264.5,-124.67 264.5,-124.67 264.5,-132.33 264.5,-132.33 264.5,-136.17 260.67,-140 256.83,-140"/>
<text text-anchor="middle" x="160" y="-124.8" font-family="Arial" font-size="14.00" fill="#cfffac">TonyO/pullTrafficCamerasAPI.js</text>
</g>
<!-- client/dist/assets/index&#45;76BDLOmw.css -->
<g id="node2" class="node">
<title>client/dist/assets/index&#45;76BDLOmw.css</title>
<path fill="none" stroke="#cfffac" d="M279.33,-181C279.33,-181 40.67,-181 40.67,-181 36.83,-181 33,-177.17 33,-173.33 33,-173.33 33,-165.67 33,-165.67 33,-161.83 36.83,-158 40.67,-158 40.67,-158 279.33,-158 279.33,-158 283.17,-158 287,-161.83 287,-165.67 287,-165.67 287,-173.33 287,-173.33 287,-177.17 283.17,-181 279.33,-181"/>
<text text-anchor="middle" x="160" y="-165.8" font-family="Arial" font-size="14.00" fill="#cfffac">client/dist/assets/index&#45;76BDLOmw.css</text>
</g>
<!-- client/dist/assets/index&#45;DDzKLhhI.js -->
<g id="node3" class="node">
<title>client/dist/assets/index&#45;DDzKLhhI.js</title>
<path fill="none" stroke="#cfffac" d="M267.83,-222C267.83,-222 52.17,-222 52.17,-222 48.33,-222 44.5,-218.17 44.5,-214.33 44.5,-214.33 44.5,-206.67 44.5,-206.67 44.5,-202.83 48.33,-199 52.17,-199 52.17,-199 267.83,-199 267.83,-199 271.67,-199 275.5,-202.83 275.5,-206.67 275.5,-206.67 275.5,-214.33 275.5,-214.33 275.5,-218.17 271.67,-222 267.83,-222"/>
<text text-anchor="middle" x="160" y="-206.8" font-family="Arial" font-size="14.00" fill="#cfffac">client/dist/assets/index&#45;DDzKLhhI.js</text>
</g>
<!-- client/eslint.config.js -->
<g id="node4" class="node">
<title>client/eslint.config.js</title>
<path fill="none" stroke="#cfffac" d="M220.83,-263C220.83,-263 99.17,-263 99.17,-263 95.33,-263 91.5,-259.17 91.5,-255.33 91.5,-255.33 91.5,-247.67 91.5,-247.67 91.5,-243.83 95.33,-240 99.17,-240 99.17,-240 220.83,-240 220.83,-240 224.67,-240 228.5,-243.83 228.5,-247.67 228.5,-247.67 228.5,-255.33 228.5,-255.33 228.5,-259.17 224.67,-263 220.83,-263"/>
<text text-anchor="middle" x="160" y="-247.8" font-family="Arial" font-size="14.00" fill="#cfffac">client/eslint.config.js</text>
</g>
<!-- client/src/App.css -->
<g id="node5" class="node">
<title>client/src/App.css</title>
<path fill="none" stroke="#cfffac" d="M213.33,-304C213.33,-304 106.67,-304 106.67,-304 102.83,-304 99,-300.17 99,-296.33 99,-296.33 99,-288.67 99,-288.67 99,-284.83 102.83,-281 106.67,-281 106.67,-281 213.33,-281 213.33,-281 217.17,-281 221,-284.83 221,-288.67 221,-288.67 221,-296.33 221,-296.33 221,-300.17 217.17,-304 213.33,-304"/>
<text text-anchor="middle" x="160" y="-288.8" font-family="Arial" font-size="14.00" fill="#cfffac">client/src/App.css</text>
</g>
<!-- client/src/App.jsx -->
<g id="node6" class="node">
<title>client/src/App.jsx</title>
<path fill="none" stroke="#c6c5fe" d="M516.33,-366C516.33,-366 413.67,-366 413.67,-366 409.83,-366 406,-362.17 406,-358.33 406,-358.33 406,-350.67 406,-350.67 406,-346.83 409.83,-343 413.67,-343 413.67,-343 516.33,-343 516.33,-343 520.17,-343 524,-346.83 524,-350.67 524,-350.67 524,-358.33 524,-358.33 524,-362.17 520.17,-366 516.33,-366"/>
<text text-anchor="middle" x="465" y="-350.8" font-family="Arial" font-size="14.00" fill="#c6c5fe">client/src/App.jsx</text>
</g>
<!-- client/src/Footer.jsx -->
<g id="node7" class="node">
<title>client/src/Footer.jsx</title>
<path fill="none" stroke="#c6c5fe" d="M1102.33,-105C1102.33,-105 985.67,-105 985.67,-105 981.83,-105 978,-101.17 978,-97.33 978,-97.33 978,-89.67 978,-89.67 978,-85.83 981.83,-82 985.67,-82 985.67,-82 1102.33,-82 1102.33,-82 1106.17,-82 1110,-85.83 1110,-89.67 1110,-89.67 1110,-97.33 1110,-97.33 1110,-101.17 1106.17,-105 1102.33,-105"/>
<text text-anchor="middle" x="1044" y="-89.8" font-family="Arial" font-size="14.00" fill="#c6c5fe">client/src/Footer.jsx</text>
</g>
<!-- client/src/App.jsx&#45;&gt;client/src/Footer.jsx -->
<g id="edge1" class="edge">
<title>client/src/App.jsx&#45;&gt;client/src/Footer.jsx</title>
<path fill="none" stroke="#757575" d="M524.27,-355.61C542.43,-352.99 561.07,-346.77 574,-333.5 641.33,-264.44 538.26,-183.97 610,-119.5 660.92,-73.74 857.94,-79.87 967.83,-87.26"/>
<polygon fill="#757575" stroke="#757575" points="967.65,-90.75 977.86,-87.95 968.13,-83.77 967.65,-90.75"/>
</g>
<!-- client/src/FrontPage.jsx -->
<g id="node8" class="node">
<title>client/src/FrontPage.jsx</title>
<path fill="none" stroke="#c6c5fe" d="M801.33,-326C801.33,-326 659.67,-326 659.67,-326 655.83,-326 652,-322.17 652,-318.33 652,-318.33 652,-310.67 652,-310.67 652,-306.83 655.83,-303 659.67,-303 659.67,-303 801.33,-303 801.33,-303 805.17,-303 809,-306.83 809,-310.67 809,-310.67 809,-318.33 809,-318.33 809,-322.17 805.17,-326 801.33,-326"/>
<text text-anchor="middle" x="730.5" y="-310.8" font-family="Arial" font-size="14.00" fill="#c6c5fe">client/src/FrontPage.jsx</text>
</g>
<!-- client/src/App.jsx&#45;&gt;client/src/FrontPage.jsx -->
<g id="edge2" class="edge">
<title>client/src/App.jsx&#45;&gt;client/src/FrontPage.jsx</title>
<path fill="none" stroke="#757575" d="M524.15,-345.67C559.07,-340.37 604.15,-333.53 643.17,-327.61"/>
<polygon fill="#757575" stroke="#757575" points="644.11,-331 653.47,-326.04 643.06,-324.08 644.11,-331"/>
</g>
<!-- client/src/Gallery.jsx -->
<g id="node9" class="node">
<title>client/src/Gallery.jsx</title>
<path fill="none" stroke="#c6c5fe" d="M791.33,-67C791.33,-67 669.67,-67 669.67,-67 665.83,-67 662,-63.17 662,-59.33 662,-59.33 662,-51.67 662,-51.67 662,-47.83 665.83,-44 669.67,-44 669.67,-44 791.33,-44 791.33,-44 795.17,-44 799,-47.83 799,-51.67 799,-51.67 799,-59.33 799,-59.33 799,-63.17 795.17,-67 791.33,-67"/>
<text text-anchor="middle" x="730.5" y="-51.8" font-family="Arial" font-size="14.00" fill="#c6c5fe">client/src/Gallery.jsx</text>
</g>
<!-- client/src/App.jsx&#45;&gt;client/src/Gallery.jsx -->
<g id="edge3" class="edge">
<title>client/src/App.jsx&#45;&gt;client/src/Gallery.jsx</title>
<path fill="none" stroke="#757575" d="M524.18,-355.84C542.44,-353.26 561.17,-346.99 574,-333.5 651.97,-251.52 532.95,-164.34 610,-81.5 621.08,-69.59 636.22,-62.48 652.01,-58.36"/>
<polygon fill="#757575" stroke="#757575" points="652.89,-61.75 661.9,-56.17 651.38,-54.92 652.89,-61.75"/>
</g>
<!-- client/src/Navbar.jsx -->
<g id="node10" class="node">
<title>client/src/Navbar.jsx</title>
<path fill="none" stroke="#c6c5fe" d="M1104.83,-427C1104.83,-427 983.17,-427 983.17,-427 979.33,-427 975.5,-423.17 975.5,-419.33 975.5,-419.33 975.5,-411.67 975.5,-411.67 975.5,-407.83 979.33,-404 983.17,-404 983.17,-404 1104.83,-404 1104.83,-404 1108.67,-404 1112.5,-407.83 1112.5,-411.67 1112.5,-411.67 1112.5,-419.33 1112.5,-419.33 1112.5,-423.17 1108.67,-427 1104.83,-427"/>
<text text-anchor="middle" x="1044" y="-411.8" font-family="Arial" font-size="14.00" fill="#c6c5fe">client/src/Navbar.jsx</text>
</g>
<!-- client/src/App.jsx&#45;&gt;client/src/Navbar.jsx -->
<g id="edge4" class="edge">
<title>client/src/App.jsx&#45;&gt;client/src/Navbar.jsx</title>
<path fill="none" stroke="#757575" d="M524.35,-365.31C550.48,-369.87 581.71,-374.94 610,-378.5 733.85,-394.09 878.47,-404.98 965.29,-410.74"/>
<polygon fill="#757575" stroke="#757575" points="965.12,-414.23 975.32,-411.4 965.57,-407.25 965.12,-414.23"/>
</g>
<!-- client/src/SuperheroRegistry.jsx -->
<g id="node11" class="node">
<title>client/src/SuperheroRegistry.jsx</title>
<path fill="none" stroke="#cfffac" d="M825.83,-485C825.83,-485 635.17,-485 635.17,-485 631.33,-485 627.5,-481.17 627.5,-477.33 627.5,-477.33 627.5,-469.67 627.5,-469.67 627.5,-465.83 631.33,-462 635.17,-462 635.17,-462 825.83,-462 825.83,-462 829.67,-462 833.5,-465.83 833.5,-469.67 833.5,-469.67 833.5,-477.33 833.5,-477.33 833.5,-481.17 829.67,-485 825.83,-485"/>
<text text-anchor="middle" x="730.5" y="-469.8" font-family="Arial" font-size="14.00" fill="#cfffac">client/src/SuperheroRegistry.jsx</text>
</g>
<!-- client/src/App.jsx&#45;&gt;client/src/SuperheroRegistry.jsx -->
<g id="edge5" class="edge">
<title>client/src/App.jsx&#45;&gt;client/src/SuperheroRegistry.jsx</title>
<path fill="none" stroke="#757575" d="M478.79,-366.04C502.67,-386.91 556.49,-430.77 610,-452.5 616.29,-455.06 622.9,-457.3 629.64,-459.27"/>
<polygon fill="#757575" stroke="#757575" points="629.01,-462.73 639.58,-461.97 630.85,-455.98 629.01,-462.73"/>
</g>
<!-- client/src/TrafficVideo.jsx -->
<g id="node12" class="node">
<title>client/src/TrafficVideo.jsx</title>
<path fill="none" stroke="#cfffac" d="M805.83,-444C805.83,-444 655.17,-444 655.17,-444 651.33,-444 647.5,-440.17 647.5,-436.33 647.5,-436.33 647.5,-428.67 647.5,-428.67 647.5,-424.83 651.33,-421 655.17,-421 655.17,-421 805.83,-421 805.83,-421 809.67,-421 813.5,-424.83 813.5,-428.67 813.5,-428.67 813.5,-436.33 813.5,-436.33 813.5,-440.17 809.67,-444 805.83,-444"/>
<text text-anchor="middle" x="730.5" y="-428.8" font-family="Arial" font-size="14.00" fill="#cfffac">client/src/TrafficVideo.jsx</text>
</g>
<!-- client/src/App.jsx&#45;&gt;client/src/TrafficVideo.jsx -->
<g id="edge6" class="edge">
<title>client/src/App.jsx&#45;&gt;client/src/TrafficVideo.jsx</title>
<path fill="none" stroke="#757575" d="M494.59,-366.1C523.39,-377.47 569.26,-394.77 610,-406.5 625.71,-411.03 642.79,-415.18 658.98,-418.78"/>
<polygon fill="#757575" stroke="#757575" points="658.42,-422.24 668.93,-420.95 659.91,-415.4 658.42,-422.24"/>
</g>
<!-- client/src/component/Login.jsx -->
<g id="node13" class="node">
<title>client/src/component/Login.jsx</title>
<path fill="none" stroke="#c6c5fe" d="M1135.33,-468C1135.33,-468 952.67,-468 952.67,-468 948.83,-468 945,-464.17 945,-460.33 945,-460.33 945,-452.67 945,-452.67 945,-448.83 948.83,-445 952.67,-445 952.67,-445 1135.33,-445 1135.33,-445 1139.17,-445 1143,-448.83 1143,-452.67 1143,-452.67 1143,-460.33 1143,-460.33 1143,-464.17 1139.17,-468 1135.33,-468"/>
<text text-anchor="middle" x="1044" y="-452.8" font-family="Arial" font-size="14.00" fill="#c6c5fe">client/src/component/Login.jsx</text>
</g>
<!-- client/src/App.jsx&#45;&gt;client/src/component/Login.jsx -->
<g id="edge7" class="edge">
<title>client/src/App.jsx&#45;&gt;client/src/component/Login.jsx</title>
<path fill="none" stroke="#757575" d="M473.28,-366.09C491.86,-394.45 544.27,-466.95 610,-493.5 746.02,-548.44 925.2,-498.58 1003.52,-471.42"/>
<polygon fill="#757575" stroke="#757575" points="1004.74,-474.7 1013,-468.07 1002.41,-468.1 1004.74,-474.7"/>
</g>
<!-- client/src/component/Register.jsx -->
<g id="node14" class="node">
<title>client/src/component/Register.jsx</title>
<path fill="none" stroke="#c6c5fe" d="M1143.83,-386C1143.83,-386 944.17,-386 944.17,-386 940.33,-386 936.5,-382.17 936.5,-378.33 936.5,-378.33 936.5,-370.67 936.5,-370.67 936.5,-366.83 940.33,-363 944.17,-363 944.17,-363 1143.83,-363 1143.83,-363 1147.67,-363 1151.5,-366.83 1151.5,-370.67 1151.5,-370.67 1151.5,-378.33 1151.5,-378.33 1151.5,-382.17 1147.67,-386 1143.83,-386"/>
<text text-anchor="middle" x="1044" y="-370.8" font-family="Arial" font-size="14.00" fill="#c6c5fe">client/src/component/Register.jsx</text>
</g>
<!-- client/src/App.jsx&#45;&gt;client/src/component/Register.jsx -->
<g id="edge8" class="edge">
<title>client/src/App.jsx&#45;&gt;client/src/component/Register.jsx</title>
<path fill="none" stroke="#757575" d="M524.23,-356.52C618.03,-359.77 804.35,-366.23 926.28,-370.45"/>
<polygon fill="#757575" stroke="#757575" points="926.3,-373.96 936.41,-370.81 926.54,-366.96 926.3,-373.96"/>
</g>
<!-- client/src/component/VideoReactionCard.css -->
<g id="node15" class="node">
<title>client/src/component/VideoReactionCard.css</title>
<path fill="none" stroke="#cfffac" d="M1515.33,-225C1515.33,-225 1244.67,-225 1244.67,-225 1240.83,-225 1237,-221.17 1237,-217.33 1237,-217.33 1237,-209.67 1237,-209.67 1237,-205.83 1240.83,-202 1244.67,-202 1244.67,-202 1515.33,-202 1515.33,-202 1519.17,-202 1523,-205.83 1523,-209.67 1523,-209.67 1523,-217.33 1523,-217.33 1523,-221.17 1519.17,-225 1515.33,-225"/>
<text text-anchor="middle" x="1380" y="-209.8" font-family="Arial" font-size="14.00" fill="#cfffac">client/src/component/VideoReactionCard.css</text>
</g>
<!-- client/src/App.jsx&#45;&gt;client/src/component/VideoReactionCard.css -->
<g id="edge9" class="edge">
<title>client/src/App.jsx&#45;&gt;client/src/component/VideoReactionCard.css</title>
<path fill="none" stroke="#757575" d="M524.13,-353.35C541.66,-350.48 559.95,-344.68 574,-333.5 604.82,-308.96 581.16,-279.34 610,-252.5 705.81,-163.33 758.07,-175.06 887,-152.5 1024.47,-128.45 1063.34,-129.57 1201,-152.5 1252.69,-161.11 1309.49,-182.88 1344.71,-197.94"/>
<polygon fill="#757575" stroke="#757575" points="1343.48,-201.22 1354.04,-201.99 1346.26,-194.8 1343.48,-201.22"/>
</g>
<!-- client/src/Footer.css -->
<g id="node18" class="node">
<title>client/src/Footer.css</title>
<path fill="none" stroke="#cfffac" d="M1440.33,-85C1440.33,-85 1319.67,-85 1319.67,-85 1315.83,-85 1312,-81.17 1312,-77.33 1312,-77.33 1312,-69.67 1312,-69.67 1312,-65.83 1315.83,-62 1319.67,-62 1319.67,-62 1440.33,-62 1440.33,-62 1444.17,-62 1448,-65.83 1448,-69.67 1448,-69.67 1448,-77.33 1448,-77.33 1448,-81.17 1444.17,-85 1440.33,-85"/>
<text text-anchor="middle" x="1380" y="-69.8" font-family="Arial" font-size="14.00" fill="#cfffac">client/src/Footer.css</text>
</g>
<!-- client/src/Footer.jsx&#45;&gt;client/src/Footer.css -->
<g id="edge10" class="edge">
<title>client/src/Footer.jsx&#45;&gt;client/src/Footer.css</title>
<path fill="none" stroke="#757575" d="M1110.19,-89.6C1165.08,-86.31 1243.7,-81.6 1301.75,-78.13"/>
<polygon fill="#757575" stroke="#757575" points="1302.2,-81.61 1311.97,-77.51 1301.78,-74.62 1302.2,-81.61"/>
</g>
<!-- client/src/FrontPage.jsx&#45;&gt;client/src/Footer.jsx -->
<g id="edge19" class="edge">
<title>client/src/FrontPage.jsx&#45;&gt;client/src/Footer.jsx</title>
<path fill="none" stroke="#757575" d="M809.17,-313.89C824.56,-310.4 839.49,-304.17 851,-293.5 898.44,-249.54 843.89,-200.71 887,-152.5 907.9,-129.13 939.02,-114.98 967.98,-106.42"/>
<polygon fill="#757575" stroke="#757575" points="969,-109.77 977.7,-103.73 967.13,-103.03 969,-109.77"/>
</g>
<!-- client/src/FrontPage.jsx&#45;&gt;client/src/Navbar.jsx -->
<g id="edge21" class="edge">
<title>client/src/FrontPage.jsx&#45;&gt;client/src/Navbar.jsx</title>
<path fill="none" stroke="#757575" d="M752.88,-326.02C792.16,-347.09 873.06,-390.12 887,-394.5 911.97,-402.35 940.1,-407.26 965.52,-410.34"/>
<polygon fill="#757575" stroke="#757575" points="965.15,-413.82 975.48,-411.47 965.94,-406.87 965.15,-413.82"/>
</g>
<!-- client/src/FrontPage.jsx&#45;&gt;client/src/component/Login.jsx -->
<g id="edge22" class="edge">
<title>client/src/FrontPage.jsx&#45;&gt;client/src/component/Login.jsx</title>
<path fill="none" stroke="#757575" d="M745.63,-326.19C780.85,-355.2 870.84,-428.71 887,-435.5 901.92,-441.76 918.28,-446.25 934.62,-449.46"/>
<polygon fill="#757575" stroke="#757575" points="934.32,-452.96 944.78,-451.29 935.56,-446.07 934.32,-452.96"/>
</g>
<!-- client/src/FrontPage.jsx&#45;&gt;client/src/component/Register.jsx -->
<g id="edge23" class="edge">
<title>client/src/FrontPage.jsx&#45;&gt;client/src/component/Register.jsx</title>
<path fill="none" stroke="#757575" d="M784.75,-326.03C805.44,-330.53 829.33,-335.73 851,-340.5 867.01,-344.02 870.91,-345.37 887,-348.5 910.13,-352.99 935.27,-357.4 958.49,-361.26"/>
<polygon fill="#757575" stroke="#757575" points="958.22,-364.77 968.66,-362.94 959.36,-357.86 958.22,-364.77"/>
</g>
<!-- client/src/FrontPage.jsx&#45;&gt;client/src/component/VideoReactionCard.css -->
<g id="edge24" class="edge">
<title>client/src/FrontPage.jsx&#45;&gt;client/src/component/VideoReactionCard.css</title>
<path fill="none" stroke="#757575" d="M805.78,-326C899.62,-337.94 1065.25,-350.33 1201,-314.5 1261.92,-298.42 1323.85,-256.16 1356.16,-231.7"/>
<polygon fill="#757575" stroke="#757575" points="1358.67,-234.18 1364.46,-225.31 1354.4,-228.63 1358.67,-234.18"/>
</g>
<!-- client/src/FrontPage.css -->
<g id="node21" class="node">
<title>client/src/FrontPage.css</title>
<path fill="none" stroke="#cfffac" d="M1116.83,-306C1116.83,-306 971.17,-306 971.17,-306 967.33,-306 963.5,-302.17 963.5,-298.33 963.5,-298.33 963.5,-290.67 963.5,-290.67 963.5,-286.83 967.33,-283 971.17,-283 971.17,-283 1116.83,-283 1116.83,-283 1120.67,-283 1124.5,-286.83 1124.5,-290.67 1124.5,-290.67 1124.5,-298.33 1124.5,-298.33 1124.5,-302.17 1120.67,-306 1116.83,-306"/>
<text text-anchor="middle" x="1044" y="-290.8" font-family="Arial" font-size="14.00" fill="#cfffac">client/src/FrontPage.css</text>
</g>
<!-- client/src/FrontPage.jsx&#45;&gt;client/src/FrontPage.css -->
<g id="edge20" class="edge">
<title>client/src/FrontPage.jsx&#45;&gt;client/src/FrontPage.css</title>
<path fill="none" stroke="#757575" d="M809.3,-309.5C853.03,-306.7 907.8,-303.18 953.32,-300.26"/>
<polygon fill="#757575" stroke="#757575" points="953.73,-303.74 963.48,-299.61 953.28,-296.75 953.73,-303.74"/>
</g>
<!-- client/src/component/VideoReactionCard.jsx -->
<g id="node22" class="node">
<title>client/src/component/VideoReactionCard.jsx</title>
<path fill="none" stroke="#c6c5fe" d="M1177.33,-265C1177.33,-265 910.67,-265 910.67,-265 906.83,-265 903,-261.17 903,-257.33 903,-257.33 903,-249.67 903,-249.67 903,-245.83 906.83,-242 910.67,-242 910.67,-242 1177.33,-242 1177.33,-242 1181.17,-242 1185,-245.83 1185,-249.67 1185,-249.67 1185,-257.33 1185,-257.33 1185,-261.17 1181.17,-265 1177.33,-265"/>
<text text-anchor="middle" x="1044" y="-249.8" font-family="Arial" font-size="14.00" fill="#c6c5fe">client/src/component/VideoReactionCard.jsx</text>
</g>
<!-- client/src/FrontPage.jsx&#45;&gt;client/src/component/VideoReactionCard.jsx -->
<g id="edge25" class="edge">
<title>client/src/FrontPage.jsx&#45;&gt;client/src/component/VideoReactionCard.jsx</title>
<path fill="none" stroke="#757575" d="M809.29,-304.71C823.39,-301.84 837.8,-298.18 851,-293.5 868.25,-287.39 869.61,-279.21 887,-273.5 894.03,-271.19 901.33,-269.14 908.75,-267.33"/>
<polygon fill="#757575" stroke="#757575" points="909.6,-270.73 918.57,-265.09 908.04,-263.91 909.6,-270.73"/>
</g>
<!-- client/src/Gallery.jsx&#45;&gt;client/src/Footer.jsx -->
<g id="edge26" class="edge">
<title>client/src/Gallery.jsx&#45;&gt;client/src/Footer.jsx</title>
<path fill="none" stroke="#757575" d="M799.09,-63.75C848.83,-69.81 916.45,-78.06 967.88,-84.34"/>
<polygon fill="#757575" stroke="#757575" points="967.59,-87.83 977.94,-85.56 968.44,-80.88 967.59,-87.83"/>
</g>
<!-- client/src/Gallery.jsx&#45;&gt;client/src/component/VideoReactionCard.jsx -->
<g id="edge28" class="edge">
<title>client/src/Gallery.jsx&#45;&gt;client/src/component/VideoReactionCard.jsx</title>
<path fill="none" stroke="#757575" d="M741.71,-67.04C765.11,-92.86 825.33,-155.98 887,-193.5 919.66,-213.37 960.02,-228.68 991.5,-238.86"/>
<polygon fill="#757575" stroke="#757575" points="990.8,-242.31 1001.39,-241.98 992.91,-235.63 990.8,-242.31"/>
</g>
<!-- client/src/Gallery.css -->
<g id="node23" class="node">
<title>client/src/Gallery.css</title>
<path fill="none" stroke="#cfffac" d="M1106.33,-23C1106.33,-23 981.67,-23 981.67,-23 977.83,-23 974,-19.17 974,-15.33 974,-15.33 974,-7.67 974,-7.67 974,-3.83 977.83,0 981.67,0 981.67,0 1106.33,0 1106.33,0 1110.17,0 1114,-3.83 1114,-7.67 1114,-7.67 1114,-15.33 1114,-15.33 1114,-19.17 1110.17,-23 1106.33,-23"/>
<text text-anchor="middle" x="1044" y="-7.8" font-family="Arial" font-size="14.00" fill="#cfffac">client/src/Gallery.css</text>
</g>
<!-- client/src/Gallery.jsx&#45;&gt;client/src/Gallery.css -->
<g id="edge27" class="edge">
<title>client/src/Gallery.jsx&#45;&gt;client/src/Gallery.css</title>
<path fill="none" stroke="#757575" d="M799.18,-44.67C826.44,-40.41 858.19,-35.57 887,-31.5 911.95,-27.98 939.19,-24.39 963.81,-21.25"/>
<polygon fill="#757575" stroke="#757575" points="964.35,-24.71 973.83,-19.98 963.47,-17.77 964.35,-24.71"/>
</g>
<!-- client/src/Navbar.css -->
<g id="node25" class="node">
<title>client/src/Navbar.css</title>
<path fill="none" stroke="#cfffac" d="M1442.33,-427C1442.33,-427 1317.67,-427 1317.67,-427 1313.83,-427 1310,-423.17 1310,-419.33 1310,-419.33 1310,-411.67 1310,-411.67 1310,-407.83 1313.83,-404 1317.67,-404 1317.67,-404 1442.33,-404 1442.33,-404 1446.17,-404 1450,-407.83 1450,-411.67 1450,-411.67 1450,-419.33 1450,-419.33 1450,-423.17 1446.17,-427 1442.33,-427"/>
<text text-anchor="middle" x="1380" y="-411.8" font-family="Arial" font-size="14.00" fill="#cfffac">client/src/Navbar.css</text>
</g>
<!-- client/src/Navbar.jsx&#45;&gt;client/src/Navbar.css -->
<g id="edge29" class="edge">
<title>client/src/Navbar.jsx&#45;&gt;client/src/Navbar.css</title>
<path fill="none" stroke="#757575" d="M1112.59,-415.5C1166.72,-415.5 1242.75,-415.5 1299.74,-415.5"/>
<polygon fill="#757575" stroke="#757575" points="1299.79,-419 1309.79,-415.5 1299.79,-412 1299.79,-419"/>
</g>
<!-- client/src/component/Login.css -->
<g id="node27" class="node">
<title>client/src/component/Login.css</title>
<path fill="none" stroke="#cfffac" d="M1473.33,-468C1473.33,-468 1286.67,-468 1286.67,-468 1282.83,-468 1279,-464.17 1279,-460.33 1279,-460.33 1279,-452.67 1279,-452.67 1279,-448.83 1282.83,-445 1286.67,-445 1286.67,-445 1473.33,-445 1473.33,-445 1477.17,-445 1481,-448.83 1481,-452.67 1481,-452.67 1481,-460.33 1481,-460.33 1481,-464.17 1477.17,-468 1473.33,-468"/>
<text text-anchor="middle" x="1380" y="-452.8" font-family="Arial" font-size="14.00" fill="#cfffac">client/src/component/Login.css</text>
</g>
<!-- client/src/component/Login.jsx&#45;&gt;client/src/component/Login.css -->
<g id="edge30" class="edge">
<title>client/src/component/Login.jsx&#45;&gt;client/src/component/Login.css</title>
<path fill="none" stroke="#757575" d="M1143.4,-456.5C1182.79,-456.5 1228.33,-456.5 1268.81,-456.5"/>
<polygon fill="#757575" stroke="#757575" points="1268.99,-460 1278.99,-456.5 1268.99,-453 1268.99,-460"/>
</g>
<!-- client/src/component/Register.css -->
<g id="node28" class="node">
<title>client/src/component/Register.css</title>
<path fill="none" stroke="#cfffac" d="M1481.33,-386C1481.33,-386 1278.67,-386 1278.67,-386 1274.83,-386 1271,-382.17 1271,-378.33 1271,-378.33 1271,-370.67 1271,-370.67 1271,-366.83 1274.83,-363 1278.67,-363 1278.67,-363 1481.33,-363 1481.33,-363 1485.17,-363 1489,-366.83 1489,-370.67 1489,-370.67 1489,-378.33 1489,-378.33 1489,-382.17 1485.17,-386 1481.33,-386"/>
<text text-anchor="middle" x="1380" y="-370.8" font-family="Arial" font-size="14.00" fill="#cfffac">client/src/component/Register.css</text>
</g>
<!-- client/src/component/Register.jsx&#45;&gt;client/src/component/Register.css -->
<g id="edge31" class="edge">
<title>client/src/component/Register.jsx&#45;&gt;client/src/component/Register.css</title>
<path fill="none" stroke="#757575" d="M1151.6,-374.5C1186.26,-374.5 1224.94,-374.5 1260.43,-374.5"/>
<polygon fill="#757575" stroke="#757575" points="1260.83,-378 1270.83,-374.5 1260.83,-371 1260.83,-378"/>
</g>
<!-- client/src/CounterButton.jsx -->
<g id="node16" class="node">
<title>client/src/CounterButton.jsx</title>
<path fill="none" stroke="#cfffac" d="M242.83,-386C242.83,-386 77.17,-386 77.17,-386 73.33,-386 69.5,-382.17 69.5,-378.33 69.5,-378.33 69.5,-370.67 69.5,-370.67 69.5,-366.83 73.33,-363 77.17,-363 77.17,-363 242.83,-363 242.83,-363 246.67,-363 250.5,-366.83 250.5,-370.67 250.5,-370.67 250.5,-378.33 250.5,-378.33 250.5,-382.17 246.67,-386 242.83,-386"/>
<text text-anchor="middle" x="160" y="-370.8" font-family="Arial" font-size="14.00" fill="#cfffac">client/src/CounterButton.jsx</text>
</g>
<!-- client/src/FakePage.jsx -->
<g id="node17" class="node">
<title>client/src/FakePage.jsx</title>
<path fill="none" stroke="#cfffac" d="M229.83,-427C229.83,-427 90.17,-427 90.17,-427 86.33,-427 82.5,-423.17 82.5,-419.33 82.5,-419.33 82.5,-411.67 82.5,-411.67 82.5,-407.83 86.33,-404 90.17,-404 90.17,-404 229.83,-404 229.83,-404 233.67,-404 237.5,-407.83 237.5,-411.67 237.5,-411.67 237.5,-419.33 237.5,-419.33 237.5,-423.17 233.67,-427 229.83,-427"/>
<text text-anchor="middle" x="160" y="-411.8" font-family="Arial" font-size="14.00" fill="#cfffac">client/src/FakePage.jsx</text>
</g>
<!-- client/src/Footer_old.jsx -->
<g id="node19" class="node">
<title>client/src/Footer_old.jsx</title>
<path fill="none" stroke="#c6c5fe" d="M1115.33,-64C1115.33,-64 972.67,-64 972.67,-64 968.83,-64 965,-60.17 965,-56.33 965,-56.33 965,-48.67 965,-48.67 965,-44.83 968.83,-41 972.67,-41 972.67,-41 1115.33,-41 1115.33,-41 1119.17,-41 1123,-44.83 1123,-48.67 1123,-48.67 1123,-56.33 1123,-56.33 1123,-60.17 1119.17,-64 1115.33,-64"/>
<text text-anchor="middle" x="1044" y="-48.8" font-family="Arial" font-size="14.00" fill="#c6c5fe">client/src/Footer_old.jsx</text>
</g>
<!-- client/src/Footer_old.jsx&#45;&gt;client/src/Footer.css -->
<g id="edge11" class="edge">
<title>client/src/Footer_old.jsx&#45;&gt;client/src/Footer.css</title>
<path fill="none" stroke="#757575" d="M1123.31,-57.42C1177.11,-60.81 1248.2,-65.28 1301.77,-68.64"/>
<polygon fill="#757575" stroke="#757575" points="1301.7,-72.15 1311.9,-69.28 1302.14,-65.16 1301.7,-72.15"/>
</g>
<!-- client/src/FrontPage copy.jsx -->
<g id="node20" class="node">
<title>client/src/FrontPage copy.jsx</title>
<path fill="none" stroke="#c6c5fe" d="M816.83,-285C816.83,-285 644.17,-285 644.17,-285 640.33,-285 636.5,-281.17 636.5,-277.33 636.5,-277.33 636.5,-269.67 636.5,-269.67 636.5,-265.83 640.33,-262 644.17,-262 644.17,-262 816.83,-262 816.83,-262 820.67,-262 824.5,-265.83 824.5,-269.67 824.5,-269.67 824.5,-277.33 824.5,-277.33 824.5,-281.17 820.67,-285 816.83,-285"/>
<text text-anchor="middle" x="730.5" y="-269.8" font-family="Arial" font-size="14.00" fill="#c6c5fe">client/src/FrontPage copy.jsx</text>
</g>
<!-- client/src/FrontPage copy.jsx&#45;&gt;client/src/Footer.jsx -->
<g id="edge12" class="edge">
<title>client/src/FrontPage copy.jsx&#45;&gt;client/src/Footer.jsx</title>
<path fill="none" stroke="#757575" d="M743.87,-261.72C769.06,-238.26 828.83,-185.15 887,-152.5 920.61,-133.64 961.44,-118.44 992.89,-108.2"/>
<polygon fill="#757575" stroke="#757575" points="994.3,-111.42 1002.76,-105.05 992.17,-104.76 994.3,-111.42"/>
</g>
<!-- client/src/FrontPage copy.jsx&#45;&gt;client/src/Navbar.jsx -->
<g id="edge14" class="edge">
<title>client/src/FrontPage copy.jsx&#45;&gt;client/src/Navbar.jsx</title>
<path fill="none" stroke="#757575" d="M824.64,-278.82C834.22,-282.26 843.26,-287.02 851,-293.5 887.54,-324.09 849.98,-364.49 887,-394.5 908.65,-412.05 937.8,-418.95 965.05,-420.9"/>
<polygon fill="#757575" stroke="#757575" points="965.21,-424.41 975.38,-421.41 965.57,-417.42 965.21,-424.41"/>
</g>
<!-- client/src/FrontPage copy.jsx&#45;&gt;client/src/component/Login.jsx -->
<g id="edge15" class="edge">
<title>client/src/FrontPage copy.jsx&#45;&gt;client/src/component/Login.jsx</title>
<path fill="none" stroke="#757575" d="M824.67,-277.89C834.36,-281.48 843.42,-286.52 851,-293.5 898.9,-337.6 838.4,-392.17 887,-435.5 900.42,-447.47 917.26,-454.67 934.86,-458.77"/>
<polygon fill="#757575" stroke="#757575" points="934.2,-462.21 944.7,-460.73 935.58,-455.34 934.2,-462.21"/>
</g>
<!-- client/src/FrontPage copy.jsx&#45;&gt;client/src/component/Register.jsx -->
<g id="edge16" class="edge">
<title>client/src/FrontPage copy.jsx&#45;&gt;client/src/component/Register.jsx</title>
<path fill="none" stroke="#757575" d="M821.8,-285C831.79,-287.34 841.7,-290.14 851,-293.5 868.42,-299.8 870.3,-306.48 887,-314.5 923.59,-332.07 966.76,-348.35 998.4,-359.5"/>
<polygon fill="#757575" stroke="#757575" points="997.65,-362.95 1008.25,-362.94 999.96,-356.34 997.65,-362.95"/>
</g>
<!-- client/src/FrontPage copy.jsx&#45;&gt;client/src/component/VideoReactionCard.css -->
<g id="edge17" class="edge">
<title>client/src/FrontPage copy.jsx&#45;&gt;client/src/component/VideoReactionCard.css</title>
<path fill="none" stroke="#757575" d="M766.24,-261.99C797.46,-252.22 844.75,-238.81 887,-232.5 999.99,-215.63 1129.09,-211.2 1226.7,-210.81"/>
<polygon fill="#757575" stroke="#757575" points="1226.95,-214.31 1236.94,-210.79 1226.93,-207.31 1226.95,-214.31"/>
</g>
<!-- client/src/FrontPage copy.jsx&#45;&gt;client/src/FrontPage.css -->
<g id="edge13" class="edge">
<title>client/src/FrontPage copy.jsx&#45;&gt;client/src/FrontPage.css</title>
<path fill="none" stroke="#757575" d="M824.54,-279.77C865.28,-282.52 912.89,-285.73 953.25,-288.45"/>
<polygon fill="#757575" stroke="#757575" points="953.13,-291.95 963.34,-289.13 953.6,-284.96 953.13,-291.95"/>
</g>
<!-- client/src/FrontPage copy.jsx&#45;&gt;client/src/component/VideoReactionCard.jsx -->
<g id="edge18" class="edge">
<title>client/src/FrontPage copy.jsx&#45;&gt;client/src/component/VideoReactionCard.jsx</title>
<path fill="none" stroke="#757575" d="M824.54,-267.53C846.11,-266.14 869.6,-264.63 892.93,-263.14"/>
<polygon fill="#757575" stroke="#757575" points="893.15,-266.63 902.91,-262.49 892.7,-259.64 893.15,-266.63"/>
</g>
<!-- client/src/component/VideoReactionCard.jsx&#45;&gt;client/src/component/VideoReactionCard.css -->
<g id="edge33" class="edge">
<title>client/src/component/VideoReactionCard.jsx&#45;&gt;client/src/component/VideoReactionCard.css</title>
<path fill="none" stroke="#757575" d="M1141.16,-241.98C1182.37,-237.05 1230.65,-231.27 1272.9,-226.21"/>
<polygon fill="#757575" stroke="#757575" points="1273.43,-229.67 1282.94,-225 1272.6,-222.72 1273.43,-229.67"/>
</g>
<!-- client/src/Login.jsx -->
<g id="node24" class="node">
<title>client/src/Login.jsx</title>
<path fill="none" stroke="#cfffac" d="M215.83,-468C215.83,-468 104.17,-468 104.17,-468 100.33,-468 96.5,-464.17 96.5,-460.33 96.5,-460.33 96.5,-452.67 96.5,-452.67 96.5,-448.83 100.33,-445 104.17,-445 104.17,-445 215.83,-445 215.83,-445 219.67,-445 223.5,-448.83 223.5,-452.67 223.5,-452.67 223.5,-460.33 223.5,-460.33 223.5,-464.17 219.67,-468 215.83,-468"/>
<text text-anchor="middle" x="160" y="-452.8" font-family="Arial" font-size="14.00" fill="#cfffac">client/src/Login.jsx</text>
</g>
<!-- client/src/colour.css -->
<g id="node26" class="node">
<title>client/src/colour.css</title>
<path fill="none" stroke="#cfffac" d="M219.33,-509C219.33,-509 100.67,-509 100.67,-509 96.83,-509 93,-505.17 93,-501.33 93,-501.33 93,-493.67 93,-493.67 93,-489.83 96.83,-486 100.67,-486 100.67,-486 219.33,-486 219.33,-486 223.17,-486 227,-489.83 227,-493.67 227,-493.67 227,-501.33 227,-501.33 227,-505.17 223.17,-509 219.33,-509"/>
<text text-anchor="middle" x="160" y="-493.8" font-family="Arial" font-size="14.00" fill="#cfffac">client/src/colour.css</text>
</g>
<!-- client/src/component/SharePopup.jsx -->
<g id="node29" class="node">
<title>client/src/component/SharePopup.jsx</title>
<path fill="none" stroke="#cfffac" d="M272.33,-550C272.33,-550 47.67,-550 47.67,-550 43.83,-550 40,-546.17 40,-542.33 40,-542.33 40,-534.67 40,-534.67 40,-530.83 43.83,-527 47.67,-527 47.67,-527 272.33,-527 272.33,-527 276.17,-527 280,-530.83 280,-534.67 280,-534.67 280,-542.33 280,-542.33 280,-546.17 276.17,-550 272.33,-550"/>
<text text-anchor="middle" x="160" y="-534.8" font-family="Arial" font-size="14.00" fill="#cfffac">client/src/component/SharePopup.jsx</text>
</g>
<!-- client/src/component/VideoPlayer.jsx -->
<g id="node30" class="node">
<title>client/src/component/VideoPlayer.jsx</title>
<path fill="none" stroke="#cfffac" d="M270.83,-591C270.83,-591 49.17,-591 49.17,-591 45.33,-591 41.5,-587.17 41.5,-583.33 41.5,-583.33 41.5,-575.67 41.5,-575.67 41.5,-571.83 45.33,-568 49.17,-568 49.17,-568 270.83,-568 270.83,-568 274.67,-568 278.5,-571.83 278.5,-575.67 278.5,-575.67 278.5,-583.33 278.5,-583.33 278.5,-587.17 274.67,-591 270.83,-591"/>
<text text-anchor="middle" x="160" y="-575.8" font-family="Arial" font-size="14.00" fill="#cfffac">client/src/component/VideoPlayer.jsx</text>
</g>
<!-- client/src/component/VideoReactionCard copy.jsx -->
<g id="node31" class="node">
<title>client/src/component/VideoReactionCard copy.jsx</title>
<path fill="none" stroke="#c6c5fe" d="M1193.33,-185C1193.33,-185 894.67,-185 894.67,-185 890.83,-185 887,-181.17 887,-177.33 887,-177.33 887,-169.67 887,-169.67 887,-165.83 890.83,-162 894.67,-162 894.67,-162 1193.33,-162 1193.33,-162 1197.17,-162 1201,-165.83 1201,-169.67 1201,-169.67 1201,-177.33 1201,-177.33 1201,-181.17 1197.17,-185 1193.33,-185"/>
<text text-anchor="middle" x="1044" y="-169.8" font-family="Arial" font-size="14.00" fill="#c6c5fe">client/src/component/VideoReactionCard copy.jsx</text>
</g>
<!-- client/src/component/VideoReactionCard copy.jsx&#45;&gt;client/src/component/VideoReactionCard.css -->
<g id="edge32" class="edge">
<title>client/src/component/VideoReactionCard copy.jsx&#45;&gt;client/src/component/VideoReactionCard.css</title>
<path fill="none" stroke="#757575" d="M1141.16,-185.02C1182.37,-189.95 1230.65,-195.73 1272.9,-200.79"/>
<polygon fill="#757575" stroke="#757575" points="1272.6,-204.28 1282.94,-202 1273.43,-197.33 1272.6,-204.28"/>
</g>
<!-- client/src/component/VideoReactionOldVersion.jsx -->
<g id="node32" class="node">
<title>client/src/component/VideoReactionOldVersion.jsx</title>
<path fill="none" stroke="#cfffac" d="M312.33,-632C312.33,-632 7.67,-632 7.67,-632 3.83,-632 0,-628.17 0,-624.33 0,-624.33 0,-616.67 0,-616.67 0,-612.83 3.83,-609 7.67,-609 7.67,-609 312.33,-609 312.33,-609 316.17,-609 320,-612.83 320,-616.67 320,-616.67 320,-624.33 320,-624.33 320,-628.17 316.17,-632 312.33,-632"/>
<text text-anchor="middle" x="160" y="-616.8" font-family="Arial" font-size="14.00" fill="#cfffac">client/src/component/VideoReactionOldVersion.jsx</text>
</g>
<!-- client/src/createSuffle.js -->
<g id="node33" class="node">
<title>client/src/createSuffle.js</title>
<path fill="none" stroke="#cfffac" d="M231.83,-673C231.83,-673 88.17,-673 88.17,-673 84.33,-673 80.5,-669.17 80.5,-665.33 80.5,-665.33 80.5,-657.67 80.5,-657.67 80.5,-653.83 84.33,-650 88.17,-650 88.17,-650 231.83,-650 231.83,-650 235.67,-650 239.5,-653.83 239.5,-657.67 239.5,-657.67 239.5,-665.33 239.5,-665.33 239.5,-669.17 235.67,-673 231.83,-673"/>
<text text-anchor="middle" x="160" y="-657.8" font-family="Arial" font-size="14.00" fill="#cfffac">client/src/createSuffle.js</text>
</g>
<!-- client/src/junk/Navbar.css -->
<g id="node34" class="node">
<title>client/src/junk/Navbar.css</title>
<path fill="none" stroke="#cfffac" d="M541.83,-714C541.83,-714 388.17,-714 388.17,-714 384.33,-714 380.5,-710.17 380.5,-706.33 380.5,-706.33 380.5,-698.67 380.5,-698.67 380.5,-694.83 384.33,-691 388.17,-691 388.17,-691 541.83,-691 541.83,-691 545.67,-691 549.5,-694.83 549.5,-698.67 549.5,-698.67 549.5,-706.33 549.5,-706.33 549.5,-710.17 545.67,-714 541.83,-714"/>
<text text-anchor="middle" x="465" y="-698.8" font-family="Arial" font-size="14.00" fill="#cfffac">client/src/junk/Navbar.css</text>
</g>
<!-- client/src/junk/Navbar.jsx -->
<g id="node35" class="node">
<title>client/src/junk/Navbar.jsx</title>
<path fill="none" stroke="#c6c5fe" d="M234.83,-714C234.83,-714 85.17,-714 85.17,-714 81.33,-714 77.5,-710.17 77.5,-706.33 77.5,-706.33 77.5,-698.67 77.5,-698.67 77.5,-694.83 81.33,-691 85.17,-691 85.17,-691 234.83,-691 234.83,-691 238.67,-691 242.5,-694.83 242.5,-698.67 242.5,-698.67 242.5,-706.33 242.5,-706.33 242.5,-710.17 238.67,-714 234.83,-714"/>
<text text-anchor="middle" x="160" y="-698.8" font-family="Arial" font-size="14.00" fill="#c6c5fe">client/src/junk/Navbar.jsx</text>
</g>
<!-- client/src/junk/Navbar.jsx&#45;&gt;client/src/junk/Navbar.css -->
<g id="edge34" class="edge">
<title>client/src/junk/Navbar.jsx&#45;&gt;client/src/junk/Navbar.css</title>
<path fill="none" stroke="#757575" d="M242.6,-702.5C281.94,-702.5 329.35,-702.5 370.18,-702.5"/>
<polygon fill="#757575" stroke="#757575" points="370.41,-706 380.41,-702.5 370.41,-699 370.41,-706"/>
</g>
<!-- client/src/main.css -->
<g id="node36" class="node">
<title>client/src/main.css</title>
<path fill="none" stroke="#cfffac" d="M521.33,-325C521.33,-325 408.67,-325 408.67,-325 404.83,-325 401,-321.17 401,-317.33 401,-317.33 401,-309.67 401,-309.67 401,-305.83 404.83,-302 408.67,-302 408.67,-302 521.33,-302 521.33,-302 525.17,-302 529,-305.83 529,-309.67 529,-309.67 529,-317.33 529,-317.33 529,-321.17 525.17,-325 521.33,-325"/>
<text text-anchor="middle" x="465" y="-309.8" font-family="Arial" font-size="14.00" fill="#cfffac">client/src/main.css</text>
</g>
<!-- client/src/main.jsx -->
<g id="node37" class="node">
<title>client/src/main.jsx</title>
<path fill="none" stroke="#c6c5fe" d="M214.33,-345C214.33,-345 105.67,-345 105.67,-345 101.83,-345 98,-341.17 98,-337.33 98,-337.33 98,-329.67 98,-329.67 98,-325.83 101.83,-322 105.67,-322 105.67,-322 214.33,-322 214.33,-322 218.17,-322 222,-325.83 222,-329.67 222,-329.67 222,-337.33 222,-337.33 222,-341.17 218.17,-345 214.33,-345"/>
<text text-anchor="middle" x="160" y="-329.8" font-family="Arial" font-size="14.00" fill="#c6c5fe">client/src/main.jsx</text>
</g>
<!-- client/src/main.jsx&#45;&gt;client/src/App.jsx -->
<g id="edge35" class="edge">
<title>client/src/main.jsx&#45;&gt;client/src/App.jsx</title>
<path fill="none" stroke="#757575" d="M222.32,-337.75C272.57,-341.23 343.65,-346.16 395.71,-349.77"/>
<polygon fill="#757575" stroke="#757575" points="395.64,-353.27 405.86,-350.47 396.12,-346.29 395.64,-353.27"/>
</g>
<!-- client/src/main.jsx&#45;&gt;client/src/main.css -->
<g id="edge36" class="edge">
<title>client/src/main.jsx&#45;&gt;client/src/main.css</title>
<path fill="none" stroke="#757575" d="M222.32,-329.45C271.03,-326.24 339.31,-321.73 390.87,-318.33"/>
<polygon fill="#757575" stroke="#757575" points="391.2,-321.81 400.95,-317.66 390.74,-314.83 391.2,-321.81"/>
</g>
<!-- client/vite.config.js -->
<g id="node38" class="node">
<title>client/vite.config.js</title>
<path fill="none" stroke="#cfffac" d="M215.33,-776C215.33,-776 104.67,-776 104.67,-776 100.83,-776 97,-772.17 97,-768.33 97,-768.33 97,-760.67 97,-760.67 97,-756.83 100.83,-753 104.67,-753 104.67,-753 215.33,-753 215.33,-753 219.17,-753 223,-756.83 223,-760.67 223,-760.67 223,-768.33 223,-768.33 223,-772.17 219.17,-776 215.33,-776"/>
<text text-anchor="middle" x="160" y="-760.8" font-family="Arial" font-size="14.00" fill="#cfffac">client/vite.config.js</text>
</g>
<!-- findComponentDuplicates.js -->
<g id="node39" class="node">
<title>findComponentDuplicates.js</title>
<path fill="none" stroke="#cfffac" d="M244.83,-899C244.83,-899 75.17,-899 75.17,-899 71.33,-899 67.5,-895.17 67.5,-891.33 67.5,-891.33 67.5,-883.67 67.5,-883.67 67.5,-879.83 71.33,-876 75.17,-876 75.17,-876 244.83,-876 244.83,-876 248.67,-876 252.5,-879.83 252.5,-883.67 252.5,-883.67 252.5,-891.33 252.5,-891.33 252.5,-895.17 248.67,-899 244.83,-899"/>
<text text-anchor="middle" x="160" y="-883.8" font-family="Arial" font-size="14.00" fill="#cfffac">findComponentDuplicates.js</text>
</g>
<!-- server/cli/createCity.js -->
<g id="node40" class="node">
<title>server/cli/createCity.js</title>
<path fill="none" stroke="#c6c5fe" d="M531.33,-837C531.33,-837 398.67,-837 398.67,-837 394.83,-837 391,-833.17 391,-829.33 391,-829.33 391,-821.67 391,-821.67 391,-817.83 394.83,-814 398.67,-814 398.67,-814 531.33,-814 531.33,-814 535.17,-814 539,-817.83 539,-821.67 539,-821.67 539,-829.33 539,-829.33 539,-833.17 535.17,-837 531.33,-837"/>
<text text-anchor="middle" x="465" y="-821.8" font-family="Arial" font-size="14.00" fill="#c6c5fe">server/cli/createCity.js</text>
</g>
<!-- server/db.js -->
<g id="node41" class="node">
<title>server/db.js</title>
<path fill="none" stroke="#cfffac" d="M1079.33,-1041C1079.33,-1041 1008.67,-1041 1008.67,-1041 1004.83,-1041 1001,-1037.17 1001,-1033.33 1001,-1033.33 1001,-1025.67 1001,-1025.67 1001,-1021.83 1004.83,-1018 1008.67,-1018 1008.67,-1018 1079.33,-1018 1079.33,-1018 1083.17,-1018 1087,-1021.83 1087,-1025.67 1087,-1025.67 1087,-1033.33 1087,-1033.33 1087,-1037.17 1083.17,-1041 1079.33,-1041"/>
<text text-anchor="middle" x="1044" y="-1025.8" font-family="Arial" font-size="14.00" fill="#cfffac">server/db.js</text>
</g>
<!-- server/cli/createCity.js&#45;&gt;server/db.js -->
<g id="edge37" class="edge">
<title>server/cli/createCity.js&#45;&gt;server/db.js</title>
<path fill="none" stroke="#757575" d="M539.22,-832.88C634.73,-843.22 796.12,-863.38 851,-886.5 922.68,-916.69 992.16,-979.16 1024.36,-1010.58"/>
<polygon fill="#757575" stroke="#757575" points="1022.15,-1013.32 1031.72,-1017.86 1027.07,-1008.34 1022.15,-1013.32"/>
</g>
<!-- server/models/cities.js -->
<g id="node42" class="node">
<title>server/models/cities.js</title>
<path fill="none" stroke="#c6c5fe" d="M797.83,-827C797.83,-827 663.17,-827 663.17,-827 659.33,-827 655.5,-823.17 655.5,-819.33 655.5,-819.33 655.5,-811.67 655.5,-811.67 655.5,-807.83 659.33,-804 663.17,-804 663.17,-804 797.83,-804 797.83,-804 801.67,-804 805.5,-807.83 805.5,-811.67 805.5,-811.67 805.5,-819.33 805.5,-819.33 805.5,-823.17 801.67,-827 797.83,-827"/>
<text text-anchor="middle" x="730.5" y="-811.8" font-family="Arial" font-size="14.00" fill="#c6c5fe">server/models/cities.js</text>
</g>
<!-- server/cli/createCity.js&#45;&gt;server/models/cities.js -->
<g id="edge38" class="edge">
<title>server/cli/createCity.js&#45;&gt;server/models/cities.js</title>
<path fill="none" stroke="#757575" d="M539.05,-822.73C571.9,-821.48 610.87,-820 644.98,-818.71"/>
<polygon fill="#757575" stroke="#757575" points="645.53,-822.19 655.39,-818.31 645.27,-815.19 645.53,-822.19"/>
</g>
<!-- server/models/cities.js&#45;&gt;server/db.js -->
<g id="edge49" class="edge">
<title>server/models/cities.js&#45;&gt;server/db.js</title>
<path fill="none" stroke="#757575" d="M786.56,-827.05C807.58,-832.85 831.24,-841.12 851,-852.5 926.29,-895.86 996.45,-973.49 1026.97,-1009.78"/>
<polygon fill="#757575" stroke="#757575" points="1024.45,-1012.22 1033.53,-1017.68 1029.83,-1007.75 1024.45,-1012.22"/>
</g>
<!-- server/cli/createHero.js -->
<g id="node43" class="node">
<title>server/cli/createHero.js</title>
<path fill="none" stroke="#c6c5fe" d="M534.83,-1206C534.83,-1206 395.17,-1206 395.17,-1206 391.33,-1206 387.5,-1202.17 387.5,-1198.33 387.5,-1198.33 387.5,-1190.67 387.5,-1190.67 387.5,-1186.83 391.33,-1183 395.17,-1183 395.17,-1183 534.83,-1183 534.83,-1183 538.67,-1183 542.5,-1186.83 542.5,-1190.67 542.5,-1190.67 542.5,-1198.33 542.5,-1198.33 542.5,-1202.17 538.67,-1206 534.83,-1206"/>
<text text-anchor="middle" x="465" y="-1190.8" font-family="Arial" font-size="14.00" fill="#c6c5fe">server/cli/createHero.js</text>
</g>
<!-- server/cli/createHero.js&#45;&gt;server/db.js -->
<g id="edge39" class="edge">
<title>server/cli/createHero.js&#45;&gt;server/db.js</title>
<path fill="none" stroke="#757575" d="M542.77,-1203.43C622.4,-1209.77 749.28,-1211.56 851,-1174.5 924.81,-1147.61 993.79,-1081.98 1025.21,-1049.03"/>
<polygon fill="#757575" stroke="#757575" points="1028.07,-1051.09 1032.36,-1041.41 1022.97,-1046.3 1028.07,-1051.09"/>
</g>
<!-- server/models/superheroes.js -->
<g id="node44" class="node">
<title>server/models/superheroes.js</title>
<path fill="none" stroke="#c6c5fe" d="M819.83,-1246C819.83,-1246 641.17,-1246 641.17,-1246 637.33,-1246 633.5,-1242.17 633.5,-1238.33 633.5,-1238.33 633.5,-1230.67 633.5,-1230.67 633.5,-1226.83 637.33,-1223 641.17,-1223 641.17,-1223 819.83,-1223 819.83,-1223 823.67,-1223 827.5,-1226.83 827.5,-1230.67 827.5,-1230.67 827.5,-1238.33 827.5,-1238.33 827.5,-1242.17 823.67,-1246 819.83,-1246"/>
<text text-anchor="middle" x="730.5" y="-1230.8" font-family="Arial" font-size="14.00" fill="#c6c5fe">server/models/superheroes.js</text>
</g>
<!-- server/cli/createHero.js&#45;&gt;server/models/superheroes.js -->
<g id="edge40" class="edge">
<title>server/cli/createHero.js&#45;&gt;server/models/superheroes.js</title>
<path fill="none" stroke="#757575" d="M541.86,-1206.02C573.69,-1210.85 610.86,-1216.49 643.68,-1221.47"/>
<polygon fill="#757575" stroke="#757575" points="643.31,-1224.96 653.72,-1223 644.36,-1218.03 643.31,-1224.96"/>
</g>
<!-- server/models/superheroes.js&#45;&gt;server/db.js -->
<g id="edge51" class="edge">
<title>server/models/superheroes.js&#45;&gt;server/db.js</title>
<path fill="none" stroke="#757575" d="M810.11,-1222.94C824.2,-1219.16 838.39,-1214.14 851,-1207.5 928.44,-1166.7 998.01,-1086.57 1027.74,-1049.36"/>
<polygon fill="#757575" stroke="#757575" points="1030.66,-1051.3 1034.1,-1041.28 1025.17,-1046.97 1030.66,-1051.3"/>
</g>
<!-- server/cli/generateVideoIndex.js -->
<g id="node45" class="node">
<title>server/cli/generateVideoIndex.js</title>
<path fill="none" stroke="#cfffac" d="M256.83,-1063C256.83,-1063 63.17,-1063 63.17,-1063 59.33,-1063 55.5,-1059.17 55.5,-1055.33 55.5,-1055.33 55.5,-1047.67 55.5,-1047.67 55.5,-1043.83 59.33,-1040 63.17,-1040 63.17,-1040 256.83,-1040 256.83,-1040 260.67,-1040 264.5,-1043.83 264.5,-1047.67 264.5,-1047.67 264.5,-1055.33 264.5,-1055.33 264.5,-1059.17 260.67,-1063 256.83,-1063"/>
<text text-anchor="middle" x="160" y="-1047.8" font-family="Arial" font-size="14.00" fill="#cfffac">server/cli/generateVideoIndex.js</text>
</g>
<!-- server/cli/listCities.js -->
<g id="node46" class="node">
<title>server/cli/listCities.js</title>
<path fill="none" stroke="#c6c5fe" d="M526.33,-755C526.33,-755 403.67,-755 403.67,-755 399.83,-755 396,-751.17 396,-747.33 396,-747.33 396,-739.67 396,-739.67 396,-735.83 399.83,-732 403.67,-732 403.67,-732 526.33,-732 526.33,-732 530.17,-732 534,-735.83 534,-739.67 534,-739.67 534,-747.33 534,-747.33 534,-751.17 530.17,-755 526.33,-755"/>
<text text-anchor="middle" x="465" y="-739.8" font-family="Arial" font-size="14.00" fill="#c6c5fe">server/cli/listCities.js</text>
</g>
<!-- server/cli/listCities.js&#45;&gt;server/db.js -->
<g id="edge41" class="edge">
<title>server/cli/listCities.js&#45;&gt;server/db.js</title>
<path fill="none" stroke="#757575" d="M534.33,-737.95C615.17,-734.54 751.34,-738.92 851,-794.5 943.57,-846.13 1009.23,-961.75 1033.1,-1008.9"/>
<polygon fill="#757575" stroke="#757575" points="1029.97,-1010.47 1037.55,-1017.87 1036.24,-1007.35 1029.97,-1010.47"/>
</g>
<!-- server/cli/listCities.js&#45;&gt;server/models/cities.js -->
<g id="edge42" class="edge">
<title>server/cli/listCities.js&#45;&gt;server/models/cities.js</title>
<path fill="none" stroke="#757575" d="M534.01,-754.6C547.34,-757.19 561.17,-760.18 574,-763.5 613.91,-773.82 658.44,-789.1 689.58,-800.43"/>
<polygon fill="#757575" stroke="#757575" points="688.6,-803.8 699.19,-803.96 691.01,-797.23 688.6,-803.8"/>
</g>
<!-- server/cli/listHeroes.js -->
<g id="node47" class="node">
<title>server/cli/listHeroes.js</title>
<path fill="none" stroke="#c6c5fe" d="M531.33,-1288C531.33,-1288 398.67,-1288 398.67,-1288 394.83,-1288 391,-1284.17 391,-1280.33 391,-1280.33 391,-1272.67 391,-1272.67 391,-1268.83 394.83,-1265 398.67,-1265 398.67,-1265 531.33,-1265 531.33,-1265 535.17,-1265 539,-1268.83 539,-1272.67 539,-1272.67 539,-1280.33 539,-1280.33 539,-1284.17 535.17,-1288 531.33,-1288"/>
<text text-anchor="middle" x="465" y="-1272.8" font-family="Arial" font-size="14.00" fill="#c6c5fe">server/cli/listHeroes.js</text>
</g>
<!-- server/cli/listHeroes.js&#45;&gt;server/db.js -->
<g id="edge43" class="edge">
<title>server/cli/listHeroes.js&#45;&gt;server/db.js</title>
<path fill="none" stroke="#757575" d="M531.94,-1288.01C611.93,-1298.7 748.76,-1306.22 851,-1255.5 943.38,-1209.67 1008.74,-1097.2 1032.81,-1050.43"/>
<polygon fill="#757575" stroke="#757575" points="1036.06,-1051.75 1037.43,-1041.25 1029.81,-1048.6 1036.06,-1051.75"/>
</g>
<!-- server/cli/listHeroes.js&#45;&gt;server/models/superheroes.js -->
<g id="edge44" class="edge">
<title>server/cli/listHeroes.js&#45;&gt;server/models/superheroes.js</title>
<path fill="none" stroke="#757575" d="M538.35,-1264.97C572.05,-1259.6 612.3,-1253.18 647.16,-1247.62"/>
<polygon fill="#757575" stroke="#757575" points="647.99,-1251.04 657.31,-1246.01 646.88,-1244.12 647.99,-1251.04"/>
</g>
<!-- server/cli/testCreateReaction.js -->
<g id="node48" class="node">
<title>server/cli/testCreateReaction.js</title>
<path fill="none" stroke="#c6c5fe" d="M558.83,-1124C558.83,-1124 371.17,-1124 371.17,-1124 367.33,-1124 363.5,-1120.17 363.5,-1116.33 363.5,-1116.33 363.5,-1108.67 363.5,-1108.67 363.5,-1104.83 367.33,-1101 371.17,-1101 371.17,-1101 558.83,-1101 558.83,-1101 562.67,-1101 566.5,-1104.83 566.5,-1108.67 566.5,-1108.67 566.5,-1116.33 566.5,-1116.33 566.5,-1120.17 562.67,-1124 558.83,-1124"/>
<text text-anchor="middle" x="465" y="-1108.8" font-family="Arial" font-size="14.00" fill="#c6c5fe">server/cli/testCreateReaction.js</text>
</g>
<!-- server/models/reactions.js -->
<g id="node49" class="node">
<title>server/models/reactions.js</title>
<path fill="none" stroke="#c6c5fe" d="M809.83,-1123C809.83,-1123 651.17,-1123 651.17,-1123 647.33,-1123 643.5,-1119.17 643.5,-1115.33 643.5,-1115.33 643.5,-1107.67 643.5,-1107.67 643.5,-1103.83 647.33,-1100 651.17,-1100 651.17,-1100 809.83,-1100 809.83,-1100 813.67,-1100 817.5,-1103.83 817.5,-1107.67 817.5,-1107.67 817.5,-1115.33 817.5,-1115.33 817.5,-1119.17 813.67,-1123 809.83,-1123"/>
<text text-anchor="middle" x="730.5" y="-1107.8" font-family="Arial" font-size="14.00" fill="#c6c5fe">server/models/reactions.js</text>
</g>
<!-- server/cli/testCreateReaction.js&#45;&gt;server/models/reactions.js -->
<g id="edge45" class="edge">
<title>server/cli/testCreateReaction.js&#45;&gt;server/models/reactions.js</title>
<path fill="none" stroke="#757575" d="M566.75,-1112.12C588.57,-1112.03 611.6,-1111.95 633.24,-1111.87"/>
<polygon fill="#757575" stroke="#757575" points="633.43,-1115.36 643.41,-1111.83 633.4,-1108.36 633.43,-1115.36"/>
</g>
<!-- server/models/reactions.js&#45;&gt;server/db.js -->
<g id="edge50" class="edge">
<title>server/models/reactions.js&#45;&gt;server/db.js</title>
<path fill="none" stroke="#757575" d="M785.49,-1099.98C806.06,-1095.42 829.67,-1089.96 851,-1084.5 900.34,-1071.87 956.26,-1055.63 994.97,-1044.08"/>
<polygon fill="#757575" stroke="#757575" points="996.35,-1047.32 1004.92,-1041.1 994.34,-1040.61 996.35,-1047.32"/>
</g>
<!-- server/cli/videoComment.js -->
<g id="node50" class="node">
<title>server/cli/videoComment.js</title>
<path fill="none" stroke="#c6c5fe" d="M547.33,-1083C547.33,-1083 382.67,-1083 382.67,-1083 378.83,-1083 375,-1079.17 375,-1075.33 375,-1075.33 375,-1067.67 375,-1067.67 375,-1063.83 378.83,-1060 382.67,-1060 382.67,-1060 547.33,-1060 547.33,-1060 551.17,-1060 555,-1063.83 555,-1067.67 555,-1067.67 555,-1075.33 555,-1075.33 555,-1079.17 551.17,-1083 547.33,-1083"/>
<text text-anchor="middle" x="465" y="-1067.8" font-family="Arial" font-size="14.00" fill="#c6c5fe">server/cli/videoComment.js</text>
</g>
<!-- server/cli/videoComment.js&#45;&gt;server/db.js -->
<g id="edge46" class="edge">
<title>server/cli/videoComment.js&#45;&gt;server/db.js</title>
<path fill="none" stroke="#757575" d="M555.18,-1068.44C633.28,-1065.39 749.78,-1059.92 851,-1051.5 898.42,-1047.56 952.23,-1041.23 990.79,-1036.37"/>
<polygon fill="#757575" stroke="#757575" points="991.27,-1039.84 1000.75,-1035.11 990.39,-1032.89 991.27,-1039.84"/>
</g>
<!-- server/cli/videoComment.js&#45;&gt;server/models/reactions.js -->
<g id="edge47" class="edge">
<title>server/cli/videoComment.js&#45;&gt;server/models/reactions.js</title>
<path fill="none" stroke="#757575" d="M541.86,-1083.02C573.69,-1087.85 610.86,-1093.49 643.68,-1098.47"/>
<polygon fill="#757575" stroke="#757575" points="643.31,-1101.96 653.72,-1100 644.36,-1095.03 643.31,-1101.96"/>
</g>
<!-- server/controllers/interactionsControllers.js -->
<g id="node51" class="node">
<title>server/controllers/interactionsControllers.js</title>
<path fill="none" stroke="#cfffac" d="M288.33,-1104C288.33,-1104 31.67,-1104 31.67,-1104 27.83,-1104 24,-1100.17 24,-1096.33 24,-1096.33 24,-1088.67 24,-1088.67 24,-1084.83 27.83,-1081 31.67,-1081 31.67,-1081 288.33,-1081 288.33,-1081 292.17,-1081 296,-1084.83 296,-1088.67 296,-1088.67 296,-1096.33 296,-1096.33 296,-1100.17 292.17,-1104 288.33,-1104"/>
<text text-anchor="middle" x="160" y="-1088.8" font-family="Arial" font-size="14.00" fill="#cfffac">server/controllers/interactionsControllers.js</text>
</g>
<!-- server/middleware/authMiddleware.js -->
<g id="node52" class="node">
<title>server/middleware/authMiddleware.js</title>
<path fill="none" stroke="#cfffac" d="M843.33,-1165C843.33,-1165 617.67,-1165 617.67,-1165 613.83,-1165 610,-1161.17 610,-1157.33 610,-1157.33 610,-1149.67 610,-1149.67 610,-1145.83 613.83,-1142 617.67,-1142 617.67,-1142 843.33,-1142 843.33,-1142 847.17,-1142 851,-1145.83 851,-1149.67 851,-1149.67 851,-1157.33 851,-1157.33 851,-1161.17 847.17,-1165 843.33,-1165"/>
<text text-anchor="middle" x="730.5" y="-1149.8" font-family="Arial" font-size="14.00" fill="#cfffac">server/middleware/authMiddleware.js</text>
</g>
<!-- server/models/cameralocations.js -->
<g id="node53" class="node">
<title>server/models/cameralocations.js</title>
<path fill="none" stroke="#c6c5fe" d="M831.83,-1001C831.83,-1001 629.17,-1001 629.17,-1001 625.33,-1001 621.5,-997.17 621.5,-993.33 621.5,-993.33 621.5,-985.67 621.5,-985.67 621.5,-981.83 625.33,-978 629.17,-978 629.17,-978 831.83,-978 831.83,-978 835.67,-978 839.5,-981.83 839.5,-985.67 839.5,-985.67 839.5,-993.33 839.5,-993.33 839.5,-997.17 835.67,-1001 831.83,-1001"/>
<text text-anchor="middle" x="730.5" y="-985.8" font-family="Arial" font-size="14.00" fill="#c6c5fe">server/models/cameralocations.js</text>
</g>
<!-- server/models/cameralocations.js&#45;&gt;server/db.js -->
<g id="edge48" class="edge">
<title>server/models/cameralocations.js&#45;&gt;server/db.js</title>
<path fill="none" stroke="#757575" d="M821.18,-1001.02C876.16,-1008.08 944.61,-1016.87 990.82,-1022.8"/>
<polygon fill="#757575" stroke="#757575" points="990.54,-1026.29 1000.91,-1024.09 991.43,-1019.35 990.54,-1026.29"/>
</g>
<!-- server/models/users.js -->
<g id="node54" class="node">
<title>server/models/users.js</title>
<path fill="none" stroke="#c6c5fe" d="M798.83,-919C798.83,-919 662.17,-919 662.17,-919 658.33,-919 654.5,-915.17 654.5,-911.33 654.5,-911.33 654.5,-903.67 654.5,-903.67 654.5,-899.83 658.33,-896 662.17,-896 662.17,-896 798.83,-896 798.83,-896 802.67,-896 806.5,-899.83 806.5,-903.67 806.5,-903.67 806.5,-911.33 806.5,-911.33 806.5,-915.17 802.67,-919 798.83,-919"/>
<text text-anchor="middle" x="730.5" y="-903.8" font-family="Arial" font-size="14.00" fill="#c6c5fe">server/models/users.js</text>
</g>
<!-- server/models/users.js&#45;&gt;server/db.js -->
<g id="edge52" class="edge">
<title>server/models/users.js&#45;&gt;server/db.js</title>
<path fill="none" stroke="#757575" d="M761.09,-919.09C817.59,-941.22 940.86,-989.5 1004.01,-1014.23"/>
<polygon fill="#757575" stroke="#757575" points="1003.02,-1017.6 1013.61,-1017.99 1005.58,-1011.08 1003.02,-1017.6"/>
</g>
<!-- server/models/video.js -->
<g id="node55" class="node">
<title>server/models/video.js</title>
<path fill="none" stroke="#cfffac" d="M798.83,-1042C798.83,-1042 662.17,-1042 662.17,-1042 658.33,-1042 654.5,-1038.17 654.5,-1034.33 654.5,-1034.33 654.5,-1026.67 654.5,-1026.67 654.5,-1022.83 658.33,-1019 662.17,-1019 662.17,-1019 798.83,-1019 798.83,-1019 802.67,-1019 806.5,-1022.83 806.5,-1026.67 806.5,-1026.67 806.5,-1034.33 806.5,-1034.33 806.5,-1038.17 802.67,-1042 798.83,-1042"/>
<text text-anchor="middle" x="730.5" y="-1026.8" font-family="Arial" font-size="14.00" fill="#cfffac">server/models/video.js</text>
</g>
<!-- server/routes/authOld.js -->
<g id="node56" class="node">
<title>server/routes/authOld.js</title>
<path fill="none" stroke="#cfffac" d="M232.83,-1145C232.83,-1145 87.17,-1145 87.17,-1145 83.33,-1145 79.5,-1141.17 79.5,-1137.33 79.5,-1137.33 79.5,-1129.67 79.5,-1129.67 79.5,-1125.83 83.33,-1122 87.17,-1122 87.17,-1122 232.83,-1122 232.83,-1122 236.67,-1122 240.5,-1125.83 240.5,-1129.67 240.5,-1129.67 240.5,-1137.33 240.5,-1137.33 240.5,-1141.17 236.67,-1145 232.83,-1145"/>
<text text-anchor="middle" x="160" y="-1129.8" font-family="Arial" font-size="14.00" fill="#cfffac">server/routes/authOld.js</text>
</g>
<!-- server/routes/cameraLocations.js -->
<g id="node57" class="node">
<title>server/routes/cameraLocations.js</title>
<path fill="none" stroke="#c6c5fe" d="M565.33,-960C565.33,-960 364.67,-960 364.67,-960 360.83,-960 357,-956.17 357,-952.33 357,-952.33 357,-944.67 357,-944.67 357,-940.83 360.83,-937 364.67,-937 364.67,-937 565.33,-937 565.33,-937 569.17,-937 573,-940.83 573,-944.67 573,-944.67 573,-952.33 573,-952.33 573,-956.17 569.17,-960 565.33,-960"/>
<text text-anchor="middle" x="465" y="-944.8" font-family="Arial" font-size="14.00" fill="#c6c5fe">server/routes/cameraLocations.js</text>
</g>
<!-- server/routes/cameraLocations.js&#45;&gt;server/models/cameralocations.js -->
<g id="edge53" class="edge">
<title>server/routes/cameraLocations.js&#45;&gt;server/models/cameralocations.js</title>
<path fill="none" stroke="#757575" d="M540.1,-960.03C572.94,-965.14 611.72,-971.17 645.62,-976.45"/>
<polygon fill="#757575" stroke="#757575" points="645.08,-979.91 655.5,-977.99 646.16,-972.99 645.08,-979.91"/>
</g>
<!-- server/routes/cityRoutes.js -->
<g id="node58" class="node">
<title>server/routes/cityRoutes.js</title>
<path fill="none" stroke="#c6c5fe" d="M545.33,-796C545.33,-796 384.67,-796 384.67,-796 380.83,-796 377,-792.17 377,-788.33 377,-788.33 377,-780.67 377,-780.67 377,-776.83 380.83,-773 384.67,-773 384.67,-773 545.33,-773 545.33,-773 549.17,-773 553,-776.83 553,-780.67 553,-780.67 553,-788.33 553,-788.33 553,-792.17 549.17,-796 545.33,-796"/>
<text text-anchor="middle" x="465" y="-780.8" font-family="Arial" font-size="14.00" fill="#c6c5fe">server/routes/cityRoutes.js</text>
</g>
<!-- server/routes/cityRoutes.js&#45;&gt;server/models/cities.js -->
<g id="edge54" class="edge">
<title>server/routes/cityRoutes.js&#45;&gt;server/models/cities.js</title>
<path fill="none" stroke="#757575" d="M553.01,-794.74C582.65,-798.22 615.71,-802.11 645.13,-805.57"/>
<polygon fill="#757575" stroke="#757575" points="645.04,-809.09 655.38,-806.78 645.85,-802.14 645.04,-809.09"/>
</g>
<!-- server/routes/frontPageRoutes.js -->
<g id="node59" class="node">
<title>server/routes/frontPageRoutes.js</title>
<path fill="none" stroke="#c6c5fe" d="M564.33,-1001C564.33,-1001 365.67,-1001 365.67,-1001 361.83,-1001 358,-997.17 358,-993.33 358,-993.33 358,-985.67 358,-985.67 358,-981.83 361.83,-978 365.67,-978 365.67,-978 564.33,-978 564.33,-978 568.17,-978 572,-981.83 572,-985.67 572,-985.67 572,-993.33 572,-993.33 572,-997.17 568.17,-1001 564.33,-1001"/>
<text text-anchor="middle" x="465" y="-985.8" font-family="Arial" font-size="14.00" fill="#c6c5fe">server/routes/frontPageRoutes.js</text>
</g>
<!-- server/routes/frontPageRoutes.js&#45;&gt;server/models/cameralocations.js -->
<g id="edge55" class="edge">
<title>server/routes/frontPageRoutes.js&#45;&gt;server/models/cameralocations.js</title>
<path fill="none" stroke="#757575" d="M572.04,-989.5C584.79,-989.5 597.87,-989.5 610.79,-989.5"/>
<polygon fill="#757575" stroke="#757575" points="611.1,-993 621.1,-989.5 611.1,-986 611.1,-993"/>
</g>
<!-- server/routes/interactions.js -->
<g id="node60" class="node">
<title>server/routes/interactions.js</title>
<path fill="none" stroke="#cfffac" d="M243.33,-1186C243.33,-1186 76.67,-1186 76.67,-1186 72.83,-1186 69,-1182.17 69,-1178.33 69,-1178.33 69,-1170.67 69,-1170.67 69,-1166.83 72.83,-1163 76.67,-1163 76.67,-1163 243.33,-1163 243.33,-1163 247.17,-1163 251,-1166.83 251,-1170.67 251,-1170.67 251,-1178.33 251,-1178.33 251,-1182.17 247.17,-1186 243.33,-1186"/>
<text text-anchor="middle" x="160" y="-1170.8" font-family="Arial" font-size="14.00" fill="#cfffac">server/routes/interactions.js</text>
</g>
<!-- server/routes/junk/authJunk.js -->
<g id="node61" class="node">
<title>server/routes/junk/authJunk.js</title>
<path fill="none" stroke="#cfffac" d="M250.33,-1227C250.33,-1227 69.67,-1227 69.67,-1227 65.83,-1227 62,-1223.17 62,-1219.33 62,-1219.33 62,-1211.67 62,-1211.67 62,-1207.83 65.83,-1204 69.67,-1204 69.67,-1204 250.33,-1204 250.33,-1204 254.17,-1204 258,-1207.83 258,-1211.67 258,-1211.67 258,-1219.33 258,-1219.33 258,-1223.17 254.17,-1227 250.33,-1227"/>
<text text-anchor="middle" x="160" y="-1211.8" font-family="Arial" font-size="14.00" fill="#cfffac">server/routes/junk/authJunk.js</text>
</g>
<!-- server/routes/reactionsRoutes.js -->
<g id="node62" class="node">
<title>server/routes/reactionsRoutes.js</title>
<path fill="none" stroke="#c6c5fe" d="M562.33,-1165C562.33,-1165 367.67,-1165 367.67,-1165 363.83,-1165 360,-1161.17 360,-1157.33 360,-1157.33 360,-1149.67 360,-1149.67 360,-1145.83 363.83,-1142 367.67,-1142 367.67,-1142 562.33,-1142 562.33,-1142 566.17,-1142 570,-1145.83 570,-1149.67 570,-1149.67 570,-1157.33 570,-1157.33 570,-1161.17 566.17,-1165 562.33,-1165"/>
<text text-anchor="middle" x="465" y="-1149.8" font-family="Arial" font-size="14.00" fill="#c6c5fe">server/routes/reactionsRoutes.js</text>
</g>
<!-- server/routes/reactionsRoutes.js&#45;&gt;server/models/reactions.js -->
<g id="edge57" class="edge">
<title>server/routes/reactionsRoutes.js&#45;&gt;server/models/reactions.js</title>
<path fill="none" stroke="#757575" d="M538.35,-1141.97C572.05,-1136.6 612.3,-1130.18 647.16,-1124.62"/>
<polygon fill="#757575" stroke="#757575" points="647.99,-1128.04 657.31,-1123.01 646.88,-1121.12 647.99,-1128.04"/>
</g>
<!-- server/routes/reactionsRoutes.js&#45;&gt;server/middleware/authMiddleware.js -->
<g id="edge56" class="edge">
<title>server/routes/reactionsRoutes.js&#45;&gt;server/middleware/authMiddleware.js</title>
<path fill="none" stroke="#757575" d="M570.14,-1153.5C579.75,-1153.5 589.57,-1153.5 599.37,-1153.5"/>
<polygon fill="#757575" stroke="#757575" points="599.57,-1157 609.57,-1153.5 599.57,-1150 599.57,-1157"/>
</g>
<!-- server/routes/superHeroRoutes.js -->
<g id="node63" class="node">
<title>server/routes/superHeroRoutes.js</title>
<path fill="none" stroke="#c6c5fe" d="M566.33,-1247C566.33,-1247 363.67,-1247 363.67,-1247 359.83,-1247 356,-1243.17 356,-1239.33 356,-1239.33 356,-1231.67 356,-1231.67 356,-1227.83 359.83,-1224 363.67,-1224 363.67,-1224 566.33,-1224 566.33,-1224 570.17,-1224 574,-1227.83 574,-1231.67 574,-1231.67 574,-1239.33 574,-1239.33 574,-1243.17 570.17,-1247 566.33,-1247"/>
<text text-anchor="middle" x="465" y="-1231.8" font-family="Arial" font-size="14.00" fill="#c6c5fe">server/routes/superHeroRoutes.js</text>
</g>
<!-- server/routes/superHeroRoutes.js&#45;&gt;server/models/superheroes.js -->
<g id="edge58" class="edge">
<title>server/routes/superHeroRoutes.js&#45;&gt;server/models/superheroes.js</title>
<path fill="none" stroke="#757575" d="M574.32,-1235.09C590.39,-1235.03 606.93,-1234.97 622.97,-1234.9"/>
<polygon fill="#757575" stroke="#757575" points="623.43,-1238.4 633.42,-1234.86 623.4,-1231.4 623.43,-1238.4"/>
</g>
<!-- server/routes/userRoutes copy.js -->
<g id="node64" class="node">
<title>server/routes/userRoutes copy.js</title>
<path fill="none" stroke="#c6c5fe" d="M563.83,-878C563.83,-878 366.17,-878 366.17,-878 362.33,-878 358.5,-874.17 358.5,-870.33 358.5,-870.33 358.5,-862.67 358.5,-862.67 358.5,-858.83 362.33,-855 366.17,-855 366.17,-855 563.83,-855 563.83,-855 567.67,-855 571.5,-858.83 571.5,-862.67 571.5,-862.67 571.5,-870.33 571.5,-870.33 571.5,-874.17 567.67,-878 563.83,-878"/>
<text text-anchor="middle" x="465" y="-862.8" font-family="Arial" font-size="14.00" fill="#c6c5fe">server/routes/userRoutes copy.js</text>
</g>
<!-- server/routes/userRoutes copy.js&#45;&gt;server/models/users.js -->
<g id="edge59" class="edge">
<title>server/routes/userRoutes copy.js&#45;&gt;server/models/users.js</title>
<path fill="none" stroke="#757575" d="M540.1,-878.03C572.94,-883.14 611.72,-889.17 645.62,-894.45"/>
<polygon fill="#757575" stroke="#757575" points="645.08,-897.91 655.5,-895.99 646.16,-890.99 645.08,-897.91"/>
</g>
<!-- server/routes/userRoutes.js -->
<g id="node65" class="node">
<title>server/routes/userRoutes.js</title>
<path fill="none" stroke="#c6c5fe" d="M548.33,-919C548.33,-919 381.67,-919 381.67,-919 377.83,-919 374,-915.17 374,-911.33 374,-911.33 374,-903.67 374,-903.67 374,-899.83 377.83,-896 381.67,-896 381.67,-896 548.33,-896 548.33,-896 552.17,-896 556,-899.83 556,-903.67 556,-903.67 556,-911.33 556,-911.33 556,-915.17 552.17,-919 548.33,-919"/>
<text text-anchor="middle" x="465" y="-903.8" font-family="Arial" font-size="14.00" fill="#c6c5fe">server/routes/userRoutes.js</text>
</g>
<!-- server/routes/userRoutes.js&#45;&gt;server/models/users.js -->
<g id="edge60" class="edge">
<title>server/routes/userRoutes.js&#45;&gt;server/models/users.js</title>
<path fill="none" stroke="#757575" d="M556.31,-907.5C584.71,-907.5 615.96,-907.5 644.01,-907.5"/>
<polygon fill="#757575" stroke="#757575" points="644.19,-911 654.19,-907.5 644.19,-904 644.19,-911"/>
</g>
<!-- server/routes/videos.js -->
<g id="node66" class="node">
<title>server/routes/videos.js</title>
<path fill="none" stroke="#c6c5fe" d="M533.33,-1042C533.33,-1042 396.67,-1042 396.67,-1042 392.83,-1042 389,-1038.17 389,-1034.33 389,-1034.33 389,-1026.67 389,-1026.67 389,-1022.83 392.83,-1019 396.67,-1019 396.67,-1019 533.33,-1019 533.33,-1019 537.17,-1019 541,-1022.83 541,-1026.67 541,-1026.67 541,-1034.33 541,-1034.33 541,-1038.17 537.17,-1042 533.33,-1042"/>
<text text-anchor="middle" x="465" y="-1026.8" font-family="Arial" font-size="14.00" fill="#c6c5fe">server/routes/videos.js</text>
</g>
<!-- server/routes/videos.js&#45;&gt;server/models/cameralocations.js -->
<g id="edge61" class="edge">
<title>server/routes/videos.js&#45;&gt;server/models/cameralocations.js</title>
<path fill="none" stroke="#757575" d="M540.1,-1018.97C572.94,-1013.86 611.72,-1007.83 645.62,-1002.55"/>
<polygon fill="#757575" stroke="#757575" points="646.16,-1006.01 655.5,-1001.01 645.08,-999.09 646.16,-1006.01"/>
</g>
<!-- server/routes/videos.js&#45;&gt;server/models/video.js -->
<g id="edge62" class="edge">
<title>server/routes/videos.js&#45;&gt;server/models/video.js</title>
<path fill="none" stroke="#757575" d="M541.16,-1030.5C573.28,-1030.5 610.94,-1030.5 644.11,-1030.5"/>
<polygon fill="#757575" stroke="#757575" points="644.24,-1034 654.24,-1030.5 644.24,-1027 644.24,-1034"/>
</g>
<!-- server/server copy.js -->
<g id="node67" class="node">
<title>server/server copy.js</title>
<path fill="none" stroke="#c6c5fe" d="M222.33,-1022C222.33,-1022 97.67,-1022 97.67,-1022 93.83,-1022 90,-1018.17 90,-1014.33 90,-1014.33 90,-1006.67 90,-1006.67 90,-1002.83 93.83,-999 97.67,-999 97.67,-999 222.33,-999 222.33,-999 226.17,-999 230,-1002.83 230,-1006.67 230,-1006.67 230,-1014.33 230,-1014.33 230,-1018.17 226.17,-1022 222.33,-1022"/>
<text text-anchor="middle" x="160" y="-1006.8" font-family="Arial" font-size="14.00" fill="#c6c5fe">server/server copy.js</text>
</g>
<!-- server/server copy.js&#45;&gt;server/routes/cameraLocations.js -->
<g id="edge63" class="edge">
<title>server/server copy.js&#45;&gt;server/routes/cameraLocations.js</title>
<path fill="none" stroke="#757575" d="M230.06,-1007.36C258.5,-1004.54 291.42,-999.28 320,-989.5 337.53,-983.5 338.64,-974.95 356,-968.5 361.87,-966.32 368,-964.37 374.24,-962.63"/>
<polygon fill="#757575" stroke="#757575" points="375.32,-965.97 384.11,-960.06 373.55,-959.19 375.32,-965.97"/>
</g>
<!-- server/server copy.js&#45;&gt;server/routes/cityRoutes.js -->
<g id="edge64" class="edge">
<title>server/server copy.js&#45;&gt;server/routes/cityRoutes.js</title>
<path fill="none" stroke="#757575" d="M230.14,-1018.39C261.32,-1018.07 296.38,-1011.73 320,-989.5 381.01,-932.1 296.5,-863.46 356,-804.5 359.58,-800.95 363.57,-797.93 367.85,-795.35"/>
<polygon fill="#757575" stroke="#757575" points="369.69,-798.34 377,-790.67 366.5,-792.11 369.69,-798.34"/>
</g>
<!-- server/server copy.js&#45;&gt;server/routes/frontPageRoutes.js -->
<g id="edge65" class="edge">
<title>server/server copy.js&#45;&gt;server/routes/frontPageRoutes.js</title>
<path fill="none" stroke="#757575" d="M230.13,-1005.71C264.91,-1003.3 308.01,-1000.31 347.7,-997.56"/>
<polygon fill="#757575" stroke="#757575" points="347.98,-1001.05 357.71,-996.87 347.49,-994.07 347.98,-1001.05"/>
</g>
<!-- server/server copy.js&#45;&gt;server/routes/reactionsRoutes.js -->
<g id="edge66" class="edge">
<title>server/server copy.js&#45;&gt;server/routes/reactionsRoutes.js</title>
<path fill="none" stroke="#757575" d="M230.34,-1004.25C260.82,-1005.1 295.24,-1011.42 320,-1031.5 357.34,-1061.78 319.46,-1102.26 356,-1133.5 357.18,-1134.51 358.39,-1135.47 359.63,-1136.39"/>
<polygon fill="#757575" stroke="#757575" points="357.93,-1139.45 368.24,-1141.88 361.69,-1133.55 357.93,-1139.45"/>
</g>
<!-- server/server copy.js&#45;&gt;server/routes/superHeroRoutes.js -->
<g id="edge67" class="edge">
<title>server/server copy.js&#45;&gt;server/routes/superHeroRoutes.js</title>
<path fill="none" stroke="#757575" d="M230.13,-1002.62C261.31,-1002.94 296.36,-1009.28 320,-1031.5 380.72,-1088.57 296.78,-1156.88 356,-1215.5 356.81,-1216.3 357.65,-1217.08 358.5,-1217.84"/>
<polygon fill="#757575" stroke="#757575" points="356.57,-1220.76 366.68,-1223.93 360.75,-1215.15 356.57,-1220.76"/>
</g>
<!-- server/server copy.js&#45;&gt;server/routes/userRoutes.js -->
<g id="edge68" class="edge">
<title>server/server copy.js&#45;&gt;server/routes/userRoutes.js</title>
<path fill="none" stroke="#757575" d="M230.3,-1014.48C260.07,-1013.04 293.94,-1006.88 320,-989.5 346.51,-971.82 329.95,-945.86 356,-927.5 358.77,-925.55 361.67,-923.77 364.67,-922.16"/>
<polygon fill="#757575" stroke="#757575" points="366.42,-925.21 373.97,-917.77 363.43,-918.87 366.42,-925.21"/>
</g>
<!-- server/server copy.js&#45;&gt;server/routes/videos.js -->
<g id="edge69" class="edge">
<title>server/server copy.js&#45;&gt;server/routes/videos.js</title>
<path fill="none" stroke="#757575" d="M230.13,-1015.06C274.23,-1017.97 331.71,-1021.77 378.64,-1024.87"/>
<polygon fill="#757575" stroke="#757575" points="378.59,-1028.37 388.79,-1025.54 379.05,-1021.38 378.59,-1028.37"/>
</g>
<!-- server/server.js -->
<g id="node68" class="node">
<title>server/server.js</title>
<path fill="none" stroke="#c6c5fe" d="M206.33,-981C206.33,-981 113.67,-981 113.67,-981 109.83,-981 106,-977.17 106,-973.33 106,-973.33 106,-965.67 106,-965.67 106,-961.83 109.83,-958 113.67,-958 113.67,-958 206.33,-958 206.33,-958 210.17,-958 214,-961.83 214,-965.67 214,-965.67 214,-973.33 214,-973.33 214,-977.17 210.17,-981 206.33,-981"/>
<text text-anchor="middle" x="160" y="-965.8" font-family="Arial" font-size="14.00" fill="#c6c5fe">server/server.js</text>
</g>
<!-- server/server.js&#45;&gt;server/routes/cameraLocations.js -->
<g id="edge70" class="edge">
<title>server/server.js&#45;&gt;server/routes/cameraLocations.js</title>
<path fill="none" stroke="#757575" d="M214.13,-965.82C250.81,-963.28 301.05,-959.79 346.87,-956.62"/>
<polygon fill="#757575" stroke="#757575" points="347.14,-960.11 356.87,-955.92 346.66,-953.12 347.14,-960.11"/>
</g>
<!-- server/server.js&#45;&gt;server/routes/cityRoutes.js -->
<g id="edge71" class="edge">
<title>server/server.js&#45;&gt;server/routes/cityRoutes.js</title>
<path fill="none" stroke="#757575" d="M214.23,-960.61C248.58,-952.3 291.92,-936.6 320,-907.5 353.67,-872.61 319.19,-836.07 356,-804.5 359.56,-801.45 363.43,-798.8 367.51,-796.51"/>
<polygon fill="#757575" stroke="#757575" points="369.3,-799.53 376.78,-792.02 366.25,-793.23 369.3,-799.53"/>
</g>
<!-- server/server.js&#45;&gt;server/routes/frontPageRoutes.js -->
<g id="edge72" class="edge">
<title>server/server.js&#45;&gt;server/routes/frontPageRoutes.js</title>
<path fill="none" stroke="#757575" d="M214.13,-973.01C251.05,-975.44 301.7,-978.79 347.76,-981.83"/>
<polygon fill="#757575" stroke="#757575" points="347.6,-985.32 357.81,-982.49 348.06,-978.34 347.6,-985.32"/>
</g>
<!-- server/server.js&#45;&gt;server/routes/reactionsRoutes.js -->
<g id="edge73" class="edge">
<title>server/server.js&#45;&gt;server/routes/reactionsRoutes.js</title>
<path fill="none" stroke="#757575" d="M214.02,-962.03C248.27,-960.29 291.59,-964.3 320,-989.5 369.36,-1033.27 307.93,-1088.32 356,-1133.5 356.83,-1134.28 357.69,-1135.04 358.56,-1135.77"/>
<polygon fill="#757575" stroke="#757575" points="356.71,-1138.76 366.89,-1141.72 360.78,-1133.06 356.71,-1138.76"/>
</g>
<!-- server/server.js&#45;&gt;server/routes/superHeroRoutes.js -->
<g id="edge74" class="edge">
<title>server/server.js&#45;&gt;server/routes/superHeroRoutes.js</title>
<path fill="none" stroke="#757575" d="M214.37,-961.26C249,-959.13 292.61,-962.99 320,-989.5 393.09,-1060.23 284.99,-1142.68 356,-1215.5 356.67,-1216.19 357.36,-1216.85 358.05,-1217.5"/>
<polygon fill="#757575" stroke="#757575" points="356.03,-1220.36 366.07,-1223.76 360.34,-1214.85 356.03,-1220.36"/>
</g>
<!-- server/server.js&#45;&gt;server/routes/userRoutes.js -->
<g id="edge75" class="edge">
<title>server/server.js&#45;&gt;server/routes/userRoutes.js</title>
<path fill="none" stroke="#757575" d="M212.65,-957.95C251.9,-949.27 307.27,-937.26 356,-927.5 366.99,-925.3 378.63,-923.05 390.04,-920.9"/>
<polygon fill="#757575" stroke="#757575" points="390.8,-924.32 399.98,-919.04 389.51,-917.44 390.8,-924.32"/>
</g>
<!-- server/server.js&#45;&gt;server/routes/videos.js -->
<g id="edge76" class="edge">
<title>server/server.js&#45;&gt;server/routes/videos.js</title>
<path fill="none" stroke="#757575" d="M214.02,-971.12C245.47,-973.31 285.76,-978.3 320,-989.5 337.4,-995.19 338.8,-1003.23 356,-1009.5 363.32,-1012.17 371.05,-1014.52 378.87,-1016.59"/>
<polygon fill="#757575" stroke="#757575" points="378.25,-1020.04 388.8,-1019.05 379.94,-1013.25 378.25,-1020.04"/>
</g>
</g>
</svg>
